{
.formatVersion = 3;
classes = (
{
code = "zero one two three four five six seven eight nine";
name = ordn;
}
);
familyName = Anta;
customParameters = (
{
name = glyphOrder;
value = (
.notdef,
uni0000,
uni000D,
space,
exclam,
quotedbl,
numbersign,
dollar,
percent,
ampersand,
quotesingle,
parenleft,
parenright,
asterisk,
plus,
comma,
hyphen,
period,
slash,
zero,
one,
two,
three,
four,
five,
six,
seven,
eight,
nine,
colon,
semicolon,
less,
equal,
greater,
question,
at,
A,
B,
C,
D,
E,
F,
G,
H,
I,
J,
K,
L,
M,
N,
O,
P,
Q,
R,
S,
T,
U,
V,
W,
X,
Y,
Z,
bracketleft,
backslash,
bracketright,
asciicircum,
underscore,
grave,
a,
b,
c,
d,
e,
f,
g,
h,
i,
j,
k,
l,
m,
n,
o,
p,
q,
r,
s,
t,
u,
v,
w,
x,
y,
z,
braceleft,
bar,
braceright,
asciitilde,
uni00A0,
exclamdown,
cent,
sterling,
currency,
yen,
brokenbar,
section,
dieresis,
copyright,
ordfeminine,
guillemotleft,
logicalnot,
uni00AD,
registered,
macron,
degree,
plusminus,
twosuperior,
threesuperior,
acute,
uni00B5,
paragraph,
periodcentered,
cedilla,
onesuperior,
ordmasculine,
guillemotright,
onequarter,
onehalf,
threequarters,
questiondown,
Agrave,
Aacute,
Acircumflex,
Atilde,
Adieresis,
Aring,
AE,
Ccedilla,
Egrave,
Eacute,
Ecircumflex,
Edieresis,
Igrave,
Iacute,
Icircumflex,
Idieresis,
Eth,
Ntilde,
Ograve,
Oacute,
Ocircumflex,
Otilde,
Odieresis,
multiply,
Oslash,
Ugrave,
Uacute,
Ucircumflex,
Udieresis,
Yacute,
Thorn,
germandbls,
agrave,
aacute,
acircumflex,
atilde,
adieresis,
aring,
ae,
ccedilla,
egrave,
eacute,
ecircumflex,
edieresis,
igrave,
iacute,
icircumflex,
idieresis,
eth,
ntilde,
ograve,
oacute,
ocircumflex,
otilde,
odieresis,
divide,
oslash,
ugrave,
uacute,
ucircumflex,
udieresis,
yacute,
thorn,
ydieresis,
Amacron,
amacron,
Abreve,
abreve,
Aogonek,
aogonek,
Cacute,
cacute,
Ccircumflex,
ccircumflex,
Cdotaccent,
cdotaccent,
Ccaron,
ccaron,
Dcaron,
dcaron,
Dcroat,
dcroat,
Emacron,
emacron,
Ebreve,
ebreve,
Edotaccent,
edotaccent,
Eogonek,
eogonek,
Ecaron,
ecaron,
Gcircumflex,
gcircumflex,
Gbreve,
gbreve,
Gdotaccent,

glyphs = (
{
glyphname = .notdef;
layers = (
{
hints = (
{
horizontal = 1;
place = (0,102);
type = Stem;
},
{
horizontal = 1;
place = (990,102);
type = Stem;
},
{
place = (102,102);
type = Stem;
},
{
place = (820,102);
type = Stem;
}
);
layerId = "AE110022-8FF3-4FF8-83D9-A7F227575217";
shapes = (
{
closed = 1;
nodes = (
(102,0,l),
(922,0,l),
(922,1092,l),
(102,1092,l)
);
},
{
closed = 1;
nodes = (
(204,102,l),
(204,990,l),
(820,990,l),
(820,102,l)
);
}
);
width = 1024;
}
);
leftKerningGroup = at;
},
{
glyphname = exclam;
layers = (
{
hints = (
{
horizontal = 1;
place = (-10,260);
type = Stem;
},
{
horizontal = 1;
place = (1422,-20);
target = down;
type = TopGhost;
},
{
place = (140,260);
type = Stem;
},
{
place = (165,211);
type = Stem;
}
);
layerId = "AE110022-8FF3-4FF8-83D9-A7F227575217";
shapes = (
{
closed = 1;
nodes = (
(140,48,o),
(198,-10,o),
(270,-10,cs),
(343,-10,o),
(400,47,o),
(400,120,cs),
(400,193,o),
(343,250,o),
(270,250,cs),
(198,250,o),
(140,192,o),
(140,120,cs)
);
},
{
closed = 1;
nodes = (
(165,333,l),
(376,333,l),
(376,1422,l),
(165,1422,l)
);
}
);
width = 540;
}
);
leftKerningGroup = S;
unicode = 33;
},
{
glyphname = quotedbl;
layers = (
{
hints = (
{
horizontal = 1;
place = (1164,258);
type = Stem;
},
{
place = (127,135);
type = Stem;
},
{
place = (360,135);
type = Stem;
}
);
layerId = "AE110022-8FF3-4FF8-83D9-A7F227575217";
shapes = (
{
closed = 1;
nodes = (
(120,1422,l),
(127,1164,l),
(262,1164,l),
(269,1422,l)
);
},
{
closed = 1;
nodes = (
(353,1422,l),
(360,1164,l),
(495,1164,l),
(502,1422,l)
);
}
);
width = 622;
}
);
leftKerningGroup = at;
unicode = 34;
},
{
glyphname = numbersign;
layers = (
{
hints = (
{
horizontal = 1;
place = (0,21);
target = up;
type = BottomGhost;
},
{
horizontal = 1;
place = (492,188);
type = Stem;
},
{
horizontal = 1;
place = (808,189);
type = Stem;
},
{
horizontal = 1;
place = (1422,-20);
target = down;
type = TopGhost;
}
);
layerId = "AE110022-8FF3-4FF8-83D9-A7F227575217";
shapes = (
{
closed = 1;
nodes = (
(553,808,l),
(800,808,l),
(792,680,l),
(543,680,l)
);
},
{
closed = 1;
nodes = (
(342,492,l),
(307,0,l),
(496,0,l),
(530,492,l),
(778,492,l),
(744,0,l),
(932,0,l),
(966,492,l),
(1187,492,l),
(1200,680,l),
(980,680,l),
(988,808,l),
(1209,808,l),
(1224,997,l),
(1002,997,l),
(1032,1422,l),
(844,1422,l),
(814,997,l),
(566,997,l),
(596,1422,l),
(407,1422,l),
(378,997,l),
(156,997,l),
(142,808,l),
(364,808,l),
(355,680,l),
(133,680,l),
(120,492,l)
);
}
);
width = 1344;
}
);
leftKerningGroup = at;
unicode = 35;
},
{
glyphname = dollar;
layers = (
{
hints = (
{
horizontal = 1;
place = (0,211);
type = Stem;
},
{
horizontal = 1;
place = (635,210);
type = Stem;
},
{
horizontal = 1;
place = (1212,210);
type = Stem;
},
{
place = (140,211);
type = Stem;
},
{
place = (625,186);
type = Stem;
},
{
place = (1088,211);
type = Stem;
}
);
layerId = "AE110022-8FF3-4FF8-83D9-A7F227575217";
shapes = (
{
closed = 1;
nodes = (
(811,635,l),
(946,635,ls),
(1024,635,o),
(1088,575,o),
(1088,500,cs),
(1088,346,ls),
(1088,270,o),
(1025,211,o),
(946,211,cs),
(811,211,l)
);
},
{
closed = 1;
nodes = (
(351,1072,ls),
(351,1150,o),
(414,1212,o),
(493,1212,cs),
(625,1212,l),
(625,845,l),
(493,845,ls),
(414,845,o),
(351,902,o),
(351,974,cs)
);
},
{
closed = 1;
nodes = (
(140,973,ls),
(140,786,o),
(297,635,o),
(493,635,cs),
(625,635,l),
(625,211,l),
(141,211,l),
(141,0,l),
(625,0,l),
(625,-113,l),
(811,-113,l),
(811,0,l),
(946,0,ls),
(1142,0,o),
(1299,154,o),
(1299,345,cs),
(1299,500,ls),
(1299,691,o),
(1142,845,o),
(946,845,cs),
(811,845,l),
(811,1212,l),
(1228,1212,l),
(1228,1422,l),
(811,1422,l),
(811,1535,l),
(625,1535,l),
(625,1422,l),
(493,1422,ls),
(298,1422,o),
(140,1269,o),
(140,1078,cs)
);
}
);
width = 1439;
}
);
leftKerningGroup = at;
unicode = 36;
},
{
glyphname = percent;
layers = (
{
hints = (
{
horizontal = 1;
place = (0,188);
type = Stem;
},
{
horizontal = 1;
place = (579,188);
type = Stem;
},
{
horizontal = 1;
place = (655,188);
type = Stem;
},
{
horizontal = 1;
place = (1234,188);
type = Stem;
},
{
place = (120,189);
type = Stem;
},
{
place = (604,188);
type = Stem;
},
{
place = (1311,189);
type = Stem;
},
{
place = (1795,188);
type = Stem;
}
);
layerId = "AE110022-8FF3-4FF8-83D9-A7F227575217";
shapes = (
{
closed = 1;
nodes = (
(1500,563,ls),
(1500,614,o),
(1542,655,o),
(1593,655,cs),
(1701,655,ls),
(1753,655,o),
(1795,614,o),
(1795,563,cs),
(1795,280,ls),
(1795,229,o),
(1753,188,o),
(1701,188,cs),
(1593,188,ls),
(1542,188,o),
(1500,229,o),
(1500,280,cs)
);
},
{
closed = 1;
nodes = (
(309,1142,ls),
(309,1193,o),
(351,1234,o),
(402,1234,cs),
(510,1234,ls),
(562,1234,o),
(604,1193,o),
(604,1142,cs),
(604,859,ls),
(604,808,o),
(562,767,o),
(510,767,cs),
(402,767,ls),
(351,767,o),
(309,808,o),
(309,859,cs)
);
},
{
closed = 1;
nodes = (
(1311,281,ls),
(1311,126,o),
(1437,0,o),
(1593,0,cs),
(1701,0,ls),
(1857,0,o),
(1983,126,o),
(1983,281,cs),
(1983,562,ls),
(1983,717,o),
(1857,843,o),
(1701,843,cs),
(1593,843,ls),
(1437,843,o),
(1311,717,o),
(1311,562,cs)
);
},
{
closed = 1;
nodes = (
(668,0,l),
(1664,1422,l),
(1434,1422,l),
(438,0,l)
);
},
{
closed = 1;
nodes = (
(120,860,ls),
(120,705,o),
(246,579,o),
(402,579,cs),
(510,579,ls),
(666,579,o),
(792,705,o),
(792,860,cs),
(792,1141,ls),
(792,1296,o),
(666,1422,o),
(510,1422,cs),
(402,1422,ls),
(246,1422,o),
(120,1296,o),
(120,1141,cs)
);
}
);
width = 2103;
}
);
leftKerningGroup = at;
unicode = 37;
},
{
glyphname = ampersand;
layers = (
{
hints = (
{
horizontal = 1;
place = (0,211);
type = Stem;
},
{
horizontal = 1;
place = (1212,210);
type = Stem;
},
{
place = (120,211);
type = Stem;
},
{
place = (175,210);
type = Stem;
},
{
place = (895,211);
type = Stem;
}
);
layerId = "AE110022-8FF3-4FF8-83D9-A7F227575217";
shapes = (
{
closed = 1;
nodes = (
(331,479,ls),
(331,523,o),
(350,564,o),
(387,599,c),
(844,218,l),
(821,213,o),
(792,211,o),
(760,211,cs),
(459,211,ls),
(388,211,o),
(331,269,o),
(331,340,cs)
);
},
{
closed = 1;
nodes = (
(120,340,ls),
(120,152,o),
(272,0,o),
(459,0,cs),
(814,0,ls),
(890,0,o),
(960,20,o),
(1015,59,c),
(1074,0,l),
(1371,0,l),
(1106,267,l),
(1106,818,l),
(895,818,l),
(895,460,l),
(493,786,ls),
(427,840,o),
(385,939,o),
(385,1045,cs),
(385,1083,ls),
(385,1154,o),
(443,1212,o),
(514,1212,cs),
(1106,1212,l),
(1106,1422,l),
(514,1422,ls),
(327,1422,o),
(175,1270,o),
(175,1082,cs),
(175,1045,ls),
(175,932,o),
(197,841,o),
(243,761,c),
(165,696,o),
(120,592,o),
(120,479,cs)
);
}
);
width = 1411;
}
);
leftKerningGroup = at;
unicode = 38;
},
{
glyphname = quotesingle;
layers = (
{
hints = (
{
horizontal = 1;
place = (1146,276);
type = Stem;
},
{
place = (127,135);
type = Stem;
}
);
layerId = "AE110022-8FF3-4FF8-83D9-A7F227575217";
shapes = (
{
closed = 1;
nodes = (
(120,1422,l),
(127,1146,l),
(262,1146,l),
(269,1422,l)
);
}
);
width = 389;
}
);
leftKerningGroup = at;
unicode = 39;
},
{
glyphname = parenleft;
layers = (
{
hints = (
{
horizontal = 1;
place = (-390,210);
type = Stem;
},
{
horizontal = 1;
place = (1419,210);
type = Stem;
},
{
place = (140,211);
type = Stem;
}
);
layerId = "AE110022-8FF3-4FF8-83D9-A7F227575217";
shapes = (
{
closed = 1;
nodes = (
(140,-61,ls),
(140,-315,o),
(253,-390,o),
(637,-390,c),
(637,-180,l),
(406,-180,o),
(351,-157,o),
(351,-61,cs),
(351,1300,ls),
(351,1397,o),
(404,1419,o),
(637,1419,c),
(637,1629,l),
(254,1629,o),
(140,1554,o),
(140,1300,cs)
);
}
);
width = 677;
}
);
leftKerningGroup = at;
unicode = 40;
},
{
glyphname = parenright;
layers = (
{
hints = (
{
horizontal = 1;
place = (-390,207);
type = Stem;
},
{
horizontal = 1;
place = (1422,208);
type = Stem;
},
{
place = (329,208);
type = Stem;
}
);
layerId = "AE110022-8FF3-4FF8-83D9-A7F227575217";
shapes = (
{
closed = 1;
nodes = (
(40,-390,l),
(427,-390,o),
(537,-318,o),
(537,-63,cs),
(537,1303,ls),
(537,1557,o),
(426,1630,o),
(40,1630,c),
(40,1422,l),
(275,1422,o),
(329,1400,o),
(329,1303,cs),
(329,-63,ls),
(329,-160,o),
(274,-183,o),
(40,-183,c)
);
}
);
width = 677;
}
);
leftKerningGroup = at;
unicode = 41;
},
{
glyphname = asterisk;
layers = (
{
hints = (
{
horizontal = 1;
place = (213,658);
type = Stem;
},
{
place = (366,147);
type = Stem;
}
);
layerId = "AE110022-8FF3-4FF8-83D9-A7F227575217";
shapes = (
{
closed = 1;
nodes = (
(120,644,l),
(294,544,l),
(121,442,l),
(193,314,l),
(366,415,l),
(366,213,l),
(513,213,l),
(513,416,l),
(688,316,l),
(761,441,l),
(586,542,l),
(759,643,l),
(690,770,l),
(513,670,l),
(513,871,l),
(366,871,l),
(366,670,l),
(193,769,l)
);
}
);
width = 881;
}
);
leftKerningGroup = at;
unicode = 42;
},
{
glyphname = plus;
layers = (
{
hints = (
{
horizontal = 1;
place = (466,176);
type = Stem;
},
{
place = (549,176);
type = Stem;
}
);
layerId = "AE110022-8FF3-4FF8-83D9-A7F227575217";
shapes = (
{
closed = 1;
nodes = (
(140,466,l),
(549,466,l),
(549,68,l),
(725,68,l),
(725,466,l),
(1134,466,l),
(1134,642,l),
(725,642,l),
(725,1041,l),
(549,1041,l),
(549,642,l),
(140,642,l)
);
}
);
width = 1274;
}
);
leftKerningGroup = at;
unicode = 43;
},
{
glyphname = comma;
layers = (
{
hints = (
{
horizontal = 1;
place = (-150,370);
type = Stem;
},
{
place = (40,310);
type = Stem;
}
);
layerId = "AE110022-8FF3-4FF8-83D9-A7F227575217";
shapes = (
{
closed = 1;
nodes = (
(40,-150,l),
(200,-150,l),
(350,220,l),
(150,220,l)
);
}
);
width = 470;
}
);
leftKerningGroup = at;
unicode = 44;
},
{
glyphname = hyphen;
layers = (
{
hints = (
{
horizontal = 1;
place = (466,176);
type = Stem;
},
{
place = (120,627);
type = Stem;
}
);
layerId = "AE110022-8FF3-4FF8-83D9-A7F227575217";
shapes = (
{
closed = 1;
nodes = (
(120,466,l),
(747,466,l),
(747,642,l),
(120,642,l)
);
}
);
width = 867;
}
);
leftKerningGroup = at;
unicode = 45;
},
{
glyphname = period;
layers = (
{
hints = (
{
horizontal = 1;
place = (-10,260);
type = Stem;
},
{
place = (115,260);
type = Stem;
}
);
layerId = "AE110022-8FF3-4FF8-83D9-A7F227575217";
shapes = (
{
closed = 1;
nodes = (
(115,48,o),
(173,-10,o),
(245,-10,cs),
(318,-10,o),
(375,47,o),
(375,120,cs),
(375,193,o),
(318,250,o),
(245,250,cs),
(173,250,o),
(115,192,o),
(115,120,cs)
);
}
);
width = 490;
}
);
leftKerningGroup = at;
unicode = 46;
},
{
glyphname = slash;
layers = (
{
hints = (
{
horizontal = 1;
place = (-42,1582);
type = Stem;
},
{
place = (20,1351);
type = Stem;
}
);
layerId = "AE110022-8FF3-4FF8-83D9-A7F227575217";
shapes = (
{
closed = 1;
nodes = (
(20,-42,l),
(260,-42,l),
(1371,1540,l),
(1131,1540,l)
);
}
);
width = 1391;
}
);
leftKerningGroup = at;
unicode = 47;
},
{
glyphname = zero;
layers = (
{
hints = (
{
horizontal = 1;
place = (0,211);
type = Stem;
},
{
horizontal = 1;
place = (1212,210);
type = Stem;
},
{
place = (120,211);
type = Stem;
},
{
place = (1013,210);
type = Stem;
}
);
layerId = "AE110022-8FF3-4FF8-83D9-A7F227575217";
shapes = (
{
closed = 1;
nodes = (
(120,398,ls),
(120,178,o),
(310,0,o),
(544,0,cs),
(801,0,ls),
(1034,0,o),
(1223,178,o),
(1223,398,cs),
(1223,1022,ls),
(1223,1243,o),
(1033,1422,o),
(799,1422,cs),
(523,1422,ls),
(301,1422,o),
(120,1243,o),
(120,1022,cs)
);
},
{
closed = 1;
nodes = (
(331,1022,ls),
(331,1127,o),
(417,1212,o),
(523,1212,cs),
(799,1212,ls),
(917,1212,o),
(1013,1127,o),
(1013,1022,cs),
(1013,398,ls),
(1013,295,o),
(918,211,o),
(801,211,cs),
(544,211,ls),
(426,211,o),
(331,295,o),
(331,398,cs)
);
}
);
width = 1343;
}
);
leftKerningGroup = C2;
rightKerningGroup = D;
unicode = 48;
},
{
glyphname = one;
layers = (
{
hints = (
{
horizontal = 1;
place = (0,21);
target = up;
type = BottomGhost;
},
{
horizontal = 1;
place = (1212,210);
type = Stem;
},
{
place = (317,210);
type = Stem;
}
);
layerId = "AE110022-8FF3-4FF8-83D9-A7F227575217";
shapes = (
{
closed = 1;
nodes = (
(70,1212,l),
(317,1212,l),
(317,0,l),
(527,0,l),
(527,1422,l),
(70,1422,l)
);
}
);
width = 667;
}
);
leftKerningGroup = S;
rightKerningGroup = H;
unicode = 49;
},
{
glyphname = two;
layers = (
{
hints = (
{
horizontal = 1;
place = (0,210);
type = Stem;
},
{
horizontal = 1;
place = (1212,210);
type = Stem;
},
{
place = (120,210);
type = Stem;
},
{
place = (1010,211);
type = Stem;
}
);
layerId = "AE110022-8FF3-4FF8-83D9-A7F227575217";
shapes = (
{
closed = 1;
nodes = (
(120,0,l),
(1220,0,l),
(1220,210,l),
(330,210,l),
(330,481,ls),
(330,507,o),
(341,516,o),
(380,524,cs),
(975,637,l),
(1117,665,o),
(1221,808,o),
(1221,976,cs),
(1221,1078,ls),
(1221,1268,o),
(1064,1422,o),
(871,1422,cs),
(191,1422,l),
(191,1212,l),
(871,1212,ls),
(948,1212,o),
(1010,1149,o),
(1010,1072,cs),
(1010,980,ls),
(1010,908,o),
(962,846,o),
(897,834,cs),
(367,732,ls),
(181,697,o),
(120,634,o),
(120,480,cs)
);
}
);
width = 1341;
}
);
leftKerningGroup = S;
unicode = 50;
},
{
glyphname = three;
layers = (
{
hints = (
{
horizontal = 1;
place = (0,211);
type = Stem;
},
{
horizontal = 1;
place = (639,210);
type = Stem;
},
{
horizontal = 1;
place = (1212,210);
type = Stem;
},
{
place = (976,211);
type = Stem;
},
{
place = (1004,210);
type = Stem;
}
);
layerId = "AE110022-8FF3-4FF8-83D9-A7F227575217";
shapes = (
{
closed = 1;
nodes = (
(120,0,l),
(865,0,ls),
(1057,0,o),
(1214,155,o),
(1214,346,cs),
(1214,480,ls),
(1214,610,o),
(1170,693,o),
(1067,755,c),
(1146,813,o),
(1187,898,o),
(1187,1001,cs),
(1187,1072,ls),
(1187,1266,o),
(1031,1422,o),
(837,1422,cs),
(120,1422,l),
(120,1212,l),
(837,1212,ls),
(914,1212,o),
(976,1149,o),
(976,1072,cs),
(976,1005,ls),
(976,919,o),
(905,849,o),
(817,849,cs),
(493,849,l),
(493,639,l),
(817,639,ls),
(919,639,o),
(1004,568,o),
(1004,482,cs),
(1004,348,ls),
(1004,273,o),
(942,211,o),
(865,211,cs),
(120,211,l)
);
}
);
width = 1334;
}
);
leftKerningGroup = S;
rightKerningGroup = B;
unicode = 51;
},
{
glyphname = four;
layers = (
{
hints = (
{
horizontal = 1;
place = (0,21);
target = up;
type = BottomGhost;
},
{
horizontal = 1;
place = (585,210);
type = Stem;
},
{
horizontal = 1;
place = (1422,-20);
target = down;
type = TopGhost;
},
{
place = (120,211);
type = Stem;
},
{
place = (960,210);
type = Stem;
}
);
layerId = "AE110022-8FF3-4FF8-83D9-A7F227575217";
shapes = (
{
closed = 1;
nodes = (
(120,932,ls),
(120,740,o),
(277,585,o),
(470,585,cs),
(960,585,l),
(960,0,l),
(1170,0,l),
(1170,1422,l),
(960,1422,l),
(960,795,l),
(470,795,ls),
(393,795,o),
(331,857,o),
(331,934,cs),
(331,1422,l),
(120,1422,l)
);
}
);
width = 1310;
}
);
leftKerningGroup = S;
unicode = 52;
},
{
glyphname = five;
layers = (
{
hints = (
{
horizontal = 1;
place = (0,211);
type = Stem;
},
{
horizontal = 1;
place = (697,205);
type = Stem;
},
{
horizontal = 1;
place = (1212,210);
type = Stem;
},
{
place = (128,210);
type = Stem;
},
{
place = (998,210);
type = Stem;
}
);
layerId = "AE110022-8FF3-4FF8-83D9-A7F227575217";
shapes = (
{
closed = 1;
nodes = (
(120,368,l),
(120,156,o),
(269,0,o),
(470,0,cs),
(858,0,ls),
(1051,0,o),
(1208,155,o),
(1208,346,cs),
(1208,540,ls),
(1208,740,o),
(1052,902,o),
(860,902,cs),
(338,902,l),
(338,1212,l),
(1156,1212,l),
(1156,1422,l),
(128,1422,l),
(128,697,l),
(859,697,ls),
(936,697,o),
(998,628,o),
(998,543,cs),
(998,348,ls),
(998,272,o),
(935,211,o),
(858,211,cs),
(470,211,ls),
(386,211,o),
(331,274,o),
(331,372,c)
);
}
);
width = 1328;
}
);
leftKerningGroup = S;
unicode = 53;
},
{
glyphname = six;
layers = (
{
hints = (
{
horizontal = 1;
place = (0,211);
type = Stem;
},
{
horizontal = 1;
place = (705,193);
type = Stem;
},
{
horizontal = 1;
place = (1212,210);
type = Stem;
},
{
place = (120,211);
type = Stem;
},
{
place = (990,210);
type = Stem;
}
);
layerId = "AE110022-8FF3-4FF8-83D9-A7F227575217";
shapes = (
{
closed = 1;
nodes = (
(331,705,l),
(853,705,ls),
(929,705,o),
(990,649,o),
(990,579,cs),
(990,347,ls),
(990,272,o),
(929,211,o),
(853,211,cs),
(470,211,ls),
(393,211,o),
(331,272,o),
(331,347,cs)
);
},
{
closed = 1;
nodes = (
(120,347,ls),
(120,155,o),
(277,0,o),
(470,0,cs),
(853,0,ls),
(1045,0,o),
(1200,155,o),
(1200,347,cs),
(1200,579,ls),
(1200,755,o),
(1045,898,o),
(853,898,cs),
(331,898,l),
(331,1072,ls),
(331,1149,o),
(393,1212,o),
(470,1212,cs),
(1133,1212,l),
(1133,1422,l),
(470,1422,ls),
(276,1422,o),
(120,1266,o),
(120,1072,cs)
);
}
);
width = 1320;
}
);
leftKerningGroup = C2;
rightKerningGroup = G;
unicode = 54;
},
{
glyphname = seven;
layers = (
{
hints = (
{
horizontal = 1;
place = (0,21);
target = up;
type = BottomGhost;
},
{
horizontal = 1;
place = (1212,210);
type = Stem;
}
);
layerId = "AE110022-8FF3-4FF8-83D9-A7F227575217";
shapes = (
{
closed = 1;
nodes = (
(120,1212,l),
(924,1212,l),
(189,0,l),
(432,0,l),
(1201,1270,l),
(1201,1422,l),
(120,1422,l)
);
}
);
width = 1321;
}
);
unicode = 55;
},
{
glyphname = eight;
layers = (
{
hints = (
{
horizontal = 1;
place = (0,211);
type = Stem;
},
{
horizontal = 1;
place = (639,210);
type = Stem;
},
{
horizontal = 1;
place = (1211,211);
type = Stem;
},
{
place = (115,211);
type = Stem;
},
{
place = (142,211);
type = Stem;
},
{
place = (959,210);
type = Stem;
},
{
place = (986,210);
type = Stem;
}
);
layerId = "AE110022-8FF3-4FF8-83D9-A7F227575217";
shapes = (
{
closed = 1;
nodes = (
(326,485,ls),
(326,570,o),
(388,639,o),
(465,639,cs),
(850,639,ls),
(925,639,o),
(986,577,o),
(986,500,cs),
(986,363,ls),
(986,279,o),
(918,211,o),
(835,211,cs),
(482,211,ls),
(396,211,o),
(326,280,o),
(326,364,cs)
);
},
{
closed = 1;
nodes = (
(353,1072,ls),
(353,1149,o),
(416,1211,o),
(493,1211,cs),
(805,1211,ls),
(890,1211,o),
(959,1149,o),
(959,1072,cs),
(959,984,ls),
(959,905,o),
(895,849,o),
(805,849,cs),
(507,849,ls),
(417,849,o),
(353,905,o),
(353,984,cs)
);
},
{
closed = 1;
nodes = (
(115,366,ls),
(115,164,o),
(272,0,o),
(465,0,cs),
(847,0,ls),
(1040,0,o),
(1196,164,o),
(1196,366,cs),
(1196,500,ls),
(1196,605,o),
(1136,701,o),
(1038,754,c),
(1122,801,o),
(1169,883,o),
(1169,984,cs),
(1169,1072,ls),
(1169,1265,o),
(1012,1422,o),
(819,1422,cs),
(493,1422,ls),
(299,1422,o),
(142,1265,o),
(142,1072,cs),
(142,984,ls),
(142,883,o),
(189,802,o),
(274,754,c),
(176,701,o),
(115,604,o),
(115,500,cs)
);
}
);
width = 1311;
}
);
leftKerningGroup = S;
rightKerningGroup = B;
unicode = 56;
},
{
glyphname = nine;
layers = (
{
hints = (
{
horizontal = 1;
place = (0,211);
type = Stem;
},
{
horizontal = 1;
place = (525,193);
type = Stem;
},
{
horizontal = 1;
place = (1212,210);
type = Stem;
},
{
place = (120,211);
type = Stem;
},
{
place = (990,210);
type = Stem;
}
);
layerId = "AE110022-8FF3-4FF8-83D9-A7F227575217";
shapes = (
{
closed = 1;
nodes = (
(331,1075,ls),
(331,1151,o),
(392,1212,o),
(468,1212,cs),
(851,1212,ls),
(927,1212,o),
(990,1149,o),
(990,1075,cs),
(990,718,l),
(468,718,ls),
(392,718,o),
(331,775,o),
(331,846,cs)
);
},
{
closed = 1;
nodes = (
(120,844,ls),
(120,668,o),
(276,525,o),
(468,525,cs),
(990,525,l),
(990,350,ls),
(990,273,o),
(928,211,o),
(851,211,cs),
(188,211,l),
(188,0,l),
(851,0,ls),
(1044,0,o),
(1200,157,o),
(1200,350,cs),
(1200,1075,ls),
(1200,1267,o),
(1044,1422,o),
(851,1422,cs),
(468,1422,ls),
(276,1422,o),
(120,1267,o),
(120,1075,cs)
);
}
);
width = 1320;
}
);
leftKerningGroup = S;
rightKerningGroup = D;
unicode = 57;
},
{
glyphname = colon;
layers = (
{
hints = (
{
horizontal = 1;
place = (-10,260);
type = Stem;
},
{
horizontal = 1;
place = (753,260);
type = Stem;
},
{
place = (120,260);
type = Stem;
}
);
layerId = "AE110022-8FF3-4FF8-83D9-A7F227575217";
shapes = (
{
closed = 1;
nodes = (
(120,48,o),
(178,-10,o),
(250,-10,cs),
(323,-10,o),
(380,47,o),
(380,120,cs),
(380,193,o),
(323,250,o),
(250,250,cs),
(178,250,o),
(120,192,o),
(120,120,cs)
);
},
{
closed = 1;
nodes = (
(120,810,o),
(177,753,o),
(250,753,cs),
(323,753,o),
(380,810,o),
(380,883,cs),
(380,956,o),
(323,1013,o),
(250,1013,cs),
(178,1013,o),
(120,955,o),
(120,883,cs)
);
}
);
width = 500;
}
);
leftKerningGroup = at;
unicode = 58;
},
{
glyphname = semicolon;
layers = (
{
hints = (
{
horizontal = 1;
place = (753,260);
type = Stem;
},
{
place = (120,260);
type = Stem;
}
);
layerId = "AE110022-8FF3-4FF8-83D9-A7F227575217";
shapes = (
{
closed = 1;
nodes = (
(40,-150,l),
(200,-150,l),
(350,220,l),
(150,220,l)
);
},
{
closed = 1;
nodes = (
(120,810,o),
(177,753,o),
(250,753,cs),
(323,753,o),
(380,810,o),
(380,883,cs),
(380,956,o),
(323,1013,o),
(250,1013,cs),
(178,1013,o),
(120,955,o),
(120,883,cs)
);
}
);
width = 500;
}
);
leftKerningGroup = at;
unicode = 59;
},
{
glyphname = less;
layers = (
{
hints = (
{
horizontal = 1;
place = (108,890);
type = Stem;
},
{
place = (110,1010);
type = Stem;
}
);
layerId = "AE110022-8FF3-4FF8-83D9-A7F227575217";
shapes = (
{
closed = 1;
nodes = (
(110,475,l),
(1120,108,l),
(1120,317,l),
(471,553,l),
(1120,790,l),
(1120,998,l),
(110,631,l)
);
}
);
width = 1230;
}
);
leftKerningGroup = at;
unicode = 60;
},
{
glyphname = equal;
layers = (
{
hints = (
{
horizontal = 1;
place = (290,176);
type = Stem;
},
{
horizontal = 1;
place = (642,175);
type = Stem;
}
);
layerId = "AE110022-8FF3-4FF8-83D9-A7F227575217";
shapes = (
{
closed = 1;
nodes = (
(110,290,l),
(1124,290,l),
(1124,466,l),
(110,466,l)
);
},
{
closed = 1;
nodes = (
(110,642,l),
(1124,642,l),
(1124,817,l),
(110,817,l)
);
}
);
width = 1233;
}
);
leftKerningGroup = at;
unicode = 61;
},
{
glyphname = greater;
layers = (
{
hints = (
{
horizontal = 1;
place = (108,890);
type = Stem;
},
{
place = (110,1010);
type = Stem;
}
);
layerId = "AE110022-8FF3-4FF8-83D9-A7F227575217";
shapes = (
{
closed = 1;
nodes = (
(110,108,l),
(1120,475,l),
(1120,631,l),
(110,998,l),
(110,790,l),
(759,553,l),
(110,317,l)
);
}
);
width = 1230;
}
);
leftKerningGroup = at;
unicode = 62;
},
{
glyphname = question;
layers = (
{
hints = (
{
horizontal = 1;
place = (-10,238);
type = Stem;
},
{
horizontal = 1;
place = (1212,210);
type = Stem;
},
{
place = (308,238);
type = Stem;
},
{
place = (818,211);
type = Stem;
}
);
layerId = "AE110022-8FF3-4FF8-83D9-A7F227575217";
shapes = (
{
closed = 1;
nodes = (
(90,1212,l),
(709,1212,ls),
(769,1212,o),
(818,1163,o),
(818,1103,cs),
(818,967,ls),
(818,884,o),
(776,839,o),
(663,799,cs),
(412,710,o),
(322,625,o),
(322,478,cs),
(322,307,l),
(533,307,l),
(533,478,ls),
(533,517,o),
(571,542,o),
(703,591,c),
(945,678,o),
(1029,773,o),
(1029,961,cs),
(1029,1103,ls),
(1029,1283,o),
(889,1422,o),
(709,1422,cs),
(90,1422,l)
);
},
{
closed = 1;
nodes = (
(308,43,o),
(361,-10,o),
(427,-10,cs),
(493,-10,o),
(546,43,o),
(546,109,cs),
(546,175,o),
(493,228,o),
(427,228,cs),
(361,228,o),
(308,175,o),
(308,109,cs)
);
}
);
width = 1149;
}
);
leftKerningGroup = at;
rightKerningGroup = question;
unicode = 63;
},
{
glyphname = at;
layers = (
{
hints = (
{
horizontal = 1;
place = (0,171);
type = Stem;
},
{
horizontal = 1;
place = (337,171);
type = Stem;
},
{
horizontal = 1;
place = (914,172);
type = Stem;
},
{
horizontal = 1;
place = (1251,171);
type = Stem;
},
{
place = (140,171);
type = Stem;
},
{
place = (441,171);
type = Stem;
},
{
place = (960,170);
type = Stem;
},
{
place = (1267,170);
type = Stem;
}
);
layerId = "AE110022-8FF3-4FF8-83D9-A7F227575217";
shapes = (
{
closed = 1;
nodes = (
(140,394,ls),
(140,165,o),
(287,0,o),
(490,0,cs),
(840,0,l),
(840,171,l),
(495,171,ls),
(387,171,o),
(311,264,o),
(311,394,cs),
(311,1026,ls),
(311,1145,o),
(417,1251,o),
(536,1251,cs),
(1045,1251,ls),
(1161,1251,o),
(1267,1150,o),
(1267,1039,cs),
(1267,733,ls),
(1267,653,o),
(1211,572,o),
(1130,537,c),
(1130,1086,l),
(733,1086,ls),
(568,1086,o),
(441,967,o),
(441,814,cs),
(441,611,ls),
(441,454,o),
(567,337,o),
(737,337,cs),
(840,337,l),
(840,508,l),
(733,508,ls),
(662,508,o),
(612,550,o),
(612,611,cs),
(612,794,ls),
(612,868,o),
(659,914,o),
(737,914,cs),
(960,914,l),
(960,337,l),
(1247,337,o),
(1437,494,o),
(1437,730,cs),
(1437,1042,ls),
(1437,1251,o),
(1260,1422,o),
(1043,1422,cs),
(534,1422,ls),
(317,1422,o),
(140,1246,o),
(140,1029,cs)
);
}
);
width = 1577;
}
);
leftKerningGroup = at;
unicode = 64;
},
{
glyphname = A;
layers = (
{
hints = (
{
horizontal = 1;
place = (0,21);
target = up;
type = BottomGhost;
},
{
horizontal = 1;
place = (428,210);
type = Stem;
},
{
horizontal = 1;
place = (1422,-20);
target = down;
type = TopGhost;
}
);
layerId = "AE110022-8FF3-4FF8-83D9-A7F227575217";
shapes = (
{
closed = 1;
nodes = (
(40,0,l),
(265,0,l),
(681,1146,l),
(865,638,l),
(620,638,l),
(544,428,l),
(941,428,l),
(1096,0,l),
(1321,0,l),
(812,1422,l),
(549,1422,l)
);
}
);
width = 1361;
}
);
leftKerningGroup = A2;
rightKerningGroup = A;
unicode = 65;
},
{
glyphname = B;
layers = (
{
hints = (
{
horizontal = 1;
place = (0,211);
type = Stem;
},
{
horizontal = 1;
place = (639,210);
type = Stem;
},
{
horizontal = 1;
place = (1212,210);
type = Stem;
},
{
place = (140,211);
type = Stem;
},
{
place = (1033,210);
type = Stem;
},
{
place = (1088,210);
type = Stem;
}
);
layerId = "AE110022-8FF3-4FF8-83D9-A7F227575217";
shapes = (
{
closed = 1;
nodes = (
(351,1212,l),
(889,1212,ls),
(968,1212,o),
(1033,1149,o),
(1033,1072,cs),
(1033,981,ls),
(1033,908,o),
(968,849,o),
(889,849,cs),
(471,849,l),
(471,639,l),
(947,639,ls),
(1025,639,o),
(1088,578,o),
(1088,503,cs),
(1088,346,ls),
(1088,271,o),
(1025,211,o),
(948,211,cs),
(351,211,l)
);
},
{
closed = 1;
nodes = (
(946,0,ls),
(1140,0,o),
(1298,154,o),
(1298,343,cs),
(1298,500,ls),
(1298,627,o),
(1258,707,o),
(1163,768,c),
(1213,813,o),
(1243,892,o),
(1243,979,cs),
(1243,1072,ls),
(1243,1267,o),
(1086,1422,o),
(889,1422,cs),
(140,1422,l),
(140,0,l)
);
}
);
width = 1408;
}
);
leftKerningGroup = B2;
rightKerningGroup = B;
unicode = 66;
},
{
glyphname = C;
layers = (
{
hints = (
{
horizontal = 1;
place = (0,211);
type = Stem;
},
{
horizontal = 1;
place = (1212,210);
type = Stem;
},
{
place = (120,211);
type = Stem;
}
);
layerId = "AE110022-8FF3-4FF8-83D9-A7F227575217";
shapes = (
{
closed = 1;
nodes = (
(120,393,ls),
(120,176,o),
(302,0,o),
(526,0,cs),
(1271,0,l),
(1271,211,l),
(526,211,ls),
(418,211,o),
(331,294,o),
(331,396,cs),
(331,1022,ls),
(331,1127,o),
(418,1212,o),
(526,1212,cs),
(1271,1212,l),
(1271,1422,l),
(526,1422,ls),
(302,1422,o),
(120,1243,o),
(120,1022,cs)
);
}
);
width = 1381;
}
);
leftKerningGroup = C2;
rightKerningGroup = C;
unicode = 67;
},
{
glyphname = D;
layers = (
{
hints = (
{
horizontal = 1;
place = (0,211);
type = Stem;
},
{
horizontal = 1;
place = (1212,210);
type = Stem;
},
{
place = (140,211);
type = Stem;
},
{
place = (1088,210);
type = Stem;
}
);
layerId = "AE110022-8FF3-4FF8-83D9-A7F227575217";
shapes = (
{
closed = 1;
nodes = (
(140,0,l),
(896,0,ls),
(1118,0,o),
(1298,177,o),
(1298,396,cs),
(1298,1022,ls),
(1298,1243,o),
(1118,1422,o),
(896,1422,cs),
(140,1422,l)
);
},
{
closed = 1;
nodes = (
(351,211,l),
(351,1212,l),
(896,1212,ls),
(1002,1212,o),
(1088,1127,o),
(1088,1022,cs),
(1088,399,ls),
(1088,295,o),
(1002,211,o),
(896,211,cs)
);
}
);
width = 1418;
}
);
leftKerningGroup = B2;
rightKerningGroup = D;
unicode = 68;
},
{
glyphname = E;
layers = (
{
hints = (
{
horizontal = 1;
place = (0,211);
type = Stem;
},
{
horizontal = 1;
place = (635,210);
type = Stem;
},
{
horizontal = 1;
place = (1212,210);
type = Stem;
},
{
place = (140,211);
type = Stem;
}
);
layerId = "AE110022-8FF3-4FF8-83D9-A7F227575217";
shapes = (
{
closed = 1;
nodes = (
(140,0,l),
(1243,0,l),
(1243,211,l),
(351,211,l),
(351,1212,l),
(1243,1212,l),
(1243,1422,l),
(140,1422,l)
);
},
{
closed = 1;
nodes = (
(471,635,l),
(1243,635,l),
(1243,845,l),
(471,845,l)
);
}
);
width = 1363;
}
);
leftKerningGroup = B2;
unicode = 69;
},
{
glyphname = F;
layers = (
{
hints = (
{
horizontal = 1;
place = (0,21);
target = up;
type = BottomGhost;
},
{
horizontal = 1;
place = (635,210);
type = Stem;
},
{
horizontal = 1;
place = (1212,210);
type = Stem;
},
{
place = (140,211);
type = Stem;
}
);
layerId = "AE110022-8FF3-4FF8-83D9-A7F227575217";
shapes = (
{
closed = 1;
nodes = (
(140,0,l),
(351,0,l),
(351,1212,l),
(1092,1212,l),
(1092,1422,l),
(140,1422,l)
);
},
{
closed = 1;
nodes = (
(471,635,l),
(1092,635,l),
(1092,845,l),
(471,845,l)
);
}
);
width = 1212;
}
);
leftKerningGroup = B2;
unicode = 70;
},
{
glyphname = G;
layers = (
{
hints = (
{
horizontal = 1;
place = (0,210);
type = Stem;
},
{
horizontal = 1;
place = (585,210);
type = Stem;
},
{
horizontal = 1;
place = (1212,210);
type = Stem;
},
{
place = (120,211);
type = Stem;
},
{
place = (1090,211);
type = Stem;
}
);
layerId = "AE110022-8FF3-4FF8-83D9-A7F227575217";
shapes = (
{
closed = 1;
nodes = (
(120,400,ls),
(120,179,o),
(310,0,o),
(544,0,cs),
(877,0,ls),
(1111,0,o),
(1301,179,o),
(1301,400,cs),
(1301,795,l),
(704,795,l),
(704,585,l),
(1090,585,l),
(1090,399,ls),
(1090,295,o),
(995,210,o),
(877,210,cs),
(544,210,ls),
(426,210,o),
(331,295,o),
(331,399,cs),
(331,1023,ls),
(331,1127,o),
(426,1212,o),
(544,1212,cs),
(1217,1212,l),
(1217,1422,l),
(544,1422,ls),
(310,1422,o),
(120,1243,o),
(120,1022,cs)
);
}
);
width = 1421;
}
);
leftKerningGroup = C2;
rightKerningGroup = G;
unicode = 71;
},
{
glyphname = H;
layers = (
{
hints = (
{
horizontal = 1;
place = (0,21);
target = up;
type = BottomGhost;
},
{
horizontal = 1;
place = (635,210);
type = Stem;
},
{
horizontal = 1;
place = (1422,-20);
target = down;
type = TopGhost;
},
{
place = (140,211);
type = Stem;
},
{
place = (1088,210);
type = Stem;
}
);
layerId = "AE110022-8FF3-4FF8-83D9-A7F227575217";
shapes = (
{
closed = 1;
nodes = (
(140,0,l),
(351,0,l),
(351,635,l),
(1088,635,l),
(1088,0,l),
(1298,0,l),
(1298,1422,l),
(1088,1422,l),
(1088,845,l),
(351,845,l),
(351,1422,l),
(140,1422,l)
);
}
);
width = 1438;
}
);
leftKerningGroup = B2;
rightKerningGroup = H;
unicode = 72;
},
{
glyphname = I;
layers = (
{
hints = (
{
horizontal = 1;
place = (0,21);
target = up;
type = BottomGhost;
},
{
horizontal = 1;
place = (1422,-20);
target = down;
type = TopGhost;
},
{
place = (140,211);
type = Stem;
}
);
layerId = "AE110022-8FF3-4FF8-83D9-A7F227575217";
shapes = (
{
closed = 1;
nodes = (
(140,0,l),
(351,0,l),
(351,1422,l),
(140,1422,l)
);
}
);
width = 491;
}
);
leftKerningGroup = B2;
rightKerningGroup = H;
unicode = 73;
},
{
glyphname = J;
layers = (
{
hints = (
{
horizontal = 1;
place = (0,210);
type = Stem;
},
{
horizontal = 1;
place = (1422,-20);
target = down;
type = TopGhost;
},
{
place = (485,210);
type = Stem;
}
);
layerId = "AE110022-8FF3-4FF8-83D9-A7F227575217";
shapes = (
{
closed = 1;
nodes = (
(40,0,l),
(294,0,ls),
(515,0,o),
(695,177,o),
(695,395,cs),
(695,1422,l),
(485,1422,l),
(485,398,ls),
(485,294,o),
(399,210,o),
(294,210,cs),
(40,210,l)
);
}
);
width = 835;
}
);
leftKerningGroup = J2;
rightKerningGroup = J;
unicode = 74;
},
{
glyphname = K;
layers = (
{
hints = (
{
horizontal = 1;
place = (0,21);
target = up;
type = BottomGhost;
},
{
horizontal = 1;
place = (1422,-20);
target = down;
type = TopGhost;
},
{
place = (140,211);
type = Stem;
}
);
layerId = "AE110022-8FF3-4FF8-83D9-A7F227575217";
shapes = (
{
closed = 1;
nodes = (
(140,0,l),
(351,0,l),
(351,635,l),
(413,635,l),
(1059,0,l),
(1354,0,l),
(623,719,l),
(1311,1422,l),
(1020,1422,l),
(456,846,l),
(351,846,l),
(351,1422,l),
(140,1422,l)
);
}
);
width = 1394;
}
);
leftKerningGroup = B2;
unicode = 75;
},
{
glyphname = L;
layers = (
{
hints = (
{
horizontal = 1;
place = (0,210);
type = Stem;
},
{
horizontal = 1;
place = (1422,-20);
target = down;
type = TopGhost;
},
{
place = (140,210);
type = Stem;
}
);
layerId = "AE110022-8FF3-4FF8-83D9-A7F227575217";
shapes = (
{
closed = 1;
nodes = (
(140,398,ls),
(140,178,o),
(318,0,o),
(537,0,cs),
(1242,0,l),
(1242,210,l),
(537,210,ls),
(434,210,o),
(350,294,o),
(350,398,cs),
(350,1422,l),
(140,1422,l)
);
}
);
width = 1282;
}
);
leftKerningGroup = B2;
rightKerningGroup = L;
unicode = 76;
},
{
glyphname = M;
layers = (
{
hints = (
{
horizontal = 1;
place = (0,21);
target = up;
type = BottomGhost;
},
{
horizontal = 1;
place = (1422,-20);
target = down;
type = TopGhost;
},
{
place = (140,211);
type = Stem;
},
{
place = (1233,211);
type = Stem;
}
);
layerId = "AE110022-8FF3-4FF8-83D9-A7F227575217";
shapes = (
{
closed = 1;
nodes = (
(140,0,l),
(351,0,l),
(351,1063,l),
(705,635,l),
(880,635,l),
(1233,1063,l),
(1233,0,l),
(1444,0,l),
(1444,1422,l),
(1251,1422,l),
(792,861,l),
(333,1422,l),
(140,1422,l)
);
}
);
width = 1584;
}
);
leftKerningGroup = B2;
rightKerningGroup = H;
unicode = 77;
},
{
glyphname = N;
layers = (
{
hints = (
{
horizontal = 1;
place = (0,21);
target = up;
type = BottomGhost;
},
{
horizontal = 1;
place = (1422,-20);
target = down;
type = TopGhost;
},
{
place = (140,211);
type = Stem;
},
{
place = (1033,211);
type = Stem;
}
);
layerId = "AE110022-8FF3-4FF8-83D9-A7F227575217";
shapes = (
{
closed = 1;
nodes = (
(140,0,l),
(351,0,l),
(351,1102,l),
(970,0,l),
(1244,0,l),
(1244,1422,l),
(1033,1422,l),
(1033,305,l),
(414,1422,l),
(140,1422,l)
);
}
);
width = 1384;
}
);
leftKerningGroup = B2;
rightKerningGroup = H;
unicode = 78;
},
{
glyphname = O;
layers = (
{
hints = (
{
horizontal = 1;
place = (0,210);
type = Stem;
},
{
horizontal = 1;
place = (1212,210);
type = Stem;
},
{
place = (140,211);
type = Stem;
},
{
place = (1110,211);
type = Stem;
}
);
layerId = "AE110022-8FF3-4FF8-83D9-A7F227575217";
shapes = (
{
closed = 1;
nodes = (
(140,400,ls),
(140,179,o),
(330,0,o),
(564,0,cs),
(897,0,ls),
(1131,0,o),
(1321,179,o),
(1321,400,cs),
(1321,1022,ls),
(1321,1243,o),
(1131,1422,o),
(897,1422,cs),
(564,1422,ls),
(330,1422,o),
(140,1243,o),
(140,1022,cs)
);
},
{
closed = 1;
nodes = (
(351,1023,ls),
(351,1127,o),
(446,1212,o),
(564,1212,cs),
(897,1212,ls),
(1015,1212,o),
(1110,1127,o),
(1110,1023,cs),
(1110,399,ls),
(1110,295,o),
(1015,210,o),
(897,210,cs),
(564,210,ls),
(446,210,o),
(351,295,o),
(351,399,cs)
);
}
);
width = 1461;
}
);
leftKerningGroup = C2;
rightKerningGroup = D;
unicode = 79;
},
{
glyphname = P;
layers = (
{
hints = (
{
horizontal = 1;
place = (0,21);
target = up;
type = BottomGhost;
},
{
horizontal = 1;
place = (585,210);
type = Stem;
},
{
horizontal = 1;
place = (1212,210);
type = Stem;
},
{
place = (140,211);
type = Stem;
},
{
place = (1033,210);
type = Stem;
}
);
layerId = "AE110022-8FF3-4FF8-83D9-A7F227575217";
shapes = (
{
closed = 1;
nodes = (
(140,0,l),
(351,0,l),
(351,1212,l),
(892,1212,ls),
(970,1212,o),
(1033,1149,o),
(1033,1072,cs),
(1033,933,ls),
(1033,856,o),
(970,795,o),
(892,795,cs),
(471,795,l),
(471,585,l),
(892,585,ls),
(1086,585,o),
(1243,739,o),
(1243,930,cs),
(1243,1072,ls),
(1243,1265,o),
(1086,1422,o),
(892,1422,cs),
(140,1422,l)
);
}
);
width = 1348;
}
);
leftKerningGroup = B2;
unicode = 80;
},
{
glyphname = Q;
layers = (
{
hints = (
{
horizontal = 1;
place = (0,210);
type = Stem;
},
{
horizontal = 1;
place = (1212,210);
type = Stem;
},
{
place = (140,211);
type = Stem;
},
{
place = (1110,211);
type = Stem;
}
);
layerId = "AE110022-8FF3-4FF8-83D9-A7F227575217";
shapes = (
{
closed = 1;
nodes = (
(351,1023,ls),
(351,1127,o),
(446,1212,o),
(564,1212,cs),
(897,1212,ls),
(1015,1212,o),
(1110,1127,o),
(1110,1023,cs),
(1110,399,ls),
(1110,295,o),
(1015,210,o),
(897,210,cs),
(564,210,ls),
(446,210,o),
(351,295,o),
(351,399,cs)
);
},
{
closed = 1;
nodes = (
(140,400,ls),
(140,179,o),
(330,0,o),
(564,0,cs),
(655,0,l),
(928,-273,l),
(1077,-123,l),
(951,3,l),
(1162,28,o),
(1321,198,o),
(1321,400,cs),
(1321,1022,ls),
(1321,1243,o),
(1131,1422,o),
(897,1422,cs),
(564,1422,ls),
(330,1422,o),
(140,1243,o),
(140,1022,cs)
);
}
);
width = 1461;
}
);
leftKerningGroup = C2;
rightKerningGroup = D;
unicode = 81;
},
{
glyphname = R;
layers = (
{
hints = (
{
horizontal = 1;
place = (0,21);
target = up;
type = BottomGhost;
},
{
horizontal = 1;
place = (585,210);
type = Stem;
},
{
horizontal = 1;
place = (1212,210);
type = Stem;
},
{
place = (140,211);
type = Stem;
},
{
place = (1033,210);
type = Stem;
}
);
layerId = "AE110022-8FF3-4FF8-83D9-A7F227575217";
shapes = (
{
closed = 1;
nodes = (
(140,0,l),
(351,0,l),
(351,1212,l),
(892,1212,ls),
(970,1212,o),
(1033,1149,o),
(1033,1072,cs),
(1033,933,ls),
(1033,857,o),
(970,795,o),
(892,795,cs),
(471,795,l),
(471,585,l),
(634,585,l),
(1058,0,l),
(1315,0,l),
(891,585,l),
(1089,585,o),
(1243,736,o),
(1243,930,cs),
(1243,1072,ls),
(1243,1265,o),
(1085,1422,o),
(892,1422,cs),
(140,1422,l)
);
}
);
width = 1375;
}
);
leftKerningGroup = B2;
rightKerningGroup = R;
unicode = 82;
},
{
glyphname = S;
layers = (
{
hints = (
{
horizontal = 1;
place = (0,211);
type = Stem;
},
{
horizontal = 1;
place = (635,210);
type = Stem;
},
{
horizontal = 1;
place = (1212,210);
type = Stem;
},
{
place = (120,211);
type = Stem;
},
{
place = (1068,211);
type = Stem;
}
);
layerId = "AE110022-8FF3-4FF8-83D9-A7F227575217";
shapes = (
{
closed = 1;
nodes = (
(120,973,ls),
(120,786,o),
(278,635,o),
(473,635,cs),
(926,635,ls),
(1004,635,o),
(1068,574,o),
(1068,499,cs),
(1068,346,ls),
(1068,271,o),
(1004,211,o),
(926,211,cs),
(121,211,l),
(121,0,l),
(926,0,ls),
(1121,0,o),
(1279,155,o),
(1279,345,cs),
(1279,500,ls),
(1279,690,o),
(1121,845,o),
(926,845,cs),
(473,845,ls),
(395,845,o),
(331,903,o),
(331,974,cs),
(331,1072,ls),
(331,1149,o),
(395,1212,o),
(473,1212,cs),
(1209,1212,l),
(1209,1422,l),
(473,1422,ls),
(278,1422,o),
(120,1268,o),
(120,1078,cs)
);
}
);
width = 1399;
}
);
leftKerningGroup = S;
rightKerningGroup = G;
unicode = 83;
},
{
glyphname = T;
layers = (
{
hints = (
{
horizontal = 1;
place = (0,21);
target = up;
type = BottomGhost;
},
{
horizontal = 1;
place = (1212,210);
type = Stem;
},
{
place = (513,212);
type = Stem;
}
);
layerId = "AE110022-8FF3-4FF8-83D9-A7F227575217";
shapes = (
{
closed = 1;
nodes = (
(40,1212,l),
(513,1212,l),
(513,0,l),
(725,0,l),
(725,1212,l),
(1198,1212,l),
(1198,1422,l),
(40,1422,l)
);
}
);
width = 1238;
}
);
leftKerningGroup = T2;
rightKerningGroup = T;
unicode = 84;
},
{
glyphname = U;
layers = (
{
hints = (
{
horizontal = 1;
place = (0,211);
type = Stem;
},
{
horizontal = 1;
place = (1422,-20);
target = down;
type = TopGhost;
},
{
place = (140,211);
type = Stem;
},
{
place = (1088,210);
type = Stem;
}
);
layerId = "AE110022-8FF3-4FF8-83D9-A7F227575217";
shapes = (
{
closed = 1;
nodes = (
(140,397,ls),
(140,178,o),
(321,0,o),
(545,0,cs),
(894,0,ls),
(1117,0,o),
(1298,178,o),
(1298,397,cs),
(1298,1422,l),
(1088,1422,l),
(1088,399,ls),
(1088,295,o),
(1001,211,o),
(894,211,cs),
(545,211,ls),
(438,211,o),
(351,295,o),
(351,399,cs),
(351,1422,l),
(140,1422,l)
);
}
);
width = 1438;
}
);
leftKerningGroup = S;
rightKerningGroup = J;
unicode = 85;
},
{
glyphname = V;
layers = (
{
hints = (
{
horizontal = 1;
place = (0,21);
target = up;
type = BottomGhost;
},
{
horizontal = 1;
place = (1422,-20);
target = down;
type = TopGhost;
}
);
layerId = "AE110022-8FF3-4FF8-83D9-A7F227575217";
shapes = (
{
closed = 1;
nodes = (
(40,1422,l),
(549,0,l),
(812,0,l),
(1321,1422,l),
(1096,1422,l),
(681,256,l),
(265,1422,l)
);
}
);
width = 1361;
}
);
unicode = 86;
},
{
glyphname = W;
layers = (
{
hints = (
{
horizontal = 1;
place = (0,21);
target = up;
type = BottomGhost;
},
{
horizontal = 1;
place = (1422,-20);
target = down;
type = TopGhost;
}
);
layerId = "AE110022-8FF3-4FF8-83D9-A7F227575217";
shapes = (
{
closed = 1;
nodes = (
(70,1422,l),
(317,0,l),
(508,0,l),
(823,572,l),
(1139,0,l),
(1329,0,l),
(1576,1422,l),
(1365,1422,l),
(1179,350,l),
(923,816,l),
(724,816,l),
(468,350,l),
(282,1422,l)
);
}
);
width = 1646;
}
);
leftKerningGroup = W2;
rightKerningGroup = W;
unicode = 87;
},
{
glyphname = X;
layers = (
{
hints = (
{
horizontal = 1;
place = (0,21);
target = up;
type = BottomGhost;
},
{
horizontal = 1;
place = (1422,-20);
target = down;
type = TopGhost;
}
);
layerId = "AE110022-8FF3-4FF8-83D9-A7F227575217";
shapes = (
{
closed = 1;
nodes = (
(40,0,l),
(298,0,l),
(687,540,l),
(1075,0,l),
(1332,0,l),
(818,711,l),
(1332,1422,l),
(1075,1422,l),
(687,883,l),
(298,1422,l),
(40,1422,l),
(555,711,l)
);
}
);
width = 1372;
}
);
unicode = 88;
},
{
glyphname = Y;
layers = (
{
hints = (
{
horizontal = 1;
place = (0,21);
target = up;
type = BottomGhost;
},
{
horizontal = 1;
place = (1422,-20);
target = down;
type = TopGhost;
},
{
place = (579,216);
type = Stem;
}
);
layerId = "AE110022-8FF3-4FF8-83D9-A7F227575217";
shapes = (
{
closed = 1;
nodes = (
(40,1422,l),
(579,679,l),
(579,0,l),
(795,0,l),
(795,679,l),
(1331,1422,l),
(1075,1422,l),
(687,883,l),
(297,1422,l)
);
}
);
width = 1371;
}
);
leftKerningGroup = Y2;
rightKerningGroup = Y;
unicode = 89;
},
{
glyphname = Z;
layers = (
{
hints = (
{
horizontal = 1;
place = (0,208);
type = Stem;
},
{
horizontal = 1;
place = (1212,210);
type = Stem;
}
);
layerId = "AE110022-8FF3-4FF8-83D9-A7F227575217";
shapes = (
{
closed = 1;
nodes = (
(120,0,l),
(1223,0,l),
(1223,208,l),
(422,208,l),
(1227,1265,l),
(1227,1422,l),
(120,1422,l),
(120,1212,l),
(927,1212,l),
(120,155,l)
);
}
);
width = 1347;
}
);
leftKerningGroup = S;
unicode = 90;
},
{
glyphname = bracketleft;
layers = (
{
hints = (
{
horizontal = 1;
place = (-390,207);
type = Stem;
},
{
horizontal = 1;
place = (1422,208);
type = Stem;
},
{
place = (115,208);
type = Stem;
},
{
place = (115,460);
type = Stem;
}
);
layerId = "AE110022-8FF3-4FF8-83D9-A7F227575217";
shapes = (
{
closed = 1;
nodes = (
(115,-390,l),
(575,-390,l),
(575,-183,l),
(323,-183,l),
(323,1422,l),
(575,1422,l),
(575,1630,l),
(115,1630,l)
);
}
);
width = 610;
}
);
leftKerningGroup = at;
unicode = 91;
},
{
glyphname = backslash;
layers = (
{
hints = (
{
horizontal = 1;
place = (-42,1582);
type = Stem;
},
{
place = (20,1351);
type = Stem;
}
);
layerId = "AE110022-8FF3-4FF8-83D9-A7F227575217";
shapes = (
{
closed = 1;
nodes = (
(20,1540,l),
(1131,-42,l),
(1371,-42,l),
(260,1540,l)
);
}
);
width = 1391;
}
);
leftKerningGroup = at;
unicode = 92;
},
{
glyphname = bracketright;
layers = (
{
hints = (
{
horizontal = 1;
place = (-390,207);
type = Stem;
},
{
horizontal = 1;
place = (1422,208);
type = Stem;
},
{
place = (35,460);
type = Stem;
},
{
place = (287,208);
type = Stem;
}
);
layerId = "AE110022-8FF3-4FF8-83D9-A7F227575217";
shapes = (
{
closed = 1;
nodes = (
(35,-183,l),
(35,-390,l),
(495,-390,l),
(495,1630,l),
(35,1630,l),
(35,1422,l),
(287,1422,l),
(287,-183,l)
);
}
);
width = 610;
}
);
leftKerningGroup = at;
unicode = 93;
},
{
glyphname = asciicircum;
layers = (
{
hints = (
{
horizontal = 1;
place = (1022,400);
type = Stem;
},
{
place = (100,673);
type = Stem;
}
);
layerId = "AE110022-8FF3-4FF8-83D9-A7F227575217";
shapes = (
{
closed = 1;
nodes = (
(100,1022,l),
(257,1022,l),
(436,1270,l),
(615,1022,l),
(773,1022,l),
(496,1422,l),
(377,1422,l)
);
}
);
width = 873;
}
);
leftKerningGroup = at;
unicode = 94;
},
{
glyphname = underscore;
layers = (
{
hints = (
{
horizontal = 1;
place = (-176,176);
type = Stem;
}
);
layerId = "AE110022-8FF3-4FF8-83D9-A7F227575217";
shapes = (
{
closed = 1;
nodes = (
(110,0,l),
(110,-176,l),
(1171,-176,l),
(1171,0,l)
);
}
);
width = 1281;
}
);
leftKerningGroup = at;
unicode = 95;
},
{
glyphname = grave;
layers = (
{
hints = (
{
horizontal = 1;
place = (1170,422);
type = Stem;
},
{
place = (100,312);
type = Stem;
}
);
layerId = "AE110022-8FF3-4FF8-83D9-A7F227575217";
shapes = (
{
closed = 1;
nodes = (
(100,1504,l),
(298,1170,l),
(412,1223,l),
(283,1592,l)
);
}
);
width = 512;
}
);
leftKerningGroup = at;
unicode = 96;
},
{
glyphname = a;
layers = (
{
hints = (
{
horizontal = 1;
place = (0,211);
type = Stem;
},
{
horizontal = 1;
place = (825,211);
type = Stem;
},
{
place = (110,211);
type = Stem;
},
{
place = (851,211);
type = Stem;
}
);
layerId = "AE110022-8FF3-4FF8-83D9-A7F227575217";
shapes = (
{
closed = 1;
nodes = (
(110,374,ls),
(110,168,o),
(278,0,o),
(484,0,cs),
(731,0,l),
(731,211,l),
(484,211,ls),
(394,211,o),
(321,285,o),
(321,376,cs),
(321,662,ls),
(321,752,o),
(394,825,o),
(484,825,cs),
(851,825,l),
(851,0,l),
(1062,0,l),
(1062,1036,l),
(484,1036,ls),
(278,1036,o),
(110,869,o),
(110,664,cs)
);
}
);
width = 1182;
}
);
leftKerningGroup = a2;
rightKerningGroup = a;
unicode = 97;
},
{
glyphname = b;
layers = (
{
hints = (
{
horizontal = 1;
place = (0,211);
type = Stem;
},
{
horizontal = 1;
place = (825,211);
type = Stem;
},
{
horizontal = 1;
place = (1422,-20);
target = down;
type = TopGhost;
},
{
place = (110,211);
type = Stem;
},
{
place = (851,211);
type = Stem;
}
);
layerId = "AE110022-8FF3-4FF8-83D9-A7F227575217";
shapes = (
{
closed = 1;
nodes = (
(110,211,ls),
(110,95,o),
(205,0,o),
(321,0,cs),
(688,0,ls),
(894,0,o),
(1062,167,o),
(1062,372,cs),
(1062,662,ls),
(1062,868,o),
(894,1036,o),
(688,1036,cs),
(441,1036,l),
(441,825,l),
(688,825,ls),
(778,825,o),
(851,751,o),
(851,660,cs),
(851,374,ls),
(851,284,o),
(778,211,o),
(688,211,cs),
(321,211,l),
(321,1422,l),
(110,1422,l)
);
}
);
width = 1182;
}
);
leftKerningGroup = S;
unicode = 98;
},
{
glyphname = c;
layers = (
{
hints = (
{
horizontal = 1;
place = (0,211);
type = Stem;
},
{
horizontal = 1;
place = (825,211);
type = Stem;
},
{
place = (110,211);
type = Stem;
}
);
layerId = "AE110022-8FF3-4FF8-83D9-A7F227575217";
shapes = (
{
closed = 1;
nodes = (
(110,376,ls),
(110,169,o),
(282,0,o),
(494,0,cs),
(1077,0,l),
(1077,211,l),
(494,211,ls),
(398,211,o),
(321,286,o),
(321,378,cs),
(321,659,ls),
(321,751,o),
(399,825,o),
(494,825,cs),
(1077,825,l),
(1077,1036,l),
(494,1036,ls),
(282,1036,o),
(110,868,o),
(110,662,cs)
);
}
);
width = 1187;
}
);
leftKerningGroup = c2;
rightKerningGroup = c;
unicode = 99;
},
{
glyphname = d;
layers = (
{
hints = (
{
horizontal = 1;
place = (0,211);
type = Stem;
},
{
horizontal = 1;
place = (825,211);
type = Stem;
},
{
horizontal = 1;
place = (1422,-20);
target = down;
type = TopGhost;
},
{
place = (110,211);
type = Stem;
},
{
place = (851,211);
type = Stem;
}
);
layerId = "AE110022-8FF3-4FF8-83D9-A7F227575217";
shapes = (
{
closed = 1;
nodes = (
(110,372,ls),
(110,167,o),
(278,0,o),
(484,0,cs),
(851,0,ls),
(967,0,o),
(1062,95,o),
(1062,211,cs),
(1062,1422,l),
(851,1422,l),
(851,211,l),
(484,211,ls),
(394,211,o),
(321,284,o),
(321,374,cs),
(321,660,ls),
(321,751,o),
(394,825,o),
(484,825,cs),
(731,825,l),
(731,1036,l),
(484,1036,ls),
(278,1036,o),
(110,868,o),
(110,662,cs)
);
}
);
width = 1182;
}
);
leftKerningGroup = a2;
rightKerningGroup = J;
unicode = 100;
},
{
glyphname = e;
layers = (
{
hints = (
{
horizontal = 1;
place = (0,211);
type = Stem;
},
{
horizontal = 1;
place = (408,210);
type = Stem;
},
{
horizontal = 1;
place = (825,211);
type = Stem;
},
{
place = (120,211);
type = Stem;
},
{
place = (862,210);
type = Stem;
}
);
layerId = "AE110022-8FF3-4FF8-83D9-A7F227575217";
shapes = (
{
closed = 1;
nodes = (
(120,292,ls),
(120,131,o),
(250,0,o),
(410,0,cs),
(999,0,l),
(999,211,l),
(410,211,ls),
(366,211,o),
(331,248,o),
(331,293,cs),
(331,825,l),
(775,825,ls),
(823,825,o),
(862,785,o),
(862,735,cs),
(862,707,ls),
(862,658,o),
(823,618,o),
(775,618,cs),
(451,618,l),
(451,408,l),
(773,408,ls),
(938,408,o),
(1072,542,o),
(1072,706,cs),
(1072,735,ls),
(1072,901,o),
(938,1036,o),
(773,1036,cs),
(341,1036,ls),
(219,1036,o),
(120,940,o),
(120,822,cs)
);
}
);
width = 1182;
}
);
leftKerningGroup = e2;
rightKerningGroup = e;
unicode = 101;
},
{
glyphname = f;
layers = (
{
hints = (
{
horizontal = 1;
place = (0,21);
target = up;
type = BottomGhost;
},
{
horizontal = 1;
place = (826,210);
type = Stem;
},
{
horizontal = 1;
place = (1212,210);
type = Stem;
},
{
place = (120,211);
type = Stem;
}
);
layerId = "AE110022-8FF3-4FF8-83D9-A7F227575217";
shapes = (
{
closed = 1;
nodes = (
(120,0,l),
(331,0,l),
(331,826,l),
(653,826,l),
(653,1036,l),
(331,1036,l),
(331,1125,ls),
(331,1173,o),
(370,1212,o),
(418,1212,cs),
(649,1212,l),
(649,1422,l),
(418,1422,ls),
(254,1422,o),
(120,1289,o),
(120,1125,cs)
);
}
);
width = 719;
}
);
leftKerningGroup = S;
unicode = 102;
},
{
glyphname = g;
layers = (
{
hints = (
{
horizontal = 1;
place = (-388,206);
type = Stem;
},
{
horizontal = 1;
place = (0,210);
type = Stem;
},
{
horizontal = 1;
place = (824,211);
type = Stem;
},
{
place = (110,211);
type = Stem;
},
{
place = (851,211);
type = Stem;
}
);
layerId = "AE110022-8FF3-4FF8-83D9-A7F227575217";
shapes = (
{
closed = 1;
nodes = (
(110,373,ls),
(110,167,o),
(278,0,o),
(484,0,cs),
(731,0,l),
(731,210,l),
(484,210,ls),
(394,210,o),
(321,284,o),
(321,375,cs),
(321,661,ls),
(321,751,o),
(394,824,o),
(484,824,cs),
(851,824,l),
(851,-15,ls),
(851,-107,o),
(779,-182,o),
(690,-182,cs),
(177,-182,l),
(177,-388,l),
(688,-388,ls),
(894,-388,o),
(1062,-220,o),
(1062,-14,cs),
(1062,824,ls),
(1062,940,o),
(967,1035,o),
(851,1035,cs),
(484,1035,ls),
(278,1035,o),
(110,868,o),
(110,663,cs)
);
}
);
width = 1182;
}
);
leftKerningGroup = c2;
rightKerningGroup = g;
unicode = 103;
},
{
glyphname = h;
layers = (
{
hints = (
{
horizontal = 1;
place = (0,21);
target = up;
type = BottomGhost;
},
{
horizontal = 1;
place = (825,211);
type = Stem;
},
{
horizontal = 1;
place = (1422,-20);
target = down;
type = TopGhost;
},
{
place = (120,211);
type = Stem;
},
{
place = (836,211);
type = Stem;
}
);
layerId = "AE110022-8FF3-4FF8-83D9-A7F227575217";
shapes = (
{
closed = 1;
nodes = (
(120,0,l),
(331,0,l),
(331,825,l),
(657,825,ls),
(753,825,o),
(836,748,o),
(836,660,cs),
(836,0,l),
(1047,0,l),
(1047,663,ls),
(1047,869,o),
(872,1036,o),
(657,1036,cs),
(331,1036,l),
(331,1422,l),
(120,1422,l)
);
}
);
width = 1167;
}
);
leftKerningGroup = B2;
unicode = 104;
},
{
glyphname = i;
layers = (
{
hints = (
{
horizontal = 1;
place = (0,21);
target = up;
type = BottomGhost;
},
{
horizontal = 1;
place = (1036,-20);
target = down;
type = TopGhost;
},
{
horizontal = 1;
place = (1188,260);
type = Stem;
},
{
place = (96,260);
type = Stem;
},
{
place = (120,212);
type = Stem;
}
);
layerId = "AE110022-8FF3-4FF8-83D9-A7F227575217";
shapes = (
{
closed = 1;
nodes = (
(96,1246,o),
(154,1188,o),
(226,1188,cs),
(298,1188,o),
(356,1246,o),
(356,1318,cs),
(356,1390,o),
(298,1448,o),
(226,1448,cs),
(154,1448,o),
(96,1390,o),
(96,1318,cs)
);
},
{
closed = 1;
nodes = (
(120,0,l),
(332,0,l),
(332,1036,l),
(120,1036,l)
);
}
);
width = 452;
}
);
leftKerningGroup = B2;
rightKerningGroup = H;
unicode = 105;
},
{
glyphname = j;
layers = (
{
hints = (
{
horizontal = 1;
place = (-391,211);
type = Stem;
},
{
horizontal = 1;
place = (1036,-20);
target = down;
type = TopGhost;
},
{
horizontal = 1;
place = (1188,260);
type = Stem;
},
{
place = (171,260);
type = Stem;
},
{
place = (199,211);
type = Stem;
}
);
layerId = "AE110022-8FF3-4FF8-83D9-A7F227575217";
shapes = (
{
closed = 1;
nodes = (
(40,-391,l),
(323,-391,o),
(410,-313,o),
(410,-60,cs),
(410,1036,l),
(199,1036,l),
(199,-60,ls),
(199,-171,o),
(187,-180,o),
(40,-180,c)
);
},
{
closed = 1;
nodes = (
(171,1246,o),
(229,1188,o),
(302,1188,cs),
(374,1188,o),
(431,1245,o),
(431,1317,cs),
(431,1390,o),
(373,1448,o),
(302,1448,cs),
(230,1448,o),
(171,1389,o),
(171,1317,cs)
);
}
);
width = 527;
}
);
leftKerningGroup = j;
rightKerningGroup = H;
unicode = 106;
},
{
glyphname = k;
layers = (
{
hints = (
{
horizontal = 1;
place = (0,21);
target = up;
type = BottomGhost;
},
{
horizontal = 1;
place = (1036,-20);
target = down;
type = TopGhost;
},
{
horizontal = 1;
place = (1422,-20);
target = down;
type = TopGhost;
},
{
place = (120,211);
type = Stem;
}
);
layerId = "AE110022-8FF3-4FF8-83D9-A7F227575217";
shapes = (
{
closed = 1;
nodes = (
(120,0,l),
(331,0,l),
(331,428,l),
(383,428,l),
(798,0,l),
(1093,0,l),
(578,534,l),
(1051,1036,l),
(777,1036,l),
(402,639,l),
(331,639,l),
(331,1422,l),
(120,1422,l)
);
}
);
width = 1123;
}
);
leftKerningGroup = B2;
unicode = 107;
},
{
glyphname = l;
layers = (
{
hints = (
{
horizontal = 1;
place = (0,21);
target = up;
type = BottomGhost;
},
{
horizontal = 1;
place = (1422,-20);
target = down;
type = TopGhost;
},
{
place = (120,211);
type = Stem;
}
);
layerId = "AE110022-8FF3-4FF8-83D9-A7F227575217";
shapes = (
{
closed = 1;
nodes = (
(120,0,l),
(331,0,l),
(331,1422,l),
(120,1422,l)
);
}
);
width = 451;
}
);
leftKerningGroup = B2;
rightKerningGroup = H;
unicode = 108;
},
{
glyphname = m;
layers = (
{
hints = (
{
horizontal = 1;
place = (0,21);
target = up;
type = BottomGhost;
},
{
horizontal = 1;
place = (826,210);
type = Stem;
},
{
place = (120,211);
type = Stem;
},
{
place = (751,211);
type = Stem;
},
{
place = (1388,210);
type = Stem;
}
);
layerId = "AE110022-8FF3-4FF8-83D9-A7F227575217";
shapes = (
{
closed = 1;
nodes = (
(120,0,l),
(331,0,l),
(331,826,l),
(648,826,ls),
(705,826,o),
(751,784,o),
(751,732,cs),
(751,0,l),
(962,0,l),
(962,732,ls),
(962,784,o),
(1009,826,o),
(1068,826,cs),
(1224,826,ls),
(1315,826,o),
(1388,752,o),
(1388,660,cs),
(1388,0,l),
(1598,0,l),
(1598,663,ls),
(1598,869,o),
(1430,1036,o),
(1224,1036,cs),
(1068,1036,ls),
(984,1036,o),
(910,1008,o),
(858,956,c),
(806,1007,o),
(730,1036,o),
(648,1036,cs),
(332,1036,ls),
(215,1036,o),
(120,941,o),
(120,825,cs)
);
}
);
width = 1718;
}
);
leftKerningGroup = m;
rightKerningGroup = g;
unicode = 109;
},
{
glyphname = n;
layers = (
{
hints = (
{
horizontal = 1;
place = (0,21);
target = up;
type = BottomGhost;
},
{
horizontal = 1;
place = (827,209);
type = Stem;
},
{
place = (120,211);
type = Stem;
},
{
place = (861,211);
type = Stem;
}
);
layerId = "AE110022-8FF3-4FF8-83D9-A7F227575217";
shapes = (
{
closed = 1;
nodes = (
(120,0,l),
(331,0,l),
(331,827,l),
(698,827,ls),
(788,827,o),
(861,752,o),
(861,659,cs),
(861,0,l),
(1072,0,l),
(1072,662,ls),
(1072,868,o),
(904,1036,o),
(698,1036,cs),
(333,1036,ls),
(215,1036,o),
(120,942,o),
(120,826,cs)
);
}
);
width = 1192;
}
);
leftKerningGroup = m;
rightKerningGroup = g;
unicode = 110;
},
{
glyphname = o;
layers = (
{
hints = (
{
horizontal = 1;
place = (0,211);
type = Stem;
},
{
horizontal = 1;
place = (825,211);
type = Stem;
},
{
place = (110,211);
type = Stem;
},
{
place = (873,211);
type = Stem;
}
);
layerId = "AE110022-8FF3-4FF8-83D9-A7F227575217";
shapes = (
{
closed = 1;
nodes = (
(110,374,ls),
(110,168,o),
(278,0,o),
(484,0,cs),
(710,0,ls),
(916,0,o),
(1084,168,o),
(1084,374,cs),
(1084,662,ls),
(1084,868,o),
(916,1036,o),
(710,1036,cs),
(484,1036,ls),
(278,1036,o),
(110,868,o),
(110,662,cs)
);
},
{
closed = 1;
nodes = (
(321,660,ls),
(321,751,o),
(394,825,o),
(484,825,cs),
(710,825,ls),
(800,825,o),
(873,751,o),
(873,660,cs),
(873,376,ls),
(873,285,o),
(800,211,o),
(710,211,cs),
(484,211,ls),
(394,211,o),
(321,285,o),
(321,376,cs)
);
}
);
width = 1194;
}
);
leftKerningGroup = c2;
rightKerningGroup = o;
unicode = 111;
},
{
glyphname = p;
layers = (
{
hints = (
{
horizontal = 1;
place = (0,211);
type = Stem;
},
{
horizontal = 1;
place = (825,211);
type = Stem;
},
{
place = (110,211);
type = Stem;
},
{
place = (851,211);
type = Stem;
}
);
layerId = "AE110022-8FF3-4FF8-83D9-A7F227575217";
shapes = (
{
closed = 1;
nodes = (
(110,-386,l),
(321,-386,l),
(321,825,l),
(688,825,ls),
(778,825,o),
(851,752,o),
(851,662,cs),
(851,376,ls),
(851,285,o),
(778,211,o),
(688,211,cs),
(441,211,l),
(441,0,l),
(688,0,ls),
(894,0,o),
(1062,168,o),
(1062,374,cs),
(1062,664,ls),
(1062,869,o),
(894,1036,o),
(688,1036,cs),
(321,1036,ls),
(205,1036,o),
(110,941,o),
(110,825,cs)
);
}
);
width = 1182;
}
);
leftKerningGroup = m;
rightKerningGroup = o;
unicode = 112;
},
{
glyphname = q;
layers = (
{
hints = (
{
horizontal = 1;
place = (0,211);
type = Stem;
},
{
horizontal = 1;
place = (825,211);
type = Stem;
},
{
place = (110,211);
type = Stem;
},
{
place = (851,211);
type = Stem;
}
);
layerId = "AE110022-8FF3-4FF8-83D9-A7F227575217";
shapes = (
{
closed = 1;
nodes = (
(110,374,ls),
(110,168,o),
(278,0,o),
(484,0,cs),
(731,0,l),
(731,211,l),
(484,211,ls),
(394,211,o),
(321,285,o),
(321,376,cs),
(321,662,ls),
(321,752,o),
(394,825,o),
(484,825,cs),
(851,825,l),
(851,-386,l),
(1062,-386,l),
(1062,825,ls),
(1062,941,o),
(967,1036,o),
(851,1036,cs),
(484,1036,ls),
(278,1036,o),
(110,869,o),
(110,664,cs)
);
}
);
width = 1182;
}
);
leftKerningGroup = c2;
rightKerningGroup = g;
unicode = 113;
},
{
glyphname = r;
layers = (
{
hints = (
{
horizontal = 1;
place = (0,21);
target = up;
type = BottomGhost;
},
{
horizontal = 1;
place = (826,210);
type = Stem;
},
{
place = (120,211);
type = Stem;
}
);
layerId = "AE110022-8FF3-4FF8-83D9-A7F227575217";
shapes = (
{
closed = 1;
nodes = (
(120,0,l),
(331,0,l),
(331,742,ls),
(331,789,o),
(370,826,o),
(418,826,cs),
(649,826,l),
(649,1036,l),
(418,1036,ls),
(254,1036,o),
(120,906,o),
(120,746,cs)
);
}
);
width = 719;
}
);
leftKerningGroup = m;
rightKerningGroup = r;
unicode = 114;
},
{
glyphname = s;
layers = (
{
hints = (
{
horizontal = 1;
place = (0,211);
type = Stem;
},
{
horizontal = 1;
place = (428,210);
type = Stem;
},
{
horizontal = 1;
place = (825,211);
type = Stem;
},
{
place = (110,211);
type = Stem;
},
{
place = (873,210);
type = Stem;
}
);
layerId = "AE110022-8FF3-4FF8-83D9-A7F227575217";
shapes = (
{
closed = 1;
nodes = (
(110,720,ls),
(110,559,o),
(244,428,o),
(408,428,cs),
(786,428,ls),
(834,428,o),
(873,391,o),
(873,345,cs),
(873,293,ls),
(873,248,o),
(834,211,o),
(786,211,cs),
(157,211,l),
(157,0,l),
(786,0,ls),
(950,0,o),
(1083,131,o),
(1083,292,cs),
(1083,346,ls),
(1083,507,o),
(950,638,o),
(786,638,cs),
(408,638,ls),
(360,638,o),
(321,675,o),
(321,720,cs),
(321,745,ls),
(321,789,o),
(360,825,o),
(408,825,cs),
(1016,825,l),
(1016,1036,l),
(408,1036,ls),
(244,1036,o),
(110,906,o),
(110,745,cs)
);
}
);
width = 1193;
}
);
rightKerningGroup = s;
unicode = 115;
},
{
glyphname = t;
layers = (
{
hints = (
{
horizontal = 1;
place = (0,211);
type = Stem;
},
{
horizontal = 1;
place = (825,211);
type = Stem;
},
{
horizontal = 1;
place = (1422,-20);
target = down;
type = TopGhost;
},
{
place = (205,211);
type = Stem;
}
);
layerId = "AE110022-8FF3-4FF8-83D9-A7F227575217";
shapes = (
{
closed = 1;
nodes = (
(70,825,l),
(205,825,l),
(205,293,ls),
(205,131,o),
(339,0,o),
(503,0,cs),
(735,0,l),
(735,211,l),
(506,211,ls),
(456,211,o),
(416,248,o),
(416,294,cs),
(416,825,l),
(735,825,l),
(735,1036,l),
(416,1036,l),
(416,1422,l),
(205,1422,l),
(205,1036,l),
(70,1036,l)
);
}
);
width = 805;
}
);
unicode = 116;
},
{
glyphname = u;
layers = (
{
hints = (
{
horizontal = 1;
place = (0,209);
type = Stem;
},
{
horizontal = 1;
place = (1036,-20);
target = down;
type = TopGhost;
},
{
place = (120,211);
type = Stem;
},
{
place = (861,211);
type = Stem;
}
);
layerId = "AE110022-8FF3-4FF8-83D9-A7F227575217";
shapes = (
{
closed = 1;
nodes = (
(120,374,ls),
(120,168,o),
(288,0,o),
(494,0,cs),
(859,0,ls),
(977,0,o),
(1072,94,o),
(1072,210,cs),
(1072,1036,l),
(861,1036,l),
(861,209,l),
(494,209,ls),
(404,209,o),
(331,284,o),
(331,377,cs),
(331,1036,l),
(120,1036,l)
);
}
);
width = 1192;
}
);
leftKerningGroup = S;
rightKerningGroup = g;
unicode = 117;
},
{
glyphname = v;
layers = (
{
hints = (
{
horizontal = 1;
place = (0,21);
target = up;
type = BottomGhost;
},
{
horizontal = 1;
place = (1036,-20);
target = down;
type = TopGhost;
}
);
layerId = "AE110022-8FF3-4FF8-83D9-A7F227575217";
shapes = (
{
closed = 1;
nodes = (
(40,1036,l),
(434,0,l),
(641,0,l),
(1036,1036,l),
(814,1036,l),
(539,305,l),
(262,1036,l)
);
}
);
width = 1076;
}
);
leftKerningGroup = v2;
rightKerningGroup = v;
unicode = 118;
},
{
glyphname = w;
layers = (
{
hints = (
{
horizontal = 1;
place = (0,21);
target = up;
type = BottomGhost;
},
{
horizontal = 1;
place = (1036,-20);
target = down;
type = TopGhost;
}
);
layerId = "AE110022-8FF3-4FF8-83D9-A7F227575217";
shapes = (
{
closed = 1;
nodes = (
(60,1036,l),
(240,0,l),
(425,0,l),
(747,543,l),
(1068,0,l),
(1253,0,l),
(1432,1036,l),
(1221,1036,l),
(1102,350,l),
(846,787,l),
(647,787,l),
(391,350,l),
(272,1036,l)
);
}
);
width = 1492;
}
);
leftKerningGroup = w2;
rightKerningGroup = w;
unicode = 119;
},
{
glyphname = x;
layers = (
{
hints = (
{
horizontal = 1;
place = (0,21);
target = up;
type = BottomGhost;
},
{
horizontal = 1;
place = (1036,-20);
target = down;
type = TopGhost;
}
);
layerId = "AE110022-8FF3-4FF8-83D9-A7F227575217";
shapes = (
{
closed = 1;
nodes = (
(40,0,l),
(308,0,l),
(600,359,l),
(892,0,l),
(1159,0,l),
(738,519,l),
(1159,1036,l),
(891,1036,l),
(600,677,l),
(309,1036,l),
(40,1036,l),
(462,519,l)
);
}
);
width = 1199;
}
);
unicode = 120;
},
{
glyphname = y;
layers = (
{
hints = (
{
horizontal = 1;
place = (-390,21);
target = up;
type = BottomGhost;
},
{
horizontal = 1;
place = (1036,-20);
target = down;
type = TopGhost;
}
);
layerId = "AE110022-8FF3-4FF8-83D9-A7F227575217";
shapes = (
{
closed = 1;
nodes = (
(60,1036,l),
(441,34,l),
(280,-390,l),
(511,-390,l),
(1061,1036,l),
(828,1036,l),
(553,318,l),
(284,1036,l)
);
}
);
width = 1121;
}
);
leftKerningGroup = v2;
rightKerningGroup = v;
unicode = 121;
},
{
glyphname = z;
layers = (
{
hints = (
{
horizontal = 1;
place = (0,210);
type = Stem;
},
{
horizontal = 1;
place = (826,210);
type = Stem;
}
);
layerId = "AE110022-8FF3-4FF8-83D9-A7F227575217";
shapes = (
{
closed = 1;
nodes = (
(110,0,l),
(1065,0,l),
(1065,210,l),
(439,210,l),
(1065,878,l),
(1065,1036,l),
(110,1036,l),
(110,826,l),
(733,826,l),
(110,161,l)
);
}
);
width = 1175;
}
);
leftKerningGroup = z2;
rightKerningGroup = z;
unicode = 122;
},
{
glyphname = braceleft;
layers = (
{
hints = (
{
horizontal = 1;
place = (-390,210);
type = Stem;
},
{
horizontal = 1;
place = (521,214);
type = Stem;
},
{
horizontal = 1;
place = (1422,210);
type = Stem;
},
{
place = (223,211);
type = Stem;
}
);
layerId = "AE110022-8FF3-4FF8-83D9-A7F227575217";
shapes = (
{
closed = 1;
nodes = (
(90,521,l),
(194,521,o),
(223,496,o),
(223,406,cs),
(223,-38,ls),
(223,-333,o),
(298,-390,o),
(685,-390,c),
(685,-180,l),
(468,-180,o),
(434,-161,o),
(434,-38,cs),
(434,406,ls),
(434,493,o),
(410,573,o),
(367,629,c),
(408,685,o),
(434,771,o),
(434,853,cs),
(434,1261,ls),
(434,1415,o),
(445,1422,o),
(685,1422,c),
(685,1632,l),
(294,1632,o),
(223,1575,o),
(223,1261,cs),
(223,853,ls),
(223,745,o),
(212,735,o),
(90,735,c)
);
}
);
width = 725;
}
);
leftKerningGroup = at;
unicode = 123;
},
{
glyphname = bar;
layers = (
{
hints = (
{
place = (120,189);
type = Stem;
}
);
layerId = "AE110022-8FF3-4FF8-83D9-A7F227575217";
shapes = (
{
closed = 1;
nodes = (
(120,-382,l),
(309,-382,l),
(309,1532,l),
(120,1532,l)
);
}
);
width = 428;
}
);
leftKerningGroup = at;
unicode = 124;
},
{
glyphname = braceright;
layers = (
{
hints = (
{
horizontal = 1;
place = (-390,210);
type = Stem;
},
{
horizontal = 1;
place = (521,214);
type = Stem;
},
{
horizontal = 1;
place = (1422,210);
type = Stem;
},
{
place = (291,211);
type = Stem;
}
);
layerId = "AE110022-8FF3-4FF8-83D9-A7F227575217";
shapes = (
{
closed = 1;
nodes = (
(40,-390,l),
(427,-390,o),
(502,-333,o),
(502,-38,cs),
(502,406,ls),
(502,496,o),
(531,521,o),
(635,521,c),
(635,735,l),
(513,735,o),
(502,745,o),
(502,853,cs),
(502,1261,ls),
(502,1575,o),
(431,1632,o),
(40,1632,c),
(40,1422,l),
(280,1422,o),
(291,1415,o),
(291,1261,cs),
(291,853,ls),
(291,771,o),
(317,685,o),
(358,629,c),
(315,573,o),
(291,493,o),
(291,406,cs),
(291,-38,ls),
(291,-161,o),
(257,-180,o),
(40,-180,c)
);
}
);
width = 725;
}
);
leftKerningGroup = at;
unicode = 125;
},
{
glyphname = asciitilde;
layers = (
{
hints = (
{
horizontal = 1;
place = (402,196);
type = Stem;
},
{
horizontal = 1;
place = (507,199);
type = Stem;
},
{
place = (110,203);
type = Stem;
},
{
place = (964,201);
type = Stem;
}
);
layerId = "AE110022-8FF3-4FF8-83D9-A7F227575217";
shapes = (
{
closed = 1;
nodes = (
(313,402,l),
(313,472,o),
(344,507,o),
(405,507,cs),
(441,507,o),
(486,497,o),
(561,470,cs),
(705,418,o),
(772,402,o),
(849,402,cs),
(1048,402,o),
(1165,515,o),
(1165,707,c),
(964,707,l),
(964,636,o),
(929,598,o),
(864,598,cs),
(816,598,o),
(766,610,o),
(683,641,c),
(569,687,o),
(489,706,o),
(407,706,cs),
(234,706,o),
(110,579,o),
(110,402,c)
);
}
);
width = 1275;
}
);
leftKerningGroup = at;
unicode = 126;
},
{
glyphname = exclamdown;
layers = (
{
hints = (
{
horizontal = 1;
place = (-390,21);
target = up;
type = BottomGhost;
},
{
horizontal = 1;
place = (993,260);
type = Stem;
},
{
place = (120,260);
type = Stem;
},
{
place = (144,212);
type = Stem;
}
);
layerId = "AE110022-8FF3-4FF8-83D9-A7F227575217";
shapes = (
{
closed = 1;
nodes = (
(120,1051,o),
(178,993,o),
(250,993,cs),
(322,993,o),
(380,1051,o),
(380,1123,cs),
(380,1195,o),
(322,1253,o),
(250,1253,cs),
(178,1253,o),
(120,1195,o),
(120,1123,cs)
);
},
{
closed = 1;
nodes = (
(144,-390,l),
(356,-390,l),
(356,841,l),
(144,841,l)
);
}
);
width = 500;
}
);
leftKerningGroup = at;
unicode = 161;
},
{
glyphname = cent;
layers = (
{
hints = (
{
horizontal = 1;
place = (0,21);
target = up;
type = BottomGhost;
},
{
horizontal = 1;
place = (197,210);
type = Stem;
},
{
horizontal = 1;
place = (1022,211);
type = Stem;
},
{
horizontal = 1;
place = (1422,-20);
target = down;
type = TopGhost;
},
{
place = (120,211);
type = Stem;
},
{
place = (585,185);
type = Stem;
}
);
layerId = "AE110022-8FF3-4FF8-83D9-A7F227575217";
shapes = (
{
closed = 1;
nodes = (
(331,856,ls),
(331,948,o),
(409,1022,o),
(504,1022,cs),
(585,1022,l),
(585,407,l),
(504,407,ls),
(409,407,o),
(331,482,o),
(331,575,cs)
);
},
{
closed = 1;
nodes = (
(120,572,ls),
(120,365,o),
(292,197,o),
(504,197,cs),
(585,197,l),
(585,0,l),
(770,0,l),
(770,197,l),
(1088,197,l),
(1088,407,l),
(770,407,l),
(770,1022,l),
(1088,1022,l),
(1088,1233,l),
(770,1233,l),
(770,1422,l),
(585,1422,l),
(585,1233,l),
(504,1233,ls),
(292,1233,o),
(120,1065,o),
(120,858,cs)
);
}
);
width = 1202;
}
);
leftKerningGroup = at;
unicode = 162;
},
{
glyphname = sterling;
layers = (
{
hints = (
{
horizontal = 1;
place = (0,211);
type = Stem;
},
{
horizontal = 1;
place = (635,211);
type = Stem;
},
{
horizontal = 1;
place = (1212,210);
type = Stem;
},
{
place = (227,211);
type = Stem;
}
);
layerId = "AE110022-8FF3-4FF8-83D9-A7F227575217";
shapes = (
{
closed = 1;
nodes = (
(110,635,l),
(227,635,l),
(227,444,ls),
(227,307,o),
(203,225,o),
(146,167,c),
(146,0,l),
(1094,0,l),
(1094,211,l),
(402,211,l),
(429,261,o),
(438,320,o),
(438,444,cs),
(438,635,l),
(962,635,l),
(962,846,l),
(434,846,l),
(431,891,o),
(429,992,o),
(429,1065,cs),
(429,1154,o),
(504,1212,o),
(619,1212,cs),
(1094,1212,l),
(1094,1422,l),
(619,1422,ls),
(387,1422,o),
(218,1271,o),
(218,1064,cs),
(218,1009,o),
(220,928,o),
(224,846,c),
(110,846,l)
);
}
);
width = 1214;
}
);
leftKerningGroup = at;
unicode = 163;
},
{
glyphname = currency;
layers = (
{
hints = (
{
horizontal = 1;
place = (279,160);
type = Stem;
},
{
horizontal = 1;
place = (867,160);
type = Stem;
},
{
place = (139,160);
type = Stem;
},
{
place = (726,159);
type = Stem;
}
);
layerId = "AE110022-8FF3-4FF8-83D9-A7F227575217";
shapes = (
{
closed = 1;
nodes = (
(299,771,o),
(394,867,o),
(512,867,cs),
(630,867,o),
(726,771,o),
(726,653,cs),
(726,535,o),
(630,439,o),
(512,439,cs),
(394,439,o),
(299,535,o),
(299,653,cs)
);
},
{
closed = 1;
nodes = (
(213,250,l),
(305,343,l),
(370,301,o),
(442,279,o),
(512,279,cs),
(584,279,o),
(655,301,o),
(719,343,c),
(810,250,l),
(914,355,l),
(823,447,l),
(863,507,o),
(885,580,o),
(885,653,cs),
(885,725,o),
(864,794,o),
(823,859,c),
(914,951,l),
(810,1056,l),
(719,963,l),
(656,1005,o),
(584,1027,o),
(512,1027,cs),
(439,1027,o),
(368,1005,o),
(305,963,c),
(213,1056,l),
(110,951,l),
(201,859,l),
(161,796,o),
(139,723,o),
(139,653,cs),
(139,578,o),
(160,508,o),
(201,447,c),
(110,355,l)
);
}
);
width = 1024;
}
);
leftKerningGroup = at;
unicode = 164;
},
{
glyphname = yen;
layers = (
{
hints = (
{
horizontal = 1;
place = (0,21);
target = up;
type = BottomGhost;
},
{
horizontal = 1;
place = (276,188);
type = Stem;
},
{
horizontal = 1;
place = (584,186);
type = Stem;
},
{
horizontal = 1;
place = (1422,-20);
target = down;
type = TopGhost;
},
{
place = (602,216);
type = Stem;
}
);
layerId = "AE110022-8FF3-4FF8-83D9-A7F227575217";
shapes = (
{
closed = 1;
nodes = (
(63,1422,l),
(536,770,l),
(256,770,l),
(256,584,l),
(602,584,l),
(602,464,l),
(256,464,l),
(256,276,l),
(602,276,l),
(602,0,l),
(818,0,l),
(818,276,l),
(1163,276,l),
(1163,464,l),
(818,464,l),
(818,584,l),
(1163,584,l),
(1163,770,l),
(884,770,l),
(1354,1422,l),
(1098,1422,l),
(710,883,l),
(320,1422,l)
);
}
);
width = 1417;
}
);
leftKerningGroup = S;
unicode = 165;
},
{
glyphname = brokenbar;
layers = (
{
hints = (
{
horizontal = 1;
place = (-390,21);
target = up;
type = BottomGhost;
},
{
place = (120,197);
type = Stem;
}
);
layerId = "AE110022-8FF3-4FF8-83D9-A7F227575217";
shapes = (
{
closed = 1;
nodes = (
(120,-390,l),
(317,-390,l),
(317,424,l),
(120,424,l)
);
},
{
closed = 1;
nodes = (
(120,725,l),
(317,725,l),
(317,1540,l),
(120,1540,l)
);
}
);
width = 437;
}
);
leftKerningGroup = at;
unicode = 166;
},
{
glyphname = section;
layers = (
{
hints = (
{
horizontal = 1;
place = (0,211);
type = Stem;
},
{
horizontal = 1;
place = (415,211);
type = Stem;
},
{
horizontal = 1;
place = (825,211);
type = Stem;
},
{
horizontal = 1;
place = (1212,210);
type = Stem;
},
{
place = (120,211);
type = Stem;
},
{
place = (155,211);
type = Stem;
},
{
place = (782,211);
type = Stem;
},
{
place = (862,210);
type = Stem;
}
);
layerId = "AE110022-8FF3-4FF8-83D9-A7F227575217";
shapes = (
{
closed = 1;
nodes = (
(331,761,ls),
(331,796,o),
(356,825,o),
(386,825,cs),
(810,825,ls),
(839,825,o),
(862,796,o),
(862,761,cs),
(862,690,ls),
(862,655,o),
(839,626,o),
(810,626,cs),
(386,626,ls),
(356,626,o),
(331,655,o),
(331,690,cs)
);
},
{
closed = 1;
nodes = (
(120,681,ls),
(120,534,o),
(239,415,o),
(386,415,cs),
(707,415,ls),
(745,415,o),
(782,371,o),
(782,327,cs),
(782,298,ls),
(782,250,o),
(748,211,o),
(707,211,cs),
(164,211,l),
(164,0,l),
(708,0,ls),
(865,0,o),
(993,135,o),
(993,301,cs),
(993,327,ls),
(993,380,o),
(988,415,o),
(976,455,c),
(1042,513,o),
(1072,583,o),
(1072,681,cs),
(1072,767,ls),
(1072,916,o),
(953,1036,o),
(807,1036,cs),
(430,1036,ls),
(394,1036,o),
(366,1068,o),
(366,1108,cs),
(366,1129,ls),
(366,1175,o),
(403,1212,o),
(449,1212,cs),
(998,1212,l),
(998,1422,l),
(449,1422,ls),
(286,1422,o),
(155,1292,o),
(155,1129,cs),
(155,1108,ls),
(155,1057,o),
(163,1011,o),
(180,971,c),
(141,923,o),
(120,851,o),
(120,768,cs)
);
}
);
width = 1192;
}
);
leftKerningGroup = at;
unicode = 167;
},
{
glyphname = dieresis;
layers = (
{
hints = (
{
horizontal = 1;
place = (1201,221);
type = Stem;
},
{
place = (120,221);
type = Stem;
},
{
place = (460,221);
type = Stem;
}
);
layerId = "AE110022-8FF3-4FF8-83D9-A7F227575217";
shapes = (
{
closed = 1;
nodes = (
(120,1250,o),
(169,1201,o),
(230,1201,cs),
(292,1201,o),
(341,1250,o),
(341,1311,cs),
(341,1373,o),
(292,1422,o),
(230,1422,cs),
(169,1422,o),
(120,1373,o),
(120,1311,cs)
);
},
{
closed = 1;
nodes = (
(460,1250,o),
(509,1201,o),
(570,1201,cs),
(632,1201,o),
(681,1250,o),
(681,1311,cs),
(681,1373,o),
(632,1422,o),
(570,1422,cs),
(509,1422,o),
(460,1373,o),
(460,1311,cs)
);
}
);
width = 801;
}
);
leftKerningGroup = at;
unicode = 168;
},
{
glyphname = copyright;
layers = (
{
hints = (
{
horizontal = 1;
place = (366,127);
type = Stem;
},
{
horizontal = 1;
place = (578,127);
type = Stem;
},
{
horizontal = 1;
place = (1089,127);
type = Stem;
},
{
horizontal = 1;
place = (1297,127);
type = Stem;
},
{
place = (140,127);
type = Stem;
},
{
place = (373,128);
type = Stem;
},
{
place = (1010,127);
type = Stem;
}
);
layerId = "AE110022-8FF3-4FF8-83D9-A7F227575217";
shapes = (
{
closed = 1;
nodes = (
(267,1144,ls),
(267,1228,o),
(336,1297,o),
(421,1297,cs),
(856,1297,ls),
(941,1297,o),
(1010,1228,o),
(1010,1144,cs),
(1010,647,ls),
(1010,562,o),
(941,493,o),
(856,493,cs),
(421,493,ls),
(336,493,o),
(267,562,o),
(267,647,cs)
);
},
{
closed = 1;
nodes = (
(373,806,ls),
(373,680,o),
(476,578,o),
(602,578,cs),
(872,578,l),
(872,705,l),
(602,705,ls),
(546,705,o),
(501,750,o),
(501,806,cs),
(501,988,ls),
(501,1043,o),
(547,1089,o),
(602,1089,cs),
(872,1089,l),
(872,1216,l),
(602,1216,ls),
(476,1216,o),
(373,1114,o),
(373,988,cs)
);
},
{
closed = 1;
nodes = (
(140,647,ls),
(140,492,o),
(266,366,o),
(421,366,cs),
(856,366,ls),
(1011,366,o),
(1137,492,o),
(1137,647,cs),
(1137,1144,ls),
(1137,1299,o),
(1011,1424,o),
(856,1424,cs),
(421,1424,ls),
(266,1424,o),
(140,1299,o),
(140,1144,cs)
);
}
);
width = 1277;
}
);
leftKerningGroup = at;
unicode = 169;
},
{
glyphname = ordfeminine;
layers = (
{
hints = (
{
horizontal = 1;
place = (777,128);
type = Stem;
},
{
horizontal = 1;
place = (1294,128);
type = Stem;
},
{
place = (120,128);
type = Stem;
},
{
place = (583,127);
type = Stem;
}
);
layerId = "AE110022-8FF3-4FF8-83D9-A7F227575217";
shapes = (
{
closed = 1;
nodes = (
(120,1006,ls),
(120,878,o),
(230,777,o),
(368,777,cs),
(710,777,l),
(710,1422,l),
(368,1422,ls),
(229,1422,o),
(120,1321,o),
(120,1194,cs)
);
},
{
closed = 1;
nodes = (
(248,1193,ls),
(248,1250,o),
(301,1294,o),
(368,1294,cs),
(583,1294,l),
(583,905,l),
(368,905,ls),
(301,905,o),
(248,950,o),
(248,1007,cs)
);
}
);
width = 830;
}
);
leftKerningGroup = at;
unicode = 170;
},
{
glyphname = guillemotleft;
layers = (
{
hints = (
{
horizontal = 1;
place = (94,913);
type = Stem;
},
{
place = (110,1068);
type = Stem;
}
);
layerId = "AE110022-8FF3-4FF8-83D9-A7F227575217";
shapes = (
{
closed = 1;
nodes = (
(110,497,l),
(686,94,l),
(686,317,l),
(355,549,l),
(686,783,l),
(686,1007,l),
(110,604,l)
);
},
{
closed = 1;
nodes = (
(603,497,l),
(1178,94,l),
(1178,317,l),
(848,549,l),
(1178,783,l),
(1178,1007,l),
(603,604,l)
);
}
);
width = 1288;
}
);
leftKerningGroup = at;
unicode = 171;
},
{
glyphname = logicalnot;
layers = (
{
hints = (
{
horizontal = 1;
place = (466,176);
type = Stem;
},
{
place = (948,176);
type = Stem;
}
);
layerId = "AE110022-8FF3-4FF8-83D9-A7F227575217";
shapes = (
{
closed = 1;
nodes = (
(110,466,l),
(948,466,l),
(948,231,l),
(1124,231,l),
(1124,642,l),
(110,642,l)
);
}
);
width = 1233;
}
);
leftKerningGroup = at;
unicode = 172;
},
{
glyphname = uni00AD;
layers = (
{
hints = (
{
horizontal = 1;
place = (466,176);
type = Stem;
},
{
place = (110,627);
type = Stem;
}
);
layerId = "AE110022-8FF3-4FF8-83D9-A7F227575217";
shapes = (
{
closed = 1;
nodes = (
(110,466,l),
(737,466,l),
(737,642,l),
(110,642,l)
);
}
);
width = 847;
}
);
leftKerningGroup = at;
unicode = 173;
},
{
glyphname = registered;
layers = (
{
hints = (
{
horizontal = 1;
place = (366,127);
type = Stem;
},
{
horizontal = 1;
place = (825,127);
type = Stem;
},
{
horizontal = 1;
place = (1092,124);
type = Stem;
},
{
horizontal = 1;
place = (1297,127);
type = Stem;
},
{
place = (140,127);
type = Stem;
},
{
place = (388,127);
type = Stem;
},
{
place = (747,127);
type = Stem;
},
{
place = (1010,127);
type = Stem;
}
);
layerId = "AE110022-8FF3-4FF8-83D9-A7F227575217";
shapes = (
{
closed = 1;
nodes = (
(515,1092,l),
(708,1092,ls),
(729,1092,o),
(747,1070,o),
(747,1044,cs),
(747,999,ls),
(747,973,o),
(729,952,o),
(708,952,cs),
(515,952,l)
);
},
{
closed = 1;
nodes = (
(267,1144,ls),
(267,1228,o),
(336,1297,o),
(421,1297,cs),
(856,1297,ls),
(941,1297,o),
(1010,1228,o),
(1010,1144,cs),
(1010,647,ls),
(1010,562,o),
(941,493,o),
(856,493,cs),
(421,493,ls),
(336,493,o),
(267,562,o),
(267,647,cs)
);
},
{
closed = 1;
nodes = (
(140,647,ls),
(140,492,o),
(266,366,o),
(421,366,cs),
(856,366,ls),
(1011,366,o),
(1137,492,o),
(1137,647,cs),
(1137,1144,ls),
(1137,1299,o),
(1011,1424,o),
(856,1424,cs),
(421,1424,ls),
(266,1424,o),
(140,1299,o),
(140,1144,cs)
);
},
{
closed = 1;
nodes = (
(515,577,l),
(515,825,l),
(576,825,l),
(765,577,l),
(912,577,l),
(722,827,l),
(809,837,o),
(874,910,o),
(874,999,cs),
(874,1044,ls),
(874,1138,o),
(798,1216,o),
(708,1216,cs),
(388,1216,l),
(388,577,l)
);
}
);
width = 1277;
}
);
leftKerningGroup = at;
unicode = 174;
},
{
glyphname = macron;
layers = (
{
hints = (
{
horizontal = 1;
place = (1275,147);
type = Stem;
},
{
place = (120,597);
type = Stem;
}
);
layerId = "AE110022-8FF3-4FF8-83D9-A7F227575217";
shapes = (
{
closed = 1;
nodes = (
(120,1275,l),
(717,1275,l),
(717,1422,l),
(120,1422,l)
);
}
);
width = 837;
}
);
leftKerningGroup = at;
unicode = 175;
},
{
glyphname = degree;
layers = (
{
hints = (
{
horizontal = 1;
place = (915,118);
type = Stem;
},
{
horizontal = 1;
place = (1304,118);
type = Stem;
},
{
place = (120,118);
type = Stem;
},
{
place = (480,118);
type = Stem;
}
);
layerId = "AE110022-8FF3-4FF8-83D9-A7F227575217";
shapes = (
{
closed = 1;
nodes = (
(120,1127,ls),
(120,1010,o),
(215,915,o),
(333,915,cs),
(385,915,ls),
(503,915,o),
(598,1010,o),
(598,1127,cs),
(598,1210,ls),
(598,1327,o),
(503,1422,o),
(385,1422,cs),
(333,1422,ls),
(215,1422,o),
(120,1327,o),
(120,1210,cs)
);
},
{
closed = 1;
nodes = (
(238,1210,ls),
(238,1262,o),
(281,1304,o),
(333,1304,cs),
(385,1304,ls),
(437,1304,o),
(480,1262,o),
(480,1210,cs),
(480,1127,ls),
(480,1075,o),
(437,1033,o),
(385,1033,cs),
(333,1033,ls),
(281,1033,o),
(238,1075,o),
(238,1127,cs)
);
}
);
width = 718;
}
);
leftKerningGroup = at;
unicode = 176;
},
{
glyphname = plusminus;
layers = (
{
hints = (
{
horizontal = 1;
place = (-3,176);
type = Stem;
},
{
horizontal = 1;
place = (660,176);
type = Stem;
},
{
place = (519,176);
type = Stem;
}
);
layerId = "AE110022-8FF3-4FF8-83D9-A7F227575217";
shapes = (
{
closed = 1;
nodes = (
(110,-3,l),
(1104,-3,l),
(1104,173,l),
(110,173,l)
);
},
{
closed = 1;
nodes = (
(110,660,l),
(519,660,l),
(519,262,l),
(695,262,l),
(695,660,l),
(1104,660,l),
(1104,836,l),
(695,836,l),
(695,1234,l),
(519,1234,l),
(519,836,l),
(110,836,l)
);
}
);
width = 1213;
}
);
leftKerningGroup = at;
unicode = 177;
},
{
glyphname = twosuperior;
layers = (
{
hints = (
{
horizontal = 1;
place = (596,131);
type = Stem;
},
{
horizontal = 1;
place = (1291,131);
type = Stem;
},
{
place = (70,130);
type = Stem;
},
{
place = (586,130);
type = Stem;
}
);
layerId = "AE110022-8FF3-4FF8-83D9-A7F227575217";
shapes = (
{
closed = 1;
nodes = (
(70,596,l),
(715,596,l),
(715,727,l),
(200,727,l),
(200,880,ls),
(200,893,o),
(205,897,o),
(226,901,cs),
(570,966,ls),
(654,982,o),
(716,1066,o),
(716,1164,cs),
(716,1222,ls),
(716,1332,o),
(623,1422,o),
(509,1422,cs),
(111,1422,l),
(111,1291,l),
(509,1291,ls),
(552,1291,o),
(586,1258,o),
(586,1216,cs),
(586,1164,ls),
(586,1126,o),
(560,1093,o),
(523,1086,cs),
(216,1029,ls),
(108,1009,o),
(70,970,o),
(70,879,cs)
);
}
);
width = 786;
}
);
leftKerningGroup = at;
unicode = 178;
},
{
glyphname = threesuperior;
layers = (
{
hints = (
{
horizontal = 1;
place = (596,131);
type = Stem;
},
{
horizontal = 1;
place = (967,130);
type = Stem;
},
{
horizontal = 1;
place = (1291,131);
type = Stem;
},
{
place = (574,130);
type = Stem;
},
{
place = (590,130);
type = Stem;
}
);
layerId = "AE110022-8FF3-4FF8-83D9-A7F227575217";
shapes = (
{
closed = 1;
nodes = (
(70,596,l),
(511,596,ls),
(626,596,o),
(720,688,o),
(720,801,cs),
(720,879,ls),
(720,953,o),
(695,1001,o),
(637,1038,c),
(681,1072,o),
(704,1121,o),
(704,1178,cs),
(704,1219,ls),
(704,1331,o),
(610,1422,o),
(494,1422,cs),
(70,1422,l),
(70,1291,l),
(496,1291,ls),
(539,1291,o),
(574,1258,o),
(574,1217,cs),
(574,1180,ls),
(574,1134,o),
(534,1097,o),
(484,1097,cs),
(289,1097,l),
(289,967,l),
(484,967,ls),
(542,967,o),
(590,927,o),
(590,880,cs),
(590,802,ls),
(590,761,o),
(555,727,o),
(512,727,cs),
(70,727,l)
);
}
);
width = 790;
}
);
leftKerningGroup = at;
unicode = 179;
},
{
glyphname = acute;
layers = (
{
hints = (
{
horizontal = 1;
place = (1170,422);
type = Stem;
},
{
place = (100,312);
type = Stem;
}
);
layerId = "AE110022-8FF3-4FF8-83D9-A7F227575217";
shapes = (
{
closed = 1;
nodes = (
(100,1223,l),
(214,1170,l),
(412,1504,l),
(229,1592,l)
);
}
);
width = 512;
}
);
leftKerningGroup = at;
unicode = 180;
},
{
glyphname = uni00B5;
layers = (
{
hints = (
{
horizontal = 1;
place = (-390,21);
target = up;
type = BottomGhost;
},
{
horizontal = 1;
place = (0,209);
type = Stem;
},
{
horizontal = 1;
place = (1036,-20);
target = down;
type = TopGhost;
},
{
place = (120,211);
type = Stem;
},
{
place = (861,211);
type = Stem;
}
);
layerId = "AE110022-8FF3-4FF8-83D9-A7F227575217";
shapes = (
{
closed = 1;
nodes = (
(120,-390,l),
(330,-390,l),
(330,38,l),
(384,13,o),
(439,0,o),
(494,0,cs),
(859,0,ls),
(977,0,o),
(1072,94,o),
(1072,210,cs),
(1072,1036,l),
(861,1036,l),
(861,209,l),
(494,209,ls),
(404,209,o),
(331,284,o),
(331,377,cs),
(331,1036,l),
(120,1036,l)
);
}
);
width = 1192;
}
);
leftKerningGroup = at;
unicode = 181;
},
{
glyphname = paragraph;
layers = (
{
hints = (
{
horizontal = 1;
place = (0,21);
target = up;
type = BottomGhost;
},
{
horizontal = 1;
place = (1422,-20);
target = down;
type = TopGhost;
},
{
place = (90,536);
type = Stem;
},
{
place = (480,146);
type = Stem;
},
{
place = (752,147);
type = Stem;
}
);
layerId = "AE110022-8FF3-4FF8-83D9-A7F227575217";
shapes = (
{
closed = 1;
nodes = (
(90,867,o),
(247,726,o),
(480,719,c),
(480,0,l),
(626,0,l),
(626,1422,l),
(497,1422,ls),
(259,1422,o),
(90,1275,o),
(90,1069,cs)
);
},
{
closed = 1;
nodes = (
(752,0,l),
(899,0,l),
(899,1422,l),
(752,1422,l)
);
}
);
width = 1039;
}
);
leftKerningGroup = at;
unicode = 182;
},
{
glyphname = periodcentered;
layers = (
{
hints = (
{
horizontal = 1;
place = (775,221);
type = Stem;
},
{
place = (120,221);
type = Stem;
}
);
layerId = "AE110022-8FF3-4FF8-83D9-A7F227575217";
shapes = (
{
closed = 1;
nodes = (
(120,825,o),
(169,775,o),
(230,775,cs),
(292,775,o),
(341,824,o),
(341,886,cs),
(341,947,o),
(292,996,o),
(230,996,cs),
(169,996,o),
(120,947,o),
(120,886,cs)
);
}
);
width = 461;
}
);
leftKerningGroup = at;
unicode = 183;
},
{
glyphname = cedilla;
layers = (
{
hints = (
{
horizontal = 1;
place = (-313,150);
type = Stem;
},
{
place = (251,151);
type = Stem;
}
);
layerId = "AE110022-8FF3-4FF8-83D9-A7F227575217";
shapes = (
{
closed = 1;
nodes = (
(100,-297,l),
(188,-310,o),
(217,-313,o),
(250,-313,cs),
(354,-313,o),
(402,-272,o),
(402,-183,cs),
(402,-136,o),
(388,-75,o),
(360,0,c),
(212,0,l),
(244,-89,o),
(251,-112,o),
(251,-132,cs),
(251,-154,o),
(240,-163,o),
(210,-163,cs),
(193,-163,o),
(182,-162,o),
(100,-149,c)
);
}
);
width = 502;
}
);
leftKerningGroup = at;
unicode = 184;
},
{
glyphname = onesuperior;
layers = (
{
hints = (
{
horizontal = 1;
place = (1291,131);
type = Stem;
},
{
place = (40,273);
type = Stem;
},
{
place = (183,130);
type = Stem;
}
);
layerId = "AE110022-8FF3-4FF8-83D9-A7F227575217";
shapes = (
{
closed = 1;
nodes = (
(40,1291,l),
(183,1291,l),
(183,596,l),
(313,596,l),
(313,1422,l),
(40,1422,l)
);
}
);
width = 413;
}
);
leftKerningGroup = at;
unicode = 185;
},
{
glyphname = ordmasculine;
layers = (
{
hints = (
{
horizontal = 1;
place = (774,128);
type = Stem;
},
{
horizontal = 1;
place = (1294,128);
type = Stem;
},
{
place = (120,128);
type = Stem;
},
{
place = (561,128);
type = Stem;
}
);
layerId = "AE110022-8FF3-4FF8-83D9-A7F227575217";
shapes = (
{
closed = 1;
nodes = (
(248,1200,ls),
(248,1252,o),
(291,1294,o),
(343,1294,cs),
(466,1294,ls),
(513,1294,o),
(554,1259,o),
(560,1212,cs),
(561,1207,o),
(561,1206,o),
(561,1189,cs),
(561,996,ls),
(561,944,o),
(518,902,o),
(466,902,cs),
(343,902,ls),
(296,902,o),
(255,937,o),
(249,984,cs),
(248,989,o),
(248,990,o),
(248,1007,cs)
);
},
{
closed = 1;
nodes = (
(120,996,ls),
(120,873,o),
(220,774,o),
(343,774,cs),
(466,774,ls),
(589,774,o),
(689,873,o),
(689,996,cs),
(689,1200,ls),
(689,1323,o),
(589,1422,o),
(466,1422,cs),
(343,1422,ls),
(220,1422,o),
(120,1323,o),
(120,1200,cs)
);
}
);
width = 809;
}
);
leftKerningGroup = at;
unicode = 186;
},
{
glyphname = guillemotright;
layers = (
{
hints = (
{
horizontal = 1;
place = (94,913);
type = Stem;
},
{
place = (110,1068);
type = Stem;
}
);
layerId = "AE110022-8FF3-4FF8-83D9-A7F227575217";
shapes = (
{
closed = 1;
nodes = (
(110,94,l),
(685,497,l),
(685,604,l),
(110,1007,l),
(110,783,l),
(440,549,l),
(110,317,l)
);
},
{
closed = 1;
nodes = (
(602,94,l),
(1178,497,l),
(1178,604,l),
(602,1007,l),
(602,783,l),
(933,549,l),
(602,317,l)
);
}
);
width = 1288;
}
);
leftKerningGroup = at;
unicode = 187;
},
{
glyphname = onequarter;
layers = (
{
hints = (
{
horizontal = 1;
place = (0,21);
target = up;
type = BottomGhost;
},
{
horizontal = 1;
place = (335,131);
type = Stem;
},
{
horizontal = 1;
place = (1292,130);
type = Stem;
},
{
place = (120,273);
type = Stem;
},
{
place = (263,130);
type = Stem;
},
{
place = (1305,130);
type = Stem;
},
{
place = (1793,130);
type = Stem;
}
);
layerId = "AE110022-8FF3-4FF8-83D9-A7F227575217";
shapes = (
{
closed = 1;
nodes = (
(120,1292,l),
(263,1292,l),
(263,588,l),
(393,588,l),
(393,1422,l),
(120,1422,l)
);
},
{
closed = 1;
nodes = (
(265,0,l),
(426,0,l),
(1433,1422,l),
(1272,1422,l)
);
},
{
closed = 1;
nodes = (
(1305,541,ls),
(1305,427,o),
(1397,335,o),
(1512,335,cs),
(1793,335,l),
(1793,0,l),
(1923,0,l),
(1923,830,l),
(1793,830,l),
(1793,466,l),
(1511,466,ls),
(1468,466,o),
(1435,500,o),
(1435,543,cs),
(1435,830,l),
(1305,830,l)
);
}
);
width = 2043;
}
);
leftKerningGroup = at;
unicode = 188;
},
{
glyphname = onehalf;
layers = (
{
hints = (
{
horizontal = 1;
place = (0,131);
type = Stem;
},
{
horizontal = 1;
place = (699,131);
type = Stem;
},
{
horizontal = 1;
place = (1292,130);
type = Stem;
},
{
place = (120,273);
type = Stem;
},
{
place = (263,130);
type = Stem;
},
{
place = (1261,131);
type = Stem;
},
{
place = (1780,130);
type = Stem;
}
);
layerId = "AE110022-8FF3-4FF8-83D9-A7F227575217";
shapes = (
{
closed = 1;
nodes = (
(120,1292,l),
(263,1292,l),
(263,588,l),
(393,588,l),
(393,1422,l),
(120,1422,l)
);
},
{
closed = 1;
nodes = (
(265,0,l),
(425,0,l),
(1433,1422,l),
(1273,1422,l)
);
},
{
closed = 1;
nodes = (
(1261,0,l),
(1909,0,l),
(1909,131,l),
(1392,131,l),
(1392,283,ls),
(1392,296,o),
(1397,300,o),
(1418,304,cs),
(1764,369,ls),
(1848,385,o),
(1910,469,o),
(1910,568,cs),
(1910,627,ls),
(1910,739,o),
(1817,830,o),
(1703,830,cs),
(1303,830,l),
(1303,699,l),
(1703,699,ls),
(1746,699,o),
(1780,665,o),
(1780,622,cs),
(1780,569,ls),
(1780,530,o),
(1754,496,o),
(1717,489,cs),
(1409,430,ls),
(1299,409,o),
(1261,371,o),
(1261,281,cs)
);
}
);
width = 2030;
}
);
leftKerningGroup = at;
unicode = 189;
},
{
glyphname = threequarters;
layers = (
{
hints = (
{
horizontal = 1;
place = (0,21);
target = up;
type = BottomGhost;
},
{
horizontal = 1;
place = (335,131);
type = Stem;
},
{
horizontal = 1;
place = (596,131);
type = Stem;
},
{
horizontal = 1;
place = (967,130);
type = Stem;
},
{
horizontal = 1;
place = (1291,131);
type = Stem;
},
{
place = (624,130);
type = Stem;
},
{
place = (640,130);
type = Stem;
},
{
place = (1581,130);
type = Stem;
},
{
place = (2069,130);
type = Stem;
}
);
layerId = "AE110022-8FF3-4FF8-83D9-A7F227575217";
shapes = (
{
closed = 1;
nodes = (
(120,596,l),
(561,596,ls),
(676,596,o),
(770,688,o),
(770,801,cs),
(770,879,ls),
(770,953,o),
(745,1001,o),
(687,1038,c),
(731,1072,o),
(754,1121,o),
(754,1178,cs),
(754,1219,ls),
(754,1331,o),
(660,1422,o),
(544,1422,cs),
(120,1422,l),
(120,1291,l),
(546,1291,ls),
(589,1291,o),
(624,1258,o),
(624,1217,cs),
(624,1180,ls),
(624,1134,o),
(584,1097,o),
(534,1097,cs),
(339,1097,l),
(339,967,l),
(534,967,ls),
(592,967,o),
(640,927,o),
(640,880,cs),
(640,802,ls),
(640,761,o),
(605,727,o),
(562,727,cs),
(120,727,l)
);
},
{
closed = 1;
nodes = (
(551,0,l),
(711,0,l),
(1711,1422,l),
(1551,1422,l)
);
},
{
closed = 1;
nodes = (
(1581,541,ls),
(1581,427,o),
(1673,335,o),
(1788,335,cs),
(2069,335,l),
(2069,0,l),
(2199,0,l),
(2199,830,l),
(2069,830,l),
(2069,466,l),
(1787,466,ls),
(1744,466,o),
(1711,500,o),
(1711,543,cs),
(1711,830,l),
(1581,830,l)
);
}
);
width = 2329;
}
);
leftKerningGroup = at;
unicode = 190;
},
{
glyphname = questiondown;
layers = (
{
hints = (
{
horizontal = 1;
place = (-390,210);
type = Stem;
},
{
horizontal = 1;
place = (804,238);
type = Stem;
},
{
place = (90,211);
type = Stem;
},
{
place = (586,211);
type = Stem;
}
);
layerId = "AE110022-8FF3-4FF8-83D9-A7F227575217";
shapes = (
{
closed = 1;
nodes = (
(90,-72,ls),
(90,-252,o),
(230,-390,o),
(410,-390,cs),
(1029,-390,l),
(1029,-180,l),
(410,-180,ls),
(350,-180,o),
(301,-131,o),
(301,-71,cs),
(301,66,ls),
(301,148,o),
(342,192,o),
(456,234,c),
(703,320,o),
(797,408,o),
(797,554,cs),
(797,726,l),
(586,726,l),
(586,554,ls),
(586,514,o),
(548,489,o),
(416,442,c),
(171,352,o),
(90,260,o),
(90,72,cs)
);
},
{
closed = 1;
nodes = (
(573,857,o),
(626,804,o),
(692,804,cs),
(758,804,o),
(811,857,o),
(811,923,cs),
(811,989,o),
(758,1042,o),
(692,1042,cs),
(626,1042,o),
(573,989,o),
(573,923,cs)
);
}
);
width = 1149;
}
);
leftKerningGroup = at;
rightKerningGroup = question;
unicode = 191;
},
{
glyphname = Agrave;
layers = (
{
hints = (
{
horizontal = 1;
place = (0,21);
target = up;
type = BottomGhost;
},
{
horizontal = 1;
place = (428,210);
type = Stem;
},
{
horizontal = 1;
place = (1422,-20);
target = down;
type = TopGhost;
},
{
horizontal = 1;
place = (1544,422);
type = Stem;
},
{
place = (483,312);
type = Stem;
}
);
layerId = "AE110022-8FF3-4FF8-83D9-A7F227575217";
shapes = (
{
closed = 1;
nodes = (
(483,1878,l),
(681,1544,l),
(795,1597,l),
(666,1966,l)
);
},
{
closed = 1;
nodes = (
(40,0,l),
(265,0,l),
(681,1146,l),
(865,638,l),
(620,638,l),
(544,428,l),
(941,428,l),
(1096,0,l),
(1321,0,l),
(812,1422,l),
(549,1422,l)
);
}
);
width = 1361;
}
);
leftKerningGroup = A2;
rightKerningGroup = A;
unicode = 192;
},
{
glyphname = Aacute;
layers = (
{
hints = (
{
horizontal = 1;
place = (0,21);
target = up;
type = BottomGhost;
},
{
horizontal = 1;
place = (428,210);
type = Stem;
},
{
horizontal = 1;
place = (1422,-20);
target = down;
type = TopGhost;
},
{
horizontal = 1;
place = (1544,422);
type = Stem;
},
{
place = (567,312);
type = Stem;
}
);
layerId = "AE110022-8FF3-4FF8-83D9-A7F227575217";
shapes = (
{
closed = 1;
nodes = (
(567,1597,l),
(681,1544,l),
(879,1878,l),
(696,1966,l)
);
},
{
closed = 1;
nodes = (
(40,0,l),
(265,0,l),
(681,1146,l),
(865,638,l),
(620,638,l),
(544,428,l),
(941,428,l),
(1096,0,l),
(1321,0,l),
(812,1422,l),
(549,1422,l)
);
}
);
width = 1361;
}
);
leftKerningGroup = A2;
rightKerningGroup = A;
unicode = 193;
},
{
glyphname = Acircumflex;
layers = (
{
hints = (
{
horizontal = 1;
place = (0,21);
target = up;
type = BottomGhost;
},
{
horizontal = 1;
place = (428,210);
type = Stem;
},
{
horizontal = 1;
place = (1422,-20);
target = down;
type = TopGhost;
},
{
horizontal = 1;
place = (1544,309);
type = Stem;
},
{
place = (369,623);
type = Stem;
}
);
layerId = "AE110022-8FF3-4FF8-83D9-A7F227575217";
shapes = (
{
closed = 1;
nodes = (
(369,1544,l),
(510,1544,l),
(680,1716,l),
(851,1544,l),
(992,1544,l),
(758,1853,l),
(603,1853,l)
);
},
{
closed = 1;
nodes = (
(40,0,l),
(265,0,l),
(681,1146,l),
(865,638,l),
(620,638,l),
(544,428,l),
(941,428,l),
(1096,0,l),
(1321,0,l),
(812,1422,l),
(549,1422,l)
);
}
);
width = 1361;
}
);
leftKerningGroup = A2;
rightKerningGroup = A;
unicode = 194;
},
{
glyphname = Atilde;
layers = (
{
hints = (
{
horizontal = 1;
place = (0,21);
target = up;
type = BottomGhost;
},
{
horizontal = 1;
place = (428,210);
type = Stem;
},
{
horizontal = 1;
place = (1422,-20);
target = down;
type = TopGhost;
},
{
horizontal = 1;
place = (1544,154);
type = Stem;
},
{
horizontal = 1;
place = (1625,148);
type = Stem;
},
{
place = (352,155);
type = Stem;
},
{
place = (853,157);
type = Stem;
}
);
layerId = "AE110022-8FF3-4FF8-83D9-A7F227575217";
shapes = (
{
closed = 1;
nodes = (
(507,1552,l),
(507,1602,o),
(521,1625,o),
(552,1625,cs),
(583,1625,o),
(610,1616,o),
(685,1584,cs),
(755,1554,o),
(787,1544,o),
(818,1544,cs),
(925,1544,o),
(1010,1644,o),
(1010,1768,c),
(853,1768,l),
(853,1720,o),
(839,1698,o),
(808,1698,cs),
(777,1698,o),
(750,1706,o),
(677,1736,cs),
(609,1764,o),
(577,1773,o),
(546,1773,cs),
(434,1773,o),
(353,1680,o),
(352,1552,c)
);
},
{
closed = 1;
nodes = (
(40,0,l),
(265,0,l),
(681,1146,l),
(865,638,l),
(620,638,l),
(544,428,l),
(941,428,l),
(1096,0,l),
(1321,0,l),
(812,1422,l),
(549,1422,l)
);
}
);
width = 1361;
}
);
leftKerningGroup = A2;
rightKerningGroup = A;
unicode = 195;
},
{
glyphname = Adieresis;
layers = (
{
hints = (
{
horizontal = 1;
place = (0,21);
target = up;
type = BottomGhost;
},
{
horizontal = 1;
place = (428,210);
type = Stem;
},
{
horizontal = 1;
place = (1422,-20);
target = down;
type = TopGhost;
},
{
horizontal = 1;
place = (1544,221);
type = Stem;
},
{
place = (400,221);
type = Stem;
},
{
place = (740,221);
type = Stem;
}
);
layerId = "AE110022-8FF3-4FF8-83D9-A7F227575217";
shapes = (
{
closed = 1;
nodes = (
(400,1593,o),
(449,1544,o),
(510,1544,cs),
(572,1544,o),
(621,1593,o),
(621,1654,cs),
(621,1716,o),
(572,1765,o),
(510,1765,cs),
(449,1765,o),
(400,1716,o),
(400,1654,cs)
);
},
{
closed = 1;
nodes = (
(740,1593,o),
(789,1544,o),
(850,1544,cs),
(912,1544,o),
(961,1593,o),
(961,1654,cs),
(961,1716,o),
(912,1765,o),
(850,1765,cs),
(789,1765,o),
(740,1716,o),
(740,1654,cs)
);
},
{
closed = 1;
nodes = (
(40,0,l),
(265,0,l),
(681,1146,l),
(865,638,l),
(620,638,l),
(544,428,l),
(941,428,l),
(1096,0,l),
(1321,0,l),
(812,1422,l),
(549,1422,l)
);
}
);
width = 1361;
}
);
leftKerningGroup = A2;
rightKerningGroup = A;
unicode = 196;
},
{
glyphname = Aring;
layers = (
{
hints = (
{
horizontal = 1;
place = (0,21);
target = up;
type = BottomGhost;
},
{
horizontal = 1;
place = (428,210);
type = Stem;
},
{
horizontal = 1;
place = (1422,-20);
target = down;
type = TopGhost;
},
{
horizontal = 1;
place = (1459,118);
type = Stem;
},
{
horizontal = 1;
place = (1722,118);
type = Stem;
},
{
place = (490,118);
type = Stem;
},
{
place = (752,118);
type = Stem;
}
);
layerId = "AE110022-8FF3-4FF8-83D9-A7F227575217";
shapes = (
{
closed = 1;
nodes = (
(608,1671,ls),
(608,1699,o),
(631,1722,o),
(660,1722,cs),
(700,1722,ls),
(729,1722,o),
(752,1699,o),
(752,1671,cs),
(752,1628,ls),
(752,1600,o),
(729,1577,o),
(700,1577,cs),
(660,1577,ls),
(631,1577,o),
(608,1600,o),
(608,1628,cs)
);
},
{
closed = 1;
nodes = (
(265,0,l),
(681,1146,l),
(865,638,l),
(620,638,l),
(544,428,l),
(941,428,l),
(1096,0,l),
(1321,0,l),
(812,1422,l),
(549,1422,l),
(40,0,l)
);
},
{
closed = 1;
nodes = (
(490,1628,ls),
(490,1534,o),
(566,1459,o),
(660,1459,cs),
(700,1459,ls),
(794,1459,o),
(870,1534,o),
(870,1628,cs),
(870,1671,ls),
(870,1765,o),
(794,1840,o),
(700,1840,cs),
(660,1840,ls),
(566,1840,o),
(490,1765,o),
(490,1671,cs)
);
}
);
width = 1361;
}
);
leftKerningGroup = A2;
rightKerningGroup = A;
unicode = 197;
},
{
glyphname = AE;
layers = (
{
hints = (
{
horizontal = 1;
place = (0,211);
type = Stem;
},
{
horizontal = 1;
place = (428,210);
type = Stem;
},
{
horizontal = 1;
place = (635,210);
type = Stem;
},
{
horizontal = 1;
place = (1212,210);
type = Stem;
},
{
place = (819,210);
type = Stem;
}
);
layerId = "AE110022-8FF3-4FF8-83D9-A7F227575217";
shapes = (
{
closed = 1;
nodes = (
(40,0,l),
(264,0,l),
(685,1212,l),
(819,1212,l),
(819,638,l),
(606,638,l),
(533,428,l),
(819,428,l),
(819,0,l),
(1924,0,l),
(1924,211,l),
(1029,211,l),
(1029,1212,l),
(1924,1212,l),
(1924,1422,l),
(533,1422,l)
);
},
{
closed = 1;
nodes = (
(1151,635,l),
(1923,635,l),
(1923,845,l),
(1151,845,l)
);
}
);
width = 2044;
}
);
leftKerningGroup = at;
unicode = 198;
},
{
glyphname = Ccedilla;
layers = (
{
hints = (
{
horizontal = 1;
place = (-303,150);
type = Stem;
},
{
horizontal = 1;
place = (0,211);
type = Stem;
},
{
horizontal = 1;
place = (1212,210);
type = Stem;
},
{
place = (120,211);
type = Stem;
},
{
place = (660,152);
type = Stem;
}
);
layerId = "AE110022-8FF3-4FF8-83D9-A7F227575217";
shapes = (
{
closed = 1;
nodes = (
(120,393,ls),
(120,176,o),
(302,0,o),
(526,0,cs),
(625,0,l),
(654,-82,o),
(660,-103,o),
(660,-122,cs),
(660,-145,o),
(649,-153,o),
(620,-153,cs),
(603,-153,o),
(592,-152,o),
(510,-139,c),
(510,-287,l),
(598,-300,o),
(627,-303,o),
(660,-303,cs),
(764,-303,o),
(812,-262,o),
(812,-173,cs),
(812,-130,o),
(799,-74,o),
(773,0,c),
(1271,0,l),
(1271,211,l),
(526,211,ls),
(418,211,o),
(331,294,o),
(331,396,cs),
(331,1022,ls),
(331,1127,o),
(418,1212,o),
(526,1212,cs),
(1271,1212,l),
(1271,1422,l),
(526,1422,ls),
(302,1422,o),
(120,1243,o),
(120,1022,cs)
);
}
);
width = 1381;
}
);
leftKerningGroup = at;
rightKerningGroup = C;
unicode = 199;
},
{
glyphname = Egrave;
layers = (
{
hints = (
{
horizontal = 1;
place = (0,211);
type = Stem;
},
{
horizontal = 1;
place = (635,210);
type = Stem;
},
{
horizontal = 1;
place = (1212,210);
type = Stem;
},
{
horizontal = 1;
place = (1544,422);
type = Stem;
},
{
place = (140,211);
type = Stem;
},
{
place = (494,312);
type = Stem;
}
);
layerId = "AE110022-8FF3-4FF8-83D9-A7F227575217";
shapes = (
{
closed = 1;
nodes = (
(494,1878,l),
(692,1544,l),
(806,1597,l),
(677,1966,l)
);
},
{
closed = 1;
nodes = (
(140,0,l),
(1243,0,l),
(1243,211,l),
(351,211,l),
(351,1212,l),
(1243,1212,l),
(1243,1422,l),
(140,1422,l)
);
},
{
closed = 1;
nodes = (
(471,635,l),
(1243,635,l),
(1243,845,l),
(471,845,l)
);
}
);
width = 1363;
}
);
leftKerningGroup = B2;
unicode = 200;
},
{
glyphname = Eacute;
layers = (
{
hints = (
{
horizontal = 1;
place = (0,211);
type = Stem;
},
{
horizontal = 1;
place = (635,210);
type = Stem;
},
{
horizontal = 1;
place = (1212,210);
type = Stem;
},
{
horizontal = 1;
place = (1544,422);
type = Stem;
},
{
place = (140,211);
type = Stem;
},
{
place = (578,312);
type = Stem;
}
);
layerId = "AE110022-8FF3-4FF8-83D9-A7F227575217";
shapes = (
{
closed = 1;
nodes = (
(578,1597,l),
(692,1544,l),
(890,1878,l),
(707,1966,l)
);
},
{
closed = 1;
nodes = (
(140,0,l),
(1243,0,l),
(1243,211,l),
(351,211,l),
(351,1212,l),
(1243,1212,l),
(1243,1422,l),
(140,1422,l)
);
},
{
closed = 1;
nodes = (
(471,635,l),
(1243,635,l),
(1243,845,l),
(471,845,l)
);
}
);
width = 1363;
}
);
leftKerningGroup = at;
unicode = 201;
},
{
glyphname = Ecircumflex;
layers = (
{
hints = (
{
horizontal = 1;
place = (0,211);
type = Stem;
},
{
horizontal = 1;
place = (635,210);
type = Stem;
},
{
horizontal = 1;
place = (1212,210);
type = Stem;
},
{
horizontal = 1;
place = (1544,309);
type = Stem;
},
{
place = (140,211);
type = Stem;
},
{
place = (380,623);
type = Stem;
}
);
layerId = "AE110022-8FF3-4FF8-83D9-A7F227575217";
shapes = (
{
closed = 1;
nodes = (
(380,1544,l),
(521,1544,l),
(691,1716,l),
(862,1544,l),
(1003,1544,l),
(769,1853,l),
(614,1853,l)
);
},
{
closed = 1;
nodes = (
(140,0,l),
(1243,0,l),
(1243,211,l),
(351,211,l),
(351,1212,l),
(1243,1212,l),
(1243,1422,l),
(140,1422,l)
);
},
{
closed = 1;
nodes = (
(471,635,l),
(1243,635,l),
(1243,845,l),
(471,845,l)
);
}
);
width = 1363;
}
);
leftKerningGroup = B2;
unicode = 202;
},
{
glyphname = Edieresis;
layers = (
{
hints = (
{
horizontal = 1;
place = (0,211);
type = Stem;
},
{
horizontal = 1;
place = (635,210);
type = Stem;
},
{
horizontal = 1;
place = (1212,210);
type = Stem;
},
{
horizontal = 1;
place = (1544,221);
type = Stem;
},
{
place = (140,211);
type = Stem;
},
{
place = (411,221);
type = Stem;
},
{
place = (751,221);
type = Stem;
}
);
layerId = "AE110022-8FF3-4FF8-83D9-A7F227575217";
shapes = (
{
closed = 1;
nodes = (
(411,1593,o),
(460,1544,o),
(521,1544,cs),
(583,1544,o),
(632,1593,o),
(632,1654,cs),
(632,1716,o),
(583,1765,o),
(521,1765,cs),
(460,1765,o),
(411,1716,o),
(411,1654,cs)
);
},
{
closed = 1;
nodes = (
(751,1593,o),
(800,1544,o),
(861,1544,cs),
(923,1544,o),
(972,1593,o),
(972,1654,cs),
(972,1716,o),
(923,1765,o),
(861,1765,cs),
(800,1765,o),
(751,1716,o),
(751,1654,cs)
);
},
{
closed = 1;
nodes = (
(140,0,l),
(1243,0,l),
(1243,211,l),
(351,211,l),
(351,1212,l),
(1243,1212,l),
(1243,1422,l),
(140,1422,l)
);
},
{
closed = 1;
nodes = (
(471,635,l),
(1243,635,l),
(1243,845,l),
(471,845,l)
);
}
);
width = 1363;
}
);
leftKerningGroup = B2;
unicode = 203;
},
{
glyphname = Igrave;
layers = (
{
hints = (
{
horizontal = 1;
place = (0,21);
target = up;
type = BottomGhost;
},
{
horizontal = 1;
place = (1422,-20);
target = down;
type = TopGhost;
},
{
horizontal = 1;
place = (1544,422);
type = Stem;
},
{
place = (48,312);
type = Stem;
},
{
place = (140,211);
type = Stem;
}
);
layerId = "AE110022-8FF3-4FF8-83D9-A7F227575217";
shapes = (
{
closed = 1;
nodes = (
(48,1878,l),
(246,1544,l),
(360,1597,l),
(231,1966,l)
);
},
{
closed = 1;
nodes = (
(140,0,l),
(351,0,l),
(351,1422,l),
(140,1422,l)
);
}
);
width = 491;
}
);
leftKerningGroup = S;
rightKerningGroup = H;
unicode = 204;
},
{
glyphname = Iacute;
layers = (
{
hints = (
{
horizontal = 1;
place = (0,21);
target = up;
type = BottomGhost;
},
{
horizontal = 1;
place = (1422,-20);
target = down;
type = TopGhost;
},
{
horizontal = 1;
place = (1544,422);
type = Stem;
},
{
place = (132,312);
type = Stem;
},
{
place = (140,211);
type = Stem;
}
);
layerId = "AE110022-8FF3-4FF8-83D9-A7F227575217";
shapes = (
{
closed = 1;
nodes = (
(132,1597,l),
(246,1544,l),
(444,1878,l),
(261,1966,l)
);
},
{
closed = 1;
nodes = (
(140,0,l),
(351,0,l),
(351,1422,l),
(140,1422,l)
);
}
);
width = 491;
}
);
leftKerningGroup = B2;
unicode = 205;
},
{
glyphname = Icircumflex;
layers = (
{
hints = (
{
horizontal = 1;
place = (0,21);
target = up;
type = BottomGhost;
},
{
horizontal = 1;
place = (1422,-20);
target = down;
type = TopGhost;
},
{
horizontal = 1;
place = (1544,309);
type = Stem;
},
{
place = (-66,623);
type = Stem;
},
{
place = (140,211);
type = Stem;
}
);
layerId = "AE110022-8FF3-4FF8-83D9-A7F227575217";
shapes = (
{
closed = 1;
nodes = (
(-66,1544,l),
(75,1544,l),
(245,1716,l),
(416,1544,l),
(557,1544,l),
(323,1853,l),
(168,1853,l)
);
},
{
closed = 1;
nodes = (
(140,0,l),
(351,0,l),
(351,1422,l),
(140,1422,l)
);
}
);
width = 491;
}
);
leftKerningGroup = S;
unicode = 206;
},
{
glyphname = Idieresis;
layers = (
{
hints = (
{
horizontal = 1;
place = (0,21);
target = up;
type = BottomGhost;
},
{
horizontal = 1;
place = (1422,-20);
target = down;
type = TopGhost;
},
{
horizontal = 1;
place = (1544,221);
type = Stem;
},
{
place = (-35,221);
type = Stem;
},
{
place = (140,211);
type = Stem;
},
{
place = (305,221);
type = Stem;
}
);
layerId = "AE110022-8FF3-4FF8-83D9-A7F227575217";
shapes = (
{
closed = 1;
nodes = (
(-35,1593,o),
(14,1544,o),
(75,1544,cs),
(137,1544,o),
(186,1593,o),
(186,1654,cs),
(186,1716,o),
(137,1765,o),
(75,1765,cs),
(14,1765,o),
(-35,1716,o),
(-35,1654,cs)
);
},
{
closed = 1;
nodes = (
(305,1593,o),
(354,1544,o),
(415,1544,cs),
(477,1544,o),
(526,1593,o),
(526,1654,cs),
(526,1716,o),
(477,1765,o),
(415,1765,cs),
(354,1765,o),
(305,1716,o),
(305,1654,cs)
);
},
{
closed = 1;
nodes = (
(140,0,l),
(351,0,l),
(351,1422,l),
(140,1422,l)
);
}
);
width = 491;
}
);
leftKerningGroup = S;
unicode = 207;
},
{
glyphname = Eth;
layers = (
{
hints = (
{
horizontal = 1;
place = (0,211);
type = Stem;
},
{
horizontal = 1;
place = (650,170);
type = Stem;
},
{
horizontal = 1;
place = (1212,210);
type = Stem;
},
{
place = (187,210);
type = Stem;
},
{
place = (1135,210);
type = Stem;
}
);
layerId = "AE110022-8FF3-4FF8-83D9-A7F227575217";
shapes = (
{
closed = 1;
nodes = (
(90,650,l),
(187,650,l),
(187,0,l),
(942,0,ls),
(1164,0,o),
(1345,177,o),
(1345,396,cs),
(1345,1022,ls),
(1345,1243,o),
(1164,1422,o),
(942,1422,cs),
(187,1422,l),
(187,820,l),
(90,820,l)
);
},
{
closed = 1;
nodes = (
(397,211,l),
(397,650,l),
(867,650,l),
(867,820,l),
(397,820,l),
(397,1212,l),
(942,1212,ls),
(1048,1212,o),
(1135,1127,o),
(1135,1022,cs),
(1135,399,ls),
(1135,295,o),
(1048,211,o),
(942,211,cs)
);
}
);
width = 1465;
}
);
leftKerningGroup = at;
unicode = 208;
},
{
glyphname = Ntilde;
layers = (
{
hints = (
{
horizontal = 1;
place = (0,21);
target = up;
type = BottomGhost;
},
{
horizontal = 1;
place = (1422,-20);
target = down;
type = TopGhost;
},
{
horizontal = 1;
place = (1544,154);
type = Stem;
},
{
horizontal = 1;
place = (1625,148);
type = Stem;
},
{
place = (140,211);
type = Stem;
},
{
place = (363,155);
type = Stem;
},
{
place = (864,157);
type = Stem;
},
{
place = (1033,211);
type = Stem;
}
);
layerId = "AE110022-8FF3-4FF8-83D9-A7F227575217";
shapes = (
{
closed = 1;
nodes = (
(518,1552,l),
(518,1602,o),
(532,1625,o),
(563,1625,cs),
(594,1625,o),
(621,1616,o),
(696,1584,cs),
(766,1554,o),
(798,1544,o),
(829,1544,cs),
(936,1544,o),
(1021,1644,o),
(1021,1768,c),
(864,1768,l),
(864,1720,o),
(850,1698,o),
(819,1698,cs),
(788,1698,o),
(761,1706,o),
(688,1736,cs),
(620,1764,o),
(588,1773,o),
(557,1773,cs),
(445,1773,o),
(364,1680,o),
(363,1552,c)
);
},
{
closed = 1;
nodes = (
(140,0,l),
(351,0,l),
(351,1102,l),
(970,0,l),
(1244,0,l),
(1244,1422,l),
(1033,1422,l),
(1033,305,l),
(414,1422,l),
(140,1422,l)
);
}
);
width = 1384;
}
);
leftKerningGroup = B2;
rightKerningGroup = H;
unicode = 209;
},
{
glyphname = Ograve;
layers = (
{
hints = (
{
horizontal = 1;
place = (0,210);
type = Stem;
},
{
horizontal = 1;
place = (1212,210);
type = Stem;
},
{
horizontal = 1;
place = (1544,422);
type = Stem;
},
{
place = (140,211);
type = Stem;
},
{
place = (533,312);
type = Stem;
},
{
place = (1110,211);
type = Stem;
}
);
layerId = "AE110022-8FF3-4FF8-83D9-A7F227575217";
shapes = (
{
closed = 1;
nodes = (
(351,1023,ls),
(351,1127,o),
(446,1212,o),
(564,1212,cs),
(897,1212,ls),
(1015,1212,o),
(1110,1127,o),
(1110,1023,cs),
(1110,399,ls),
(1110,295,o),
(1015,210,o),
(897,210,cs),
(564,210,ls),
(446,210,o),
(351,295,o),
(351,399,cs)
);
},
{
closed = 1;
nodes = (
(140,400,ls),
(140,179,o),
(330,0,o),
(564,0,cs),
(897,0,ls),
(1131,0,o),
(1321,179,o),
(1321,400,cs),
(1321,1022,ls),
(1321,1243,o),
(1131,1422,o),
(897,1422,cs),
(564,1422,ls),
(330,1422,o),
(140,1243,o),
(140,1022,cs)
);
},
{
closed = 1;
nodes = (
(731,1544,l),
(845,1597,l),
(716,1966,l),
(533,1878,l)
);
}
);
width = 1461;
}
);
leftKerningGroup = C2;
rightKerningGroup = D;
unicode = 210;
},
{
glyphname = Oacute;
layers = (
{
hints = (
{
horizontal = 1;
place = (0,210);
type = Stem;
},
{
horizontal = 1;
place = (1212,210);
type = Stem;
},
{
horizontal = 1;
place = (1544,422);
type = Stem;
},
{
place = (140,211);
type = Stem;
},
{
place = (617,312);
type = Stem;
},
{
place = (1110,211);
type = Stem;
}
);
layerId = "AE110022-8FF3-4FF8-83D9-A7F227575217";
shapes = (
{
closed = 1;
nodes = (
(351,1023,ls),
(351,1127,o),
(446,1212,o),
(564,1212,cs),
(897,1212,ls),
(1015,1212,o),
(1110,1127,o),
(1110,1023,cs),
(1110,399,ls),
(1110,295,o),
(1015,210,o),
(897,210,cs),
(564,210,ls),
(446,210,o),
(351,295,o),
(351,399,cs)
);
},
{
closed = 1;
nodes = (
(140,400,ls),
(140,179,o),
(330,0,o),
(564,0,cs),
(897,0,ls),
(1131,0,o),
(1321,179,o),
(1321,400,cs),
(1321,1022,ls),
(1321,1243,o),
(1131,1422,o),
(897,1422,cs),
(564,1422,ls),
(330,1422,o),
(140,1243,o),
(140,1022,cs)
);
},
{
closed = 1;
nodes = (
(731,1544,l),
(929,1878,l),
(746,1966,l),
(617,1597,l)
);
}
);
width = 1461;
}
);
leftKerningGroup = C2;
rightKerningGroup = D;
unicode = 211;
},
{
glyphname = Ocircumflex;
layers = (
{
hints = (
{
horizontal = 1;
place = (0,210);
type = Stem;
},
{
horizontal = 1;
place = (1212,210);
type = Stem;
},
{
horizontal = 1;
place = (1544,309);
type = Stem;
},
{
place = (140,211);
type = Stem;
},
{
place = (419,623);
type = Stem;
},
{
place = (1110,211);
type = Stem;
}
);
layerId = "AE110022-8FF3-4FF8-83D9-A7F227575217";
shapes = (
{
closed = 1;
nodes = (
(351,1023,ls),
(351,1127,o),
(446,1212,o),
(564,1212,cs),
(897,1212,ls),
(1015,1212,o),
(1110,1127,o),
(1110,1023,cs),
(1110,399,ls),
(1110,295,o),
(1015,210,o),
(897,210,cs),
(564,210,ls),
(446,210,o),
(351,295,o),
(351,399,cs)
);
},
{
closed = 1;
nodes = (
(140,400,ls),
(140,179,o),
(330,0,o),
(564,0,cs),
(897,0,ls),
(1131,0,o),
(1321,179,o),
(1321,400,cs),
(1321,1022,ls),
(1321,1243,o),
(1131,1422,o),
(897,1422,cs),
(564,1422,ls),
(330,1422,o),
(140,1243,o),
(140,1022,cs)
);
},
{
closed = 1;
nodes = (
(560,1544,l),
(730,1716,l),
(901,1544,l),
(1042,1544,l),
(808,1853,l),
(653,1853,l),
(419,1544,l)
);
}
);
width = 1461;
}
);
leftKerningGroup = C2;
rightKerningGroup = D;
unicode = 212;
},
{
glyphname = Otilde;
layers = (
{
hints = (
{
horizontal = 1;
place = (0,210);
type = Stem;
},
{
horizontal = 1;
place = (1212,210);
type = Stem;
},
{
horizontal = 1;
place = (1544,154);
type = Stem;
},
{
horizontal = 1;
place = (1625,148);
type = Stem;
},
{
place = (140,211);
type = Stem;
},
{
place = (402,155);
type = Stem;
},
{
place = (903,157);
type = Stem;
},
{
place = (1110,211);
type = Stem;
}
);
layerId = "AE110022-8FF3-4FF8-83D9-A7F227575217";
shapes = (
{
closed = 1;
nodes = (
(351,1023,ls),
(351,1127,o),
(446,1212,o),
(564,1212,cs),
(897,1212,ls),
(1015,1212,o),
(1110,1127,o),
(1110,1023,cs),
(1110,399,ls),
(1110,295,o),
(1015,210,o),
(897,210,cs),
(564,210,ls),
(446,210,o),
(351,295,o),
(351,399,cs)
);
},
{
closed = 1;
nodes = (
(140,400,ls),
(140,179,o),
(330,0,o),
(564,0,cs),
(897,0,ls),
(1131,0,o),
(1321,179,o),
(1321,400,cs),
(1321,1022,ls),
(1321,1243,o),
(1131,1422,o),
(897,1422,cs),
(564,1422,ls),
(330,1422,o),
(140,1243,o),
(140,1022,cs)
);
},
{
closed = 1;
nodes = (
(557,1552,l),
(557,1602,o),
(571,1625,o),
(602,1625,cs),
(633,1625,o),
(660,1616,o),
(735,1584,cs),
(805,1554,o),
(837,1544,o),
(868,1544,cs),
(975,1544,o),
(1060,1644,o),
(1060,1768,c),
(903,1768,l),
(903,1720,o),
(889,1698,o),
(858,1698,cs),
(827,1698,o),
(800,1706,o),
(727,1736,cs),
(659,1764,o),
(627,1773,o),
(596,1773,cs),
(484,1773,o),
(403,1680,o),
(402,1552,c)
);
}
);
width = 1461;
}
);
leftKerningGroup = C2;
rightKerningGroup = D;
unicode = 213;
},
{
glyphname = Odieresis;
layers = (
{
hints = (
{
horizontal = 1;
place = (0,210);
type = Stem;
},
{
horizontal = 1;
place = (1212,210);
type = Stem;
},
{
horizontal = 1;
place = (1544,221);
type = Stem;
},
{
place = (140,211);
type = Stem;
},
{
place = (450,221);
type = Stem;
},
{
place = (790,221);
type = Stem;
},
{
place = (1110,211);
type = Stem;
}
);
layerId = "AE110022-8FF3-4FF8-83D9-A7F227575217";
shapes = (
{
closed = 1;
nodes = (
(351,1023,ls),
(351,1127,o),
(446,1212,o),
(564,1212,cs),
(897,1212,ls),
(1015,1212,o),
(1110,1127,o),
(1110,1023,cs),
(1110,399,ls),
(1110,295,o),
(1015,210,o),
(897,210,cs),
(564,210,ls),
(446,210,o),
(351,295,o),
(351,399,cs)
);
},
{
closed = 1;
nodes = (
(140,400,ls),
(140,179,o),
(330,0,o),
(564,0,cs),
(897,0,ls),
(1131,0,o),
(1321,179,o),
(1321,400,cs),
(1321,1022,ls),
(1321,1243,o),
(1131,1422,o),
(897,1422,cs),
(564,1422,ls),
(330,1422,o),
(140,1243,o),
(140,1022,cs)
);
},
{
closed = 1;
nodes = (
(450,1593,o),
(499,1544,o),
(560,1544,cs),
(622,1544,o),
(671,1593,o),
(671,1654,cs),
(671,1716,o),
(622,1765,o),
(560,1765,cs),
(499,1765,o),
(450,1716,o),
(450,1654,cs)
);
},
{
closed = 1;
nodes = (
(790,1593,o),
(839,1544,o),
(900,1544,cs),
(962,1544,o),
(1011,1593,o),
(1011,1654,cs),
(1011,1716,o),
(962,1765,o),
(900,1765,cs),
(839,1765,o),
(790,1716,o),
(790,1654,cs)
);
}
);
width = 1461;
}
);
leftKerningGroup = C2;
rightKerningGroup = D;
unicode = 214;
},
{
glyphname = multiply;
layers = (
{
hints = (
{
horizontal = 1;
place = (110,858);
type = Stem;
},
{
place = (90,855);
type = Stem;
}
);
layerId = "AE110022-8FF3-4FF8-83D9-A7F227575217";
shapes = (
{
closed = 1;
nodes = (
(90,251,l),
(228,110,l),
(517,400,l),
(807,110,l),
(944,251,l),
(656,539,l),
(945,826,l),
(807,968,l),
(517,677,l),
(228,968,l),
(90,826,l),
(378,539,l)
);
}
);
width = 1034;
}
);
leftKerningGroup = at;
unicode = 215;
},
{
glyphname = Oslash;
layers = (
{
hints = (
{
horizontal = 1;
place = (0,210);
type = Stem;
},
{
horizontal = 1;
place = (1212,210);
type = Stem;
},
{
place = (143,212);
type = Stem;
},
{
place = (1113,212);
type = Stem;
}
);
layerId = "AE110022-8FF3-4FF8-83D9-A7F227575217";
shapes = (
{
closed = 1;
nodes = (
(355,1023,ls),
(355,1128,o),
(450,1212,o),
(567,1212,cs),
(901,1212,ls),
(919,1212,o),
(936,1210,o),
(953,1206,c),
(359,359,l),
(356,370,o),
(355,382,o),
(355,399,cs)
);
},
{
closed = 1;
nodes = (
(1100,1089,l),
(1109,1070,o),
(1113,1048,o),
(1113,1023,cs),
(1113,399,ls),
(1113,294,o),
(1018,210,o),
(901,210,cs),
(567,210,ls),
(541,210,o),
(516,214,o),
(493,222,c)
);
},
{
closed = 1;
nodes = (
(259,-111,l),
(370,46,l),
(433,16,o),
(500,0,o),
(567,0,cs),
(901,0,ls),
(1135,0,o),
(1325,179,o),
(1325,400,cs),
(1325,1022,ls),
(1325,1114,o),
(1292,1202,o),
(1230,1274,c),
(1357,1457,l),
(1203,1564,l),
(1078,1385,l),
(1022,1409,o),
(962,1422,o),
(901,1422,cs),
(567,1422,ls),
(333,1422,o),
(143,1243,o),
(143,1022,cs),
(143,400,ls),
(143,315,o),
(171,233,o),
(224,165,c),
(105,-4,l)
);
}
);
width = 1462;
}
);
leftKerningGroup = C2;
unicode = 216;
},
{
glyphname = Ugrave;
layers = (
{
hints = (
{
horizontal = 1;
place = (0,211);
type = Stem;
},
{
horizontal = 1;
place = (1422,-20);
target = down;
type = TopGhost;
},
{
horizontal = 1;
place = (1544,422);
type = Stem;
},
{
place = (140,211);
type = Stem;
},
{
place = (511,312);
type = Stem;
},
{
place = (1088,210);
type = Stem;
}
);
layerId = "AE110022-8FF3-4FF8-83D9-A7F227575217";
shapes = (
{
closed = 1;
nodes = (
(511,1878,l),
(709,1544,l),
(823,1597,l),
(694,1966,l)
);
},
{
closed = 1;
nodes = (
(140,397,ls),
(140,178,o),
(321,0,o),
(545,0,cs),
(894,0,ls),
(1117,0,o),
(1298,178,o),
(1298,397,cs),
(1298,1422,l),
(1088,1422,l),
(1088,399,ls),
(1088,295,o),
(1001,211,o),
(894,211,cs),
(545,211,ls),
(438,211,o),
(351,295,o),
(351,399,cs),
(351,1422,l),
(140,1422,l)
);
}
);
width = 1438;
}
);
leftKerningGroup = S;
rightKerningGroup = J;
unicode = 217;
},
{
glyphname = Uacute;
layers = (
{
hints = (
{
horizontal = 1;
place = (0,211);
type = Stem;
},
{
horizontal = 1;
place = (1422,-20);
target = down;
type = TopGhost;
},
{
horizontal = 1;
place = (1544,422);
type = Stem;
},
{
place = (140,211);
type = Stem;
},
{
place = (595,312);
type = Stem;
},
{
place = (1088,210);
type = Stem;
}
);
layerId = "AE110022-8FF3-4FF8-83D9-A7F227575217";
shapes = (
{
closed = 1;
nodes = (
(595,1597,l),
(709,1544,l),
(907,1878,l),
(724,1966,l)
);
},
{
closed = 1;
nodes = (
(140,397,ls),
(140,178,o),
(321,0,o),
(545,0,cs),
(894,0,ls),
(1117,0,o),
(1298,178,o),
(1298,397,cs),
(1298,1422,l),
(1088,1422,l),
(1088,399,ls),
(1088,295,o),
(1001,211,o),
(894,211,cs),
(545,211,ls),
(438,211,o),
(351,295,o),
(351,399,cs),
(351,1422,l),
(140,1422,l)
);
}
);
width = 1438;
}
);
leftKerningGroup = S;
rightKerningGroup = J;
unicode = 218;
},
{
glyphname = Ucircumflex;
layers = (
{
hints = (
{
horizontal = 1;
place = (0,211);
type = Stem;
},
{
horizontal = 1;
place = (1422,-20);
target = down;
type = TopGhost;
},
{
horizontal = 1;
place = (1544,309);
type = Stem;
},
{
place = (140,211);
type = Stem;
},
{
place = (398,623);
type = Stem;
},
{
place = (1088,210);
type = Stem;
}
);
layerId = "AE110022-8FF3-4FF8-83D9-A7F227575217";
shapes = (
{
closed = 1;
nodes = (
(398,1544,l),
(539,1544,l),
(709,1716,l),
(880,1544,l),
(1021,1544,l),
(787,1853,l),
(632,1853,l)
);
},
{
closed = 1;
nodes = (
(140,397,ls),
(140,178,o),
(321,0,o),
(545,0,cs),
(894,0,ls),
(1117,0,o),
(1298,178,o),
(1298,397,cs),
(1298,1422,l),
(1088,1422,l),
(1088,399,ls),
(1088,295,o),
(1001,211,o),
(894,211,cs),
(545,211,ls),
(438,211,o),
(351,295,o),
(351,399,cs),
(351,1422,l),
(140,1422,l)
);
}
);
width = 1438;
}
);
leftKerningGroup = S;
rightKerningGroup = J;
unicode = 219;
},
{
glyphname = Udieresis;
layers = (
{
hints = (
{
horizontal = 1;
place = (0,211);
type = Stem;
},
{
horizontal = 1;
place = (1422,-20);
target = down;
type = TopGhost;
},
{
horizontal = 1;
place = (1544,221);
type = Stem;
},
{
place = (140,211);
type = Stem;
},
{
place = (429,221);
type = Stem;
},
{
place = (769,221);
type = Stem;
},
{
place = (1088,210);
type = Stem;
}
);
layerId = "AE110022-8FF3-4FF8-83D9-A7F227575217";
shapes = (
{
closed = 1;
nodes = (
(429,1593,o),
(478,1544,o),
(539,1544,cs),
(601,1544,o),
(650,1593,o),
(650,1654,cs),
(650,1716,o),
(601,1765,o),
(539,1765,cs),
(478,1765,o),
(429,1716,o),
(429,1654,cs)
);
},
{
closed = 1;
nodes = (
(769,1593,o),
(818,1544,o),
(879,1544,cs),
(941,1544,o),
(990,1593,o),
(990,1654,cs),
(990,1716,o),
(941,1765,o),
(879,1765,cs),
(818,1765,o),
(769,1716,o),
(769,1654,cs)
);
},
{
closed = 1;
nodes = (
(140,397,ls),
(140,178,o),
(321,0,o),
(545,0,cs),
(894,0,ls),
(1117,0,o),
(1298,178,o),
(1298,397,cs),
(1298,1422,l),
(1088,1422,l),
(1088,399,ls),
(1088,295,o),
(1001,211,o),
(894,211,cs),
(545,211,ls),
(438,211,o),
(351,295,o),
(351,399,cs),
(351,1422,l),
(140,1422,l)
);
}
);
width = 1438;
}
);
leftKerningGroup = S;
rightKerningGroup = J;
unicode = 220;
},
{
glyphname = Yacute;
layers = (
{
hints = (
{
horizontal = 1;
place = (0,21);
target = up;
type = BottomGhost;
},
{
horizontal = 1;
place = (1422,-20);
target = down;
type = TopGhost;
},
{
horizontal = 1;
place = (1544,422);
type = Stem;
},
{
place = (572,312);
type = Stem;
},
{
place = (579,216);
type = Stem;
}
);
layerId = "AE110022-8FF3-4FF8-83D9-A7F227575217";
shapes = (
{
closed = 1;
nodes = (
(572,1597,l),
(686,1544,l),
(884,1878,l),
(701,1966,l)
);
},
{
closed = 1;
nodes = (
(40,1422,l),
(579,679,l),
(579,0,l),
(795,0,l),
(795,679,l),
(1331,1422,l),
(1075,1422,l),
(687,883,l),
(297,1422,l)
);
}
);
width = 1371;
}
);
leftKerningGroup = Y2;
rightKerningGroup = Y;
unicode = 221;
},
{
glyphname = Thorn;
layers = (
{
hints = (
{
horizontal = 1;
place = (0,21);
target = up;
type = BottomGhost;
},
{
horizontal = 1;
place = (189,211);
type = Stem;
},
{
horizontal = 1;
place = (1014,211);
type = Stem;
},
{
horizontal = 1;
place = (1422,-20);
target = down;
type = TopGhost;
},
{
place = (120,211);
type = Stem;
},
{
place = (884,211);
type = Stem;
}
);
layerId = "AE110022-8FF3-4FF8-83D9-A7F227575217";
shapes = (
{
closed = 1;
nodes = (
(332,849,ls),
(332,940,o),
(405,1014,o),
(495,1014,cs),
(721,1014,ls),
(811,1014,o),
(884,940,o),
(884,849,cs),
(884,565,ls),
(884,474,o),
(811,400,o),
(721,400,cs),
(495,400,ls),
(405,400,o),
(332,474,o),
(332,565,cs)
);
},
{
closed = 1;
nodes = (
(331,0,l),
(331,227,l),
(385,202,o),
(440,189,o),
(495,189,cs),
(721,189,ls),
(927,189,o),
(1095,357,o),
(1095,563,cs),
(1095,851,ls),
(1095,1057,o),
(927,1225,o),
(721,1225,cs),
(495,1225,ls),
(440,1225,o),
(385,1212,o),
(331,1187,c),
(331,1422,l),
(120,1422,l),
(120,0,l)
);
}
);
width = 1195;
}
);
leftKerningGroup = at;
unicode = 222;
},
{
glyphname = germandbls;
layers = (
{
hints = (
{
horizontal = 1;
place = (0,210);
type = Stem;
},
{
horizontal = 1;
place = (639,210);
type = Stem;
},
{
horizontal = 1;
place = (1212,210);
type = Stem;
},
{
place = (140,210);
type = Stem;
},
{
place = (844,210);
type = Stem;
},
{
place = (873,210);
type = Stem;
}
);
layerId = "AE110022-8FF3-4FF8-83D9-A7F227575217";
shapes = (
{
closed = 1;
nodes = (
(140,0,l),
(350,0,l),
(350,1087,ls),
(350,1156,o),
(415,1212,o),
(495,1212,cs),
(700,1212,ls),
(780,1212,o),
(844,1156,o),
(844,1087,cs),
(844,994,ls),
(844,914,o),
(780,849,o),
(700,849,cs),
(458,849,l),
(458,639,l),
(708,639,ls),
(806,639,o),
(873,580,o),
(873,494,cs),
(873,335,ls),
(873,266,o),
(804,210,o),
(717,210,cs),
(458,210,l),
(458,0,l),
(728,0,ls),
(924,0,o),
(1083,150,o),
(1083,335,cs),
(1083,494,ls),
(1083,617,o),
(1036,710,o),
(949,758,c),
(1021,813,o),
(1054,888,o),
(1054,994,cs),
(1054,1087,ls),
(1054,1272,o),
(895,1422,o),
(700,1422,cs),
(495,1422,ls),
(299,1422,o),
(140,1272,o),
(140,1087,cs)
);
}
);
width = 1203;
}
);
leftKerningGroup = S;
rightKerningGroup = B;
unicode = 223;
},
{
glyphname = agrave;
layers = (
{
hints = (
{
horizontal = 1;
place = (0,211);
type = Stem;
},
{
horizontal = 1;
place = (825,211);
type = Stem;
},
{
horizontal = 1;
place = (1158,422);
type = Stem;
},
{
place = (110,211);
type = Stem;
},
{
place = (388,312);
type = Stem;
},
{
place = (851,211);
type = Stem;
}
);
layerId = "AE110022-8FF3-4FF8-83D9-A7F227575217";
shapes = (
{
closed = 1;
nodes = (
(388,1492,l),
(586,1158,l),
(700,1211,l),
(571,1580,l)
);
},
{
closed = 1;
nodes = (
(110,374,ls),
(110,168,o),
(278,0,o),
(484,0,cs),
(731,0,l),
(731,211,l),
(484,211,ls),
(394,211,o),
(321,285,o),
(321,376,cs),
(321,662,ls),
(321,752,o),
(394,825,o),
(484,825,cs),
(851,825,l),
(851,0,l),
(1062,0,l),
(1062,1036,l),
(484,1036,ls),
(278,1036,o),
(110,869,o),
(110,664,cs)
);
}
);
width = 1182;
}
);
leftKerningGroup = a2;
rightKerningGroup = a;
unicode = 224;
},
{
glyphname = aacute;
layers = (
{
hints = (
{
horizontal = 1;
place = (0,211);
type = Stem;
},
{
horizontal = 1;
place = (825,211);
type = Stem;
},
{
horizontal = 1;
place = (1158,422);
type = Stem;
},
{
place = (110,211);
type = Stem;
},
{
place = (472,312);
type = Stem;
},
{
place = (851,211);
type = Stem;
}
);
layerId = "AE110022-8FF3-4FF8-83D9-A7F227575217";
shapes = (
{
closed = 1;
nodes = (
(472,1211,l),
(586,1158,l),
(784,1492,l),
(601,1580,l)
);
},
{
closed = 1;
nodes = (
(110,374,ls),
(110,168,o),
(278,0,o),
(484,0,cs),
(731,0,l),
(731,211,l),
(484,211,ls),
(394,211,o),
(321,285,o),
(321,376,cs),
(321,662,ls),
(321,752,o),
(394,825,o),
(484,825,cs),
(851,825,l),
(851,0,l),
(1062,0,l),
(1062,1036,l),
(484,1036,ls),
(278,1036,o),
(110,869,o),
(110,664,cs)
);
}
);
width = 1182;
}
);
leftKerningGroup = a2;
rightKerningGroup = a;
unicode = 225;
},
{
glyphname = acircumflex;
layers = (
{
hints = (
{
horizontal = 1;
place = (0,211);
type = Stem;
},
{
horizontal = 1;
place = (825,211);
type = Stem;
},
{
horizontal = 1;
place = (1158,309);
type = Stem;
},
{
place = (110,211);
type = Stem;
},
{
place = (275,623);
type = Stem;
},
{
place = (851,211);
type = Stem;
}
);
layerId = "AE110022-8FF3-4FF8-83D9-A7F227575217";
shapes = (
{
closed = 1;
nodes = (
(275,1158,l),
(416,1158,l),
(586,1330,l),
(757,1158,l),
(898,1158,l),
(664,1467,l),
(509,1467,l)
);
},
{
closed = 1;
nodes = (
(110,374,ls),
(110,168,o),
(278,0,o),
(484,0,cs),
(731,0,l),
(731,211,l),
(484,211,ls),
(394,211,o),
(321,285,o),
(321,376,cs),
(321,662,ls),
(321,752,o),
(394,825,o),
(484,825,cs),
(851,825,l),
(851,0,l),
(1062,0,l),
(1062,1036,l),
(484,1036,ls),
(278,1036,o),
(110,869,o),
(110,664,cs)
);
}
);
width = 1182;
}
);
leftKerningGroup = a2;
rightKerningGroup = a;
unicode = 226;
},
{
glyphname = atilde;
layers = (
{
hints = (
{
horizontal = 1;
place = (0,211);
type = Stem;
},
{
horizontal = 1;
place = (825,211);
type = Stem;
},
{
horizontal = 1;
place = (1158,154);
type = Stem;
},
{
horizontal = 1;
place = (1239,148);
type = Stem;
},
{
place = (110,211);
type = Stem;
},
{
place = (257,155);
type = Stem;
},
{
place = (758,157);
type = Stem;
},
{
place = (851,211);
type = Stem;
}
);
layerId = "AE110022-8FF3-4FF8-83D9-A7F227575217";
shapes = (
{
closed = 1;
nodes = (
(412,1166,l),
(412,1216,o),
(426,1239,o),
(457,1239,cs),
(488,1239,o),
(515,1230,o),
(590,1198,cs),
(660,1168,o),
(692,1158,o),
(723,1158,cs),
(830,1158,o),
(915,1258,o),
(915,1382,c),
(758,1382,l),
(758,1334,o),
(744,1312,o),
(713,1312,cs),
(682,1312,o),
(655,1320,o),
(582,1350,cs),
(514,1378,o),
(482,1387,o),
(451,1387,cs),
(339,1387,o),
(258,1294,o),
(257,1166,c)
);
},
{
closed = 1;
nodes = (
(110,374,ls),
(110,168,o),
(278,0,o),
(484,0,cs),
(731,0,l),
(731,211,l),
(484,211,ls),
(394,211,o),
(321,285,o),
(321,376,cs),
(321,662,ls),
(321,752,o),
(394,825,o),
(484,825,cs),
(851,825,l),
(851,0,l),
(1062,0,l),
(1062,1036,l),
(484,1036,ls),
(278,1036,o),
(110,869,o),
(110,664,cs)
);
}
);
width = 1182;
}
);
leftKerningGroup = a2;
rightKerningGroup = a;
unicode = 227;
},
{
glyphname = adieresis;
layers = (
{
hints = (
{
horizontal = 1;
place = (0,211);
type = Stem;
},
{
horizontal = 1;
place = (825,211);
type = Stem;
},
{
horizontal = 1;
place = (1158,221);
type = Stem;
},
{
place = (110,211);
type = Stem;
},
{
place = (306,221);
type = Stem;
},
{
place = (646,221);
type = Stem;
},
{
place = (851,211);
type = Stem;
}
);
layerId = "AE110022-8FF3-4FF8-83D9-A7F227575217";
shapes = (
{
closed = 1;
nodes = (
(306,1207,o),
(355,1158,o),
(416,1158,cs),
(478,1158,o),
(527,1207,o),
(527,1268,cs),
(527,1330,o),
(478,1379,o),
(416,1379,cs),
(355,1379,o),
(306,1330,o),
(306,1268,cs)
);
},
{
closed = 1;
nodes = (
(646,1207,o),
(695,1158,o),
(756,1158,cs),
(818,1158,o),
(867,1207,o),
(867,1268,cs),
(867,1330,o),
(818,1379,o),
(756,1379,cs),
(695,1379,o),
(646,1330,o),
(646,1268,cs)
);
},
{
closed = 1;
nodes = (
(110,374,ls),
(110,168,o),
(278,0,o),
(484,0,cs),
(731,0,l),
(731,211,l),
(484,211,ls),
(394,211,o),
(321,285,o),
(321,376,cs),
(321,662,ls),
(321,752,o),
(394,825,o),
(484,825,cs),
(851,825,l),
(851,0,l),
(1062,0,l),
(1062,1036,l),
(484,1036,ls),
(278,1036,o),
(110,869,o),
(110,664,cs)
);
}
);
width = 1182;
}
);
leftKerningGroup = a2;
rightKerningGroup = a;
unicode = 228;
},
{
glyphname = aring;
layers = (
{
hints = (
{
horizontal = 1;
place = (0,211);
type = Stem;
},
{
horizontal = 1;
place = (825,211);
type = Stem;
},
{
horizontal = 1;
place = (1158,118);
type = Stem;
},
{
horizontal = 1;
place = (1421,118);
type = Stem;
},
{
place = (110,211);
type = Stem;
},
{
place = (396,118);
type = Stem;
},
{
place = (658,118);
type = Stem;
},
{
place = (851,211);
type = Stem;
}
);
layerId = "AE110022-8FF3-4FF8-83D9-A7F227575217";
shapes = (
{
closed = 1;
nodes = (
(514,1370,ls),
(514,1398,o),
(537,1421,o),
(566,1421,cs),
(606,1421,ls),
(635,1421,o),
(658,1398,o),
(658,1370,cs),
(658,1327,ls),
(658,1299,o),
(635,1276,o),
(606,1276,cs),
(566,1276,ls),
(537,1276,o),
(514,1299,o),
(514,1327,cs)
);
},
{
closed = 1;
nodes = (
(110,374,ls),
(110,168,o),
(278,0,o),
(484,0,cs),
(731,0,l),
(731,211,l),
(484,211,ls),
(394,211,o),
(321,285,o),
(321,376,cs),
(321,662,ls),
(321,752,o),
(394,825,o),
(484,825,cs),
(851,825,l),
(851,0,l),
(1062,0,l),
(1062,1036,l),
(484,1036,ls),
(278,1036,o),
(110,869,o),
(110,664,cs)
);
},
{
closed = 1;
nodes = (
(396,1327,ls),
(396,1233,o),
(472,1158,o),
(566,1158,cs),
(606,1158,ls),
(700,1158,o),
(776,1233,o),
(776,1327,cs),
(776,1370,ls),
(776,1464,o),
(700,1539,o),
(606,1539,cs),
(566,1539,ls),
(472,1539,o),
(396,1464,o),
(396,1370,cs)
);
}
);
width = 1182;
}
);
leftKerningGroup = a2;
rightKerningGroup = a;
unicode = 229;
},
{
glyphname = ae;
layers = (
{
hints = (
{
horizontal = 1;
place = (0,211);
type = Stem;
},
{
horizontal = 1;
place = (408,210);
type = Stem;
},
{
horizontal = 1;
place = (825,211);
type = Stem;
},
{
place = (110,211);
type = Stem;
},
{
place = (851,211);
type = Stem;
},
{
place = (1593,210);
type = Stem;
}
);
layerId = "AE110022-8FF3-4FF8-83D9-A7F227575217";
shapes = (
{
closed = 1;
nodes = (
(110,374,ls),
(110,168,o),
(278,0,o),
(484,0,cs),
(731,0,l),
(731,211,l),
(484,211,ls),
(394,211,o),
(321,285,o),
(321,376,cs),
(321,662,ls),
(321,752,o),
(394,825,o),
(484,825,cs),
(851,825,l),
(851,0,l),
(1062,0,l),
(1062,11,l),
(1091,4,o),
(1116,0,o),
(1141,0,cs),
(1730,0,l),
(1730,211,l),
(1141,211,ls),
(1097,211,o),
(1062,248,o),
(1062,293,cs),
(1062,825,l),
(1506,825,ls),
(1554,825,o),
(1593,785,o),
(1593,735,cs),
(1593,707,ls),
(1593,658,o),
(1554,618,o),
(1506,618,cs),
(1182,618,l),
(1182,408,l),
(1504,408,ls),
(1669,408,o),
(1803,542,o),
(1803,706,cs),
(1803,735,ls),
(1803,901,o),
(1669,1036,o),
(1504,1036,cs),
(484,1036,ls),
(278,1036,o),
(110,869,o),
(110,664,cs)
);
}
);
width = 1913;
}
);
leftKerningGroup = at;
unicode = 230;
},
{
glyphname = ccedilla;
layers = (
{
hints = (
{
horizontal = 1;
place = (-303,150);
type = Stem;
},
{
horizontal = 1;
place = (0,211);
type = Stem;
},
{
horizontal = 1;
place = (825,211);
type = Stem;
},
{
place = (110,211);
type = Stem;
},
{
place = (558,152);
type = Stem;
}
);
layerId = "AE110022-8FF3-4FF8-83D9-A7F227575217";
shapes = (
{
closed = 1;
nodes = (
(110,376,ls),
(110,169,o),
(282,0,o),
(494,0,cs),
(523,0,l),
(552,-82,o),
(558,-103,o),
(558,-122,cs),
(558,-145,o),
(547,-153,o),
(518,-153,cs),
(501,-153,o),
(490,-152,o),
(408,-139,c),
(408,-287,l),
(496,-300,o),
(525,-303,o),
(558,-303,cs),
(662,-303,o),
(710,-262,o),
(710,-173,cs),
(710,-130,o),
(697,-74,o),
(671,0,c),
(1077,0,l),
(1077,211,l),
(494,211,ls),
(398,211,o),
(321,286,o),
(321,378,cs),
(321,659,ls),
(321,751,o),
(399,825,o),
(494,825,cs),
(1077,825,l),
(1077,1036,l),
(494,1036,ls),
(282,1036,o),
(110,868,o),
(110,662,cs)
);
}
);
width = 1187;
}
);
leftKerningGroup = at;
rightKerningGroup = c;
unicode = 231;
},
{
glyphname = egrave;
layers = (
{
hints = (
{
horizontal = 1;
place = (0,211);
type = Stem;
},
{
horizontal = 1;
place = (408,210);
type = Stem;
},
{
horizontal = 1;
place = (825,211);
type = Stem;
},
{
horizontal = 1;
place = (1158,422);
type = Stem;
},
{
place = (120,211);
type = Stem;
},
{
place = (398,312);
type = Stem;
},
{
place = (862,210);
type = Stem;
}
);
layerId = "AE110022-8FF3-4FF8-83D9-A7F227575217";
shapes = (
{
closed = 1;
nodes = (
(398,1492,l),
(596,1158,l),
(710,1211,l),
(581,1580,l)
);
},
{
closed = 1;
nodes = (
(120,292,ls),
(120,131,o),
(250,0,o),
(410,0,cs),
(999,0,l),
(999,211,l),
(410,211,ls),
(366,211,o),
(331,248,o),
(331,293,cs),
(331,825,l),
(775,825,ls),
(823,825,o),
(862,785,o),
(862,735,cs),
(862,707,ls),
(862,658,o),
(823,618,o),
(775,618,cs),
(451,618,l),
(451,408,l),
(773,408,ls),
(938,408,o),
(1072,542,o),
(1072,706,cs),
(1072,735,ls),
(1072,901,o),
(938,1036,o),
(773,1036,cs),
(341,1036,ls),
(219,1036,o),
(120,940,o),
(120,822,cs)
);
}
);
width = 1182;
}
);
leftKerningGroup = e2;
rightKerningGroup = e;
unicode = 232;
},
{
glyphname = eacute;
layers = (
{
hints = (
{
horizontal = 1;
place = (0,211);
type = Stem;
},
{
horizontal = 1;
place = (408,210);
type = Stem;
},
{
horizontal = 1;
place = (825,211);
type = Stem;
},
{
horizontal = 1;
place = (1158,422);
type = Stem;
},
{
place = (120,211);
type = Stem;
},
{
place = (482,312);
type = Stem;
},
{
place = (862,210);
type = Stem;
}
);
layerId = "AE110022-8FF3-4FF8-83D9-A7F227575217";
shapes = (
{
closed = 1;
nodes = (
(482,1211,l),
(596,1158,l),
(794,1492,l),
(611,1580,l)
);
},
{
closed = 1;
nodes = (
(120,292,ls),
(120,131,o),
(250,0,o),
(410,0,cs),
(999,0,l),
(999,211,l),
(410,211,ls),
(366,211,o),
(331,248,o),
(331,293,cs),
(331,825,l),
(775,825,ls),
(823,825,o),
(862,785,o),
(862,735,cs),
(862,707,ls),
(862,658,o),
(823,618,o),
(775,618,cs),
(451,618,l),
(451,408,l),
(773,408,ls),
(938,408,o),
(1072,542,o),
(1072,706,cs),
(1072,735,ls),
(1072,901,o),
(938,1036,o),
(773,1036,cs),
(341,1036,ls),
(219,1036,o),
(120,940,o),
(120,822,cs)
);
}
);
width = 1182;
}
);
leftKerningGroup = e2;
rightKerningGroup = e;
unicode = 233;
},
{
glyphname = ecircumflex;
layers = (
{
hints = (
{
horizontal = 1;
place = (0,211);
type = Stem;
},
{
horizontal = 1;
place = (408,210);
type = Stem;
},
{
horizontal = 1;
place = (825,211);
type = Stem;
},
{
horizontal = 1;
place = (1158,309);
type = Stem;
},
{
place = (120,211);
type = Stem;
},
{
place = (285,623);
type = Stem;
},
{
place = (862,210);
type = Stem;
}
);
layerId = "AE110022-8FF3-4FF8-83D9-A7F227575217";
shapes = (
{
closed = 1;
nodes = (
(285,1158,l),
(426,1158,l),
(596,1330,l),
(767,1158,l),
(908,1158,l),
(674,1467,l),
(519,1467,l)
);
},
{
closed = 1;
nodes = (
(120,292,ls),
(120,131,o),
(250,0,o),
(410,0,cs),
(999,0,l),
(999,211,l),
(410,211,ls),
(366,211,o),
(331,248,o),
(331,293,cs),
(331,825,l),
(775,825,ls),
(823,825,o),
(862,785,o),
(862,735,cs),
(862,707,ls),
(862,658,o),
(823,618,o),
(775,618,cs),
(451,618,l),
(451,408,l),
(773,408,ls),
(938,408,o),
(1072,542,o),
(1072,706,cs),
(1072,735,ls),
(1072,901,o),
(938,1036,o),
(773,1036,cs),
(341,1036,ls),
(219,1036,o),
(120,940,o),
(120,822,cs)
);
}
);
width = 1182;
}
);
leftKerningGroup = e2;
rightKerningGroup = e;
unicode = 234;
},
{
glyphname = edieresis;
layers = (
{
hints = (
{
horizontal = 1;
place = (0,211);
type = Stem;
},
{
horizontal = 1;
place = (408,210);
type = Stem;
},
{
horizontal = 1;
place = (825,211);
type = Stem;
},
{
horizontal = 1;
place = (1158,221);
type = Stem;
},
{
place = (120,211);
type = Stem;
},
{
place = (316,221);
type = Stem;
},
{
place = (656,221);
type = Stem;
},
{
place = (862,210);
type = Stem;
}
);
layerId = "AE110022-8FF3-4FF8-83D9-A7F227575217";
shapes = (
{
closed = 1;
nodes = (
(316,1207,o),
(365,1158,o),
(426,1158,cs),
(488,1158,o),
(537,1207,o),
(537,1268,cs),
(537,1330,o),
(488,1379,o),
(426,1379,cs),
(365,1379,o),
(316,1330,o),
(316,1268,cs)
);
},
{
closed = 1;
nodes = (
(656,1207,o),
(705,1158,o),
(766,1158,cs),
(828,1158,o),
(877,1207,o),
(877,1268,cs),
(877,1330,o),
(828,1379,o),
(766,1379,cs),
(705,1379,o),
(656,1330,o),
(656,1268,cs)
);
},
{
closed = 1;
nodes = (
(120,292,ls),
(120,131,o),
(250,0,o),
(410,0,cs),
(999,0,l),
(999,211,l),
(410,211,ls),
(366,211,o),
(331,248,o),
(331,293,cs),
(331,825,l),
(775,825,ls),
(823,825,o),
(862,785,o),
(862,735,cs),
(862,707,ls),
(862,658,o),
(823,618,o),
(775,618,cs),
(451,618,l),
(451,408,l),
(773,408,ls),
(938,408,o),
(1072,542,o),
(1072,706,cs),
(1072,735,ls),
(1072,901,o),
(938,1036,o),
(773,1036,cs),
(341,1036,ls),
(219,1036,o),
(120,940,o),
(120,822,cs)
);
}
);
width = 1182;
}
);
leftKerningGroup = e2;
rightKerningGroup = e;
unicode = 235;
},
{
glyphname = igrave;
layers = (
{
hints = (
{
horizontal = 1;
place = (0,21);
target = up;
type = BottomGhost;
},
{
horizontal = 1;
place = (1036,-20);
target = down;
type = TopGhost;
},
{
horizontal = 1;
place = (1158,422);
type = Stem;
},
{
place = (35,312);
type = Stem;
},
{
place = (127,211);
type = Stem;
}
);
layerId = "AE110022-8FF3-4FF8-83D9-A7F227575217";
shapes = (
{
closed = 1;
nodes = (
(35,1492,l),
(233,1158,l),
(347,1211,l),
(218,1580,l)
);
},
{
closed = 1;
nodes = (
(127,0,l),
(338,0,l),
(338,1036,l),
(127,1036,l)
);
}
);
width = 465;
}
);
leftKerningGroup = at;
unicode = 236;
},
{
glyphname = iacute;
layers = (
{
hints = (
{
horizontal = 1;
place = (0,21);
target = up;
type = BottomGhost;
},
{
horizontal = 1;
place = (1036,-20);
target = down;
type = TopGhost;
},
{
horizontal = 1;
place = (1158,422);
type = Stem;
},
{
place = (119,312);
type = Stem;
},
{
place = (127,211);
type = Stem;
}
);
layerId = "AE110022-8FF3-4FF8-83D9-A7F227575217";
shapes = (
{
closed = 1;
nodes = (
(119,1211,l),
(233,1158,l),
(431,1492,l),
(248,1580,l)
);
},
{
closed = 1;
nodes = (
(127,0,l),
(338,0,l),
(338,1036,l),
(127,1036,l)
);
}
);
width = 465;
}
);
leftKerningGroup = at;
unicode = 237;
},
{
glyphname = icircumflex;
layers = (
{
hints = (
{
horizontal = 1;
place = (0,21);
target = up;
type = BottomGhost;
},
{
horizontal = 1;
place = (1036,-20);
target = down;
type = TopGhost;
},
{
horizontal = 1;
place = (1158,309);
type = Stem;
},
{
place = (-79,623);
type = Stem;
},
{
place = (127,211);
type = Stem;
}
);
layerId = "AE110022-8FF3-4FF8-83D9-A7F227575217";
shapes = (
{
closed = 1;
nodes = (
(-79,1158,l),
(62,1158,l),
(232,1330,l),
(403,1158,l),
(544,1158,l),
(310,1467,l),
(155,1467,l)
);
},
{
closed = 1;
nodes = (
(127,0,l),
(338,0,l),
(338,1036,l),
(127,1036,l)
);
}
);
width = 465;
}
);
leftKerningGroup = at;
unicode = 238;
},
{
glyphname = idieresis;
layers = (
{
hints = (
{
horizontal = 1;
place = (0,21);
target = up;
type = BottomGhost;
},
{
horizontal = 1;
place = (1036,-20);
target = down;
type = TopGhost;
},
{
horizontal = 1;
place = (1158,221);
type = Stem;
},
{
place = (-48,221);
type = Stem;
},
{
place = (127,211);
type = Stem;
},
{
place = (292,221);
type = Stem;
}
);
layerId = "AE110022-8FF3-4FF8-83D9-A7F227575217";
shapes = (
{
closed = 1;
nodes = (
(-48,1207,o),
(1,1158,o),
(62,1158,cs),
(124,1158,o),
(173,1207,o),
(173,1268,cs),
(173,1330,o),
(124,1379,o),
(62,1379,cs),
(1,1379,o),
(-48,1330,o),
(-48,1268,cs)
);
},
{
closed = 1;
nodes = (
(292,1207,o),
(341,1158,o),
(402,1158,cs),
(464,1158,o),
(513,1207,o),
(513,1268,cs),
(513,1330,o),
(464,1379,o),
(402,1379,cs),
(341,1379,o),
(292,1330,o),
(292,1268,cs)
);
},
{
closed = 1;
nodes = (
(127,0,l),
(338,0,l),
(338,1036,l),
(127,1036,l)
);
}
);
width = 465;
}
);
leftKerningGroup = at;
unicode = 239;
},
{
glyphname = eth;
layers = (
{
hints = (
{
horizontal = 1;
place = (0,211);
type = Stem;
},
{
horizontal = 1;
place = (825,211);
type = Stem;
},
{
horizontal = 1;
place = (1217,206);
type = Stem;
},
{
place = (110,211);
type = Stem;
},
{
place = (851,211);
type = Stem;
}
);
layerId = "AE110022-8FF3-4FF8-83D9-A7F227575217";
shapes = (
{
closed = 1;
nodes = (
(110,372,ls),
(110,167,o),
(278,0,o),
(484,0,cs),
(851,0,ls),
(967,0,o),
(1062,95,o),
(1062,211,cs),
(1062,1049,ls),
(1062,1091,o),
(1056,1131,o),
(1044,1165,c),
(1256,1288,l),
(1182,1415,l),
(971,1293,l),
(899,1376,o),
(797,1423,o),
(688,1423,cs),
(321,1423,l),
(321,1217,l),
(690,1217,ls),
(779,1217,o),
(851,1142,o),
(851,1050,cs),
(851,211,l),
(484,211,ls),
(394,211,o),
(321,284,o),
(321,374,cs),
(321,660,ls),
(321,751,o),
(394,825,o),
(484,825,cs),
(731,825,l),
(731,1036,l),
(484,1036,ls),
(278,1036,o),
(110,868,o),
(110,662,cs)
);
}
);
width = 1266;
}
);
leftKerningGroup = at;
unicode = 240;
},
{
glyphname = ntilde;
layers = (
{
hints = (
{
horizontal = 1;
place = (0,21);
target = up;
type = BottomGhost;
},
{
horizontal = 1;
place = (827,209);
type = Stem;
},
{
horizontal = 1;
place = (1158,154);
type = Stem;
},
{
horizontal = 1;
place = (1239,148);
type = Stem;
},
{
place = (120,211);
type = Stem;
},
{
place = (267,155);
type = Stem;
},
{
place = (768,157);
type = Stem;
},
{
place = (861,211);
type = Stem;
}
);
layerId = "AE110022-8FF3-4FF8-83D9-A7F227575217";
shapes = (
{
closed = 1;
nodes = (
(422,1166,l),
(422,1216,o),
(436,1239,o),
(467,1239,cs),
(498,1239,o),
(525,1230,o),
(600,1198,cs),
(670,1168,o),
(702,1158,o),
(733,1158,cs),
(840,1158,o),
(925,1258,o),
(925,1382,c),
(768,1382,l),
(768,1334,o),
(754,1312,o),
(723,1312,cs),
(692,1312,o),
(665,1320,o),
(592,1350,cs),
(524,1378,o),
(492,1387,o),
(461,1387,cs),
(349,1387,o),
(268,1294,o),
(267,1166,c)
);
},
{
closed = 1;
nodes = (
(120,0,l),
(331,0,l),
(331,827,l),
(698,827,ls),
(788,827,o),
(861,752,o),
(861,659,cs),
(861,0,l),
(1072,0,l),
(1072,662,ls),
(1072,868,o),
(904,1036,o),
(698,1036,cs),
(333,1036,ls),
(215,1036,o),
(120,942,o),
(120,826,cs)
);
}
);
width = 1192;
}
);
leftKerningGroup = m;
rightKerningGroup = g;
unicode = 241;
},
{
glyphname = ograve;
layers = (
{
hints = (
{
horizontal = 1;
place = (0,211);
type = Stem;
},
{
horizontal = 1;
place = (825,211);
type = Stem;
},
{
horizontal = 1;
place = (1158,422);
type = Stem;
},
{
place = (110,211);
type = Stem;
},
{
place = (399,312);
type = Stem;
},
{
place = (873,211);
type = Stem;
}
);
layerId = "AE110022-8FF3-4FF8-83D9-A7F227575217";
shapes = (
{
closed = 1;
nodes = (
(321,660,ls),
(321,751,o),
(394,825,o),
(484,825,cs),
(710,825,ls),
(800,825,o),
(873,751,o),
(873,660,cs),
(873,376,ls),
(873,285,o),
(800,211,o),
(710,211,cs),
(484,211,ls),
(394,211,o),
(321,285,o),
(321,376,cs)
);
},
{
closed = 1;
nodes = (
(110,374,ls),
(110,168,o),
(278,0,o),
(484,0,cs),
(710,0,ls),
(916,0,o),
(1084,168,o),
(1084,374,cs),
(1084,662,ls),
(1084,868,o),
(916,1036,o),
(710,1036,cs),
(484,1036,ls),
(278,1036,o),
(110,868,o),
(110,662,cs)
);
},
{
closed = 1;
nodes = (
(597,1158,l),
(711,1211,l),
(582,1580,l),
(399,1492,l)
);
}
);
width = 1194;
}
);
leftKerningGroup = c2;
rightKerningGroup = o;
unicode = 242;
},
{
glyphname = oacute;
layers = (
{
hints = (
{
horizontal = 1;
place = (0,211);
type = Stem;
},
{
horizontal = 1;
place = (825,211);
type = Stem;
},
{
horizontal = 1;
place = (1158,422);
type = Stem;
},
{
place = (110,211);
type = Stem;
},
{
place = (483,312);
type = Stem;
},
{
place = (873,211);
type = Stem;
}
);
layerId = "AE110022-8FF3-4FF8-83D9-A7F227575217";
shapes = (
{
closed = 1;
nodes = (
(321,660,ls),
(321,751,o),
(394,825,o),
(484,825,cs),
(710,825,ls),
(800,825,o),
(873,751,o),
(873,660,cs),
(873,376,ls),
(873,285,o),
(800,211,o),
(710,211,cs),
(484,211,ls),
(394,211,o),
(321,285,o),
(321,376,cs)
);
},
{
closed = 1;
nodes = (
(110,374,ls),
(110,168,o),
(278,0,o),
(484,0,cs),
(710,0,ls),
(916,0,o),
(1084,168,o),
(1084,374,cs),
(1084,662,ls),
(1084,868,o),
(916,1036,o),
(710,1036,cs),
(484,1036,ls),
(278,1036,o),
(110,868,o),
(110,662,cs)
);
},
{
closed = 1;
nodes = (
(597,1158,l),
(795,1492,l),
(612,1580,l),
(483,1211,l)
);
}
);
width = 1194;
}
);
leftKerningGroup = c2;
rightKerningGroup = o;
unicode = 243;
},
{
glyphname = ocircumflex;
layers = (
{
hints = (
{
horizontal = 1;
place = (0,211);
type = Stem;
},
{
horizontal = 1;
place = (825,211);
type = Stem;
},
{
horizontal = 1;
place = (1158,309);
type = Stem;
},
{
place = (110,211);
type = Stem;
},
{
place = (286,623);
type = Stem;
},
{
place = (873,211);
type = Stem;
}
);
layerId = "AE110022-8FF3-4FF8-83D9-A7F227575217";
shapes = (
{
closed = 1;
nodes = (
(321,660,ls),
(321,751,o),
(394,825,o),
(484,825,cs),
(710,825,ls),
(800,825,o),
(873,751,o),
(873,660,cs),
(873,376,ls),
(873,285,o),
(800,211,o),
(710,211,cs),
(484,211,ls),
(394,211,o),
(321,285,o),
(321,376,cs)
);
},
{
closed = 1;
nodes = (
(110,374,ls),
(110,168,o),
(278,0,o),
(484,0,cs),
(710,0,ls),
(916,0,o),
(1084,168,o),
(1084,374,cs),
(1084,662,ls),
(1084,868,o),
(916,1036,o),
(710,1036,cs),
(484,1036,ls),
(278,1036,o),
(110,868,o),
(110,662,cs)
);
},
{
closed = 1;
nodes = (
(427,1158,l),
(597,1330,l),
(768,1158,l),
(909,1158,l),
(675,1467,l),
(520,1467,l),
(286,1158,l)
);
}
);
width = 1194;
}
);
leftKerningGroup = c2;
rightKerningGroup = o;
unicode = 244;
},
{
glyphname = otilde;
layers = (
{
hints = (
{
horizontal = 1;
place = (0,211);
type = Stem;
},
{
horizontal = 1;
place = (825,211);
type = Stem;
},
{
horizontal = 1;
place = (1158,154);
type = Stem;
},
{
horizontal = 1;
place = (1239,148);
type = Stem;
},
{
place = (110,211);
type = Stem;
},
{
place = (268,155);
type = Stem;
},
{
place = (769,157);
type = Stem;
},
{
place = (873,211);
type = Stem;
}
);
layerId = "AE110022-8FF3-4FF8-83D9-A7F227575217";
shapes = (
{
closed = 1;
nodes = (
(321,660,ls),
(321,751,o),
(394,825,o),
(484,825,cs),
(710,825,ls),
(800,825,o),
(873,751,o),
(873,660,cs),
(873,376,ls),
(873,285,o),
(800,211,o),
(710,211,cs),
(484,211,ls),
(394,211,o),
(321,285,o),
(321,376,cs)
);
},
{
closed = 1;
nodes = (
(110,374,ls),
(110,168,o),
(278,0,o),
(484,0,cs),
(710,0,ls),
(916,0,o),
(1084,168,o),
(1084,374,cs),
(1084,662,ls),
(1084,868,o),
(916,1036,o),
(710,1036,cs),
(484,1036,ls),
(278,1036,o),
(110,868,o),
(110,662,cs)
);
},
{
closed = 1;
nodes = (
(423,1166,l),
(423,1216,o),
(437,1239,o),
(468,1239,cs),
(499,1239,o),
(526,1230,o),
(601,1198,cs),
(671,1168,o),
(703,1158,o),
(734,1158,cs),
(841,1158,o),
(926,1258,o),
(926,1382,c),
(769,1382,l),
(769,1334,o),
(755,1312,o),
(724,1312,cs),
(693,1312,o),
(666,1320,o),
(593,1350,cs),
(525,1378,o),
(493,1387,o),
(462,1387,cs),
(350,1387,o),
(269,1294,o),
(268,1166,c)
);
}
);
width = 1194;
}
);
leftKerningGroup = c2;
rightKerningGroup = o;
unicode = 245;
},
{
glyphname = odieresis;
layers = (
{
hints = (
{
horizontal = 1;
place = (0,211);
type = Stem;
},
{
horizontal = 1;
place = (825,211);
type = Stem;
},
{
horizontal = 1;
place = (1158,221);
type = Stem;
},
{
place = (110,211);
type = Stem;
},
{
place = (317,221);
type = Stem;
},
{
place = (657,221);
type = Stem;
},
{
place = (873,211);
type = Stem;
}
);
layerId = "AE110022-8FF3-4FF8-83D9-A7F227575217";
shapes = (
{
closed = 1;
nodes = (
(321,660,ls),
(321,751,o),
(394,825,o),
(484,825,cs),
(710,825,ls),
(800,825,o),
(873,751,o),
(873,660,cs),
(873,376,ls),
(873,285,o),
(800,211,o),
(710,211,cs),
(484,211,ls),
(394,211,o),
(321,285,o),
(321,376,cs)
);
},
{
closed = 1;
nodes = (
(110,374,ls),
(110,168,o),
(278,0,o),
(484,0,cs),
(710,0,ls),
(916,0,o),
(1084,168,o),
(1084,374,cs),
(1084,662,ls),
(1084,868,o),
(916,1036,o),
(710,1036,cs),
(484,1036,ls),
(278,1036,o),
(110,868,o),
(110,662,cs)
);
},
{
closed = 1;
nodes = (
(317,1207,o),
(366,1158,o),
(427,1158,cs),
(489,1158,o),
(538,1207,o),
(538,1268,cs),
(538,1330,o),
(489,1379,o),
(427,1379,cs),
(366,1379,o),
(317,1330,o),
(317,1268,cs)
);
},
{
closed = 1;
nodes = (
(657,1207,o),
(706,1158,o),
(767,1158,cs),
(829,1158,o),
(878,1207,o),
(878,1268,cs),
(878,1330,o),
(829,1379,o),
(767,1379,cs),
(706,1379,o),
(657,1330,o),
(657,1268,cs)
);
}
);
width = 1194;
}
);
leftKerningGroup = c2;
rightKerningGroup = o;
unicode = 246;
},
{
glyphname = divide;
layers = (
{
hints = (
{
horizontal = 1;
place = (144,220);
type = Stem;
},
{
horizontal = 1;
place = (464,178);
type = Stem;
},
{
horizontal = 1;
place = (742,222);
type = Stem;
},
{
place = (508,221);
type = Stem;
}
);
layerId = "AE110022-8FF3-4FF8-83D9-A7F227575217";
shapes = (
{
closed = 1;
nodes = (
(120,464,l),
(1117,464,l),
(1117,642,l),
(120,642,l)
);
},
{
closed = 1;
nodes = (
(508,193,o),
(557,144,o),
(618,144,cs),
(680,144,o),
(729,193,o),
(729,254,cs),
(729,315,o),
(680,364,o),
(618,364,cs),
(557,364,o),
(508,315,o),
(508,254,cs)
);
},
{
closed = 1;
nodes = (
(508,792,o),
(557,742,o),
(618,742,cs),
(680,742,o),
(729,791,o),
(729,853,cs),
(729,915,o),
(680,964,o),
(618,964,cs),
(557,964,o),
(508,914,o),
(508,853,cs)
);
}
);
width = 1237;
}
);
leftKerningGroup = at;
unicode = 247;
},
{
glyphname = oslash;
layers = (
{
hints = (
{
horizontal = 1;
place = (0,211);
type = Stem;
},
{
horizontal = 1;
place = (825,211);
type = Stem;
},
{
place = (110,211);
type = Stem;
},
{
place = (873,211);
type = Stem;
}
);
layerId = "AE110022-8FF3-4FF8-83D9-A7F227575217";
shapes = (
{
closed = 1;
nodes = (
(321,660,ls),
(321,751,o),
(394,825,o),
(484,825,cs),
(691,825,l),
(333,314,l),
(325,333,o),
(321,354,o),
(321,376,cs)
);
},
{
closed = 1;
nodes = (
(857,732,l),
(868,710,o),
(873,686,o),
(873,660,cs),
(873,376,ls),
(873,285,o),
(800,211,o),
(710,211,cs),
(492,211,l)
);
},
{
closed = 1;
nodes = (
(110,374,ls),
(110,284,o),
(143,197,o),
(203,128,c),
(111,-3,l),
(266,-111,l),
(359,21,l),
(398,7,o),
(440,0,o),
(484,0,cs),
(710,0,ls),
(916,0,o),
(1084,168,o),
(1084,374,cs),
(1084,662,ls),
(1084,755,o),
(1049,845,o),
(985,915,c),
(1072,1039,l),
(917,1148,l),
(826,1018,l),
(792,1030,o),
(752,1036,o),
(710,1036,cs),
(484,1036,ls),
(278,1036,o),
(110,868,o),
(110,662,cs)
);
}
);
width = 1194;
}
);
leftKerningGroup = c2;
unicode = 248;
},
{
glyphname = ugrave;
layers = (
{
hints = (
{
horizontal = 1;
place = (0,209);
type = Stem;
},
{
horizontal = 1;
place = (1036,-20);
target = down;
type = TopGhost;
},
{
horizontal = 1;
place = (1158,422);
type = Stem;
},
{
place = (120,211);
type = Stem;
},
{
place = (398,312);
type = Stem;
},
{
place = (861,211);
type = Stem;
}
);
layerId = "AE110022-8FF3-4FF8-83D9-A7F227575217";
shapes = (
{
closed = 1;
nodes = (
(398,1492,l),
(596,1158,l),
(710,1211,l),
(581,1580,l)
);
},
{
closed = 1;
nodes = (
(120,374,ls),
(120,168,o),
(288,0,o),
(494,0,cs),
(859,0,ls),
(977,0,o),
(1072,94,o),
(1072,210,cs),
(1072,1036,l),
(861,1036,l),
(861,209,l),
(494,209,ls),
(404,209,o),
(331,284,o),
(331,377,cs),
(331,1036,l),
(120,1036,l)
);
}
);
width = 1192;
}
);
leftKerningGroup = S;
rightKerningGroup = g;
unicode = 249;
},
{
glyphname = uacute;
layers = (
{
hints = (
{
horizontal = 1;
place = (0,209);
type = Stem;
},
{
horizontal = 1;
place = (1036,-20);
target = down;
type = TopGhost;
},
{
horizontal = 1;
place = (1158,422);
type = Stem;
},
{
place = (120,211);
type = Stem;
},
{
place = (482,312);
type = Stem;
},
{
place = (861,211);
type = Stem;
}
);
layerId = "AE110022-8FF3-4FF8-83D9-A7F227575217";
shapes = (
{
closed = 1;
nodes = (
(482,1211,l),
(596,1158,l),
(794,1492,l),
(611,1580,l)
);
},
{
closed = 1;
nodes = (
(120,374,ls),
(120,168,o),
(288,0,o),
(494,0,cs),
(859,0,ls),
(977,0,o),
(1072,94,o),
(1072,210,cs),
(1072,1036,l),
(861,1036,l),
(861,209,l),
(494,209,ls),
(404,209,o),
(331,284,o),
(331,377,cs),
(331,1036,l),
(120,1036,l)
);
}
);
width = 1192;
}
);
leftKerningGroup = S;
rightKerningGroup = g;
unicode = 250;
},
{
glyphname = ucircumflex;
layers = (
{
hints = (
{
horizontal = 1;
place = (0,209);
type = Stem;
},
{
horizontal = 1;
place = (1036,-20);
target = down;
type = TopGhost;
},
{
horizontal = 1;
place = (1158,309);
type = Stem;
},
{
place = (120,211);
type = Stem;
},
{
place = (285,623);
type = Stem;
},
{
place = (861,211);
type = Stem;
}
);
layerId = "AE110022-8FF3-4FF8-83D9-A7F227575217";
shapes = (
{
closed = 1;
nodes = (
(285,1158,l),
(426,1158,l),
(596,1330,l),
(767,1158,l),
(908,1158,l),
(674,1467,l),
(519,1467,l)
);
},
{
closed = 1;
nodes = (
(120,374,ls),
(120,168,o),
(288,0,o),
(494,0,cs),
(859,0,ls),
(977,0,o),
(1072,94,o),
(1072,210,cs),
(1072,1036,l),
(861,1036,l),
(861,209,l),
(494,209,ls),
(404,209,o),
(331,284,o),
(331,377,cs),
(331,1036,l),
(120,1036,l)
);
}
);
width = 1192;
}
);
leftKerningGroup = S;
rightKerningGroup = g;
unicode = 251;
},
{
glyphname = udieresis;
layers = (
{
hints = (
{
horizontal = 1;
place = (0,209);
type = Stem;
},
{
horizontal = 1;
place = (1036,-20);
target = down;
type = TopGhost;
},
{
horizontal = 1;
place = (1158,221);
type = Stem;
},
{
place = (120,211);
type = Stem;
},
{
place = (316,221);
type = Stem;
},
{
place = (656,221);
type = Stem;
},
{
place = (861,211);
type = Stem;
}
);
layerId = "AE110022-8FF3-4FF8-83D9-A7F227575217";
shapes = (
{
closed = 1;
nodes = (
(316,1207,o),
(365,1158,o),
(426,1158,cs),
(488,1158,o),
(537,1207,o),
(537,1268,cs),
(537,1330,o),
(488,1379,o),
(426,1379,cs),
(365,1379,o),
(316,1330,o),
(316,1268,cs)
);
},
{
closed = 1;
nodes = (
(656,1207,o),
(705,1158,o),
(766,1158,cs),
(828,1158,o),
(877,1207,o),
(877,1268,cs),
(877,1330,o),
(828,1379,o),
(766,1379,cs),
(705,1379,o),
(656,1330,o),
(656,1268,cs)
);
},
{
closed = 1;
nodes = (
(120,374,ls),
(120,168,o),
(288,0,o),
(494,0,cs),
(859,0,ls),
(977,0,o),
(1072,94,o),
(1072,210,cs),
(1072,1036,l),
(861,1036,l),
(861,209,l),
(494,209,ls),
(404,209,o),
(331,284,o),
(331,377,cs),
(331,1036,l),
(120,1036,l)
);
}
);
width = 1192;
}
);
leftKerningGroup = S;
rightKerningGroup = g;
unicode = 252;
},
{
glyphname = yacute;
layers = (
{
hints = (
{
horizontal = 1;
place = (-390,21);
target = up;
type = BottomGhost;
},
{
horizontal = 1;
place = (1036,-20);
target = down;
type = TopGhost;
},
{
horizontal = 1;
place = (1158,422);
type = Stem;
},
{
place = (447,312);
type = Stem;
}
);
layerId = "AE110022-8FF3-4FF8-83D9-A7F227575217";
shapes = (
{
closed = 1;
nodes = (
(447,1211,l),
(561,1158,l),
(759,1492,l),
(576,1580,l)
);
},
{
closed = 1;
nodes = (
(60,1036,l),
(441,34,l),
(280,-390,l),
(511,-390,l),
(1061,1036,l),
(828,1036,l),
(553,318,l),
(284,1036,l)
);
}
);
width = 1121;
}
);
leftKerningGroup = at;
unicode = 253;
},
{
glyphname = thorn;
layers = (
{
hints = (
{
horizontal = 1;
place = (-390,21);
target = up;
type = BottomGhost;
},
{
horizontal = 1;
place = (0,211);
type = Stem;
},
{
horizontal = 1;
place = (825,211);
type = Stem;
},
{
horizontal = 1;
place = (1422,-20);
target = down;
type = TopGhost;
},
{
place = (140,211);
type = Stem;
},
{
place = (903,211);
type = Stem;
}
);
layerId = "AE110022-8FF3-4FF8-83D9-A7F227575217";
shapes = (
{
closed = 1;
nodes = (
(351,660,ls),
(351,751,o),
(424,825,o),
(514,825,cs),
(740,825,ls),
(830,825,o),
(903,751,o),
(903,660,cs),
(903,376,ls),
(903,285,o),
(830,211,o),
(740,211,cs),
(514,211,ls),
(424,211,o),
(351,285,o),
(351,376,cs)
);
},
{
closed = 1;
nodes = (
(351,-390,l),
(351,37,l),
(400,12,o),
(455,0,o),
(514,0,cs),
(740,0,ls),
(946,0,o),
(1114,168,o),
(1114,374,cs),
(1114,662,ls),
(1114,868,o),
(946,1036,o),
(740,1036,cs),
(514,1036,ls),
(455,1036,o),
(400,1024,o),
(351,999,c),
(351,1422,l),
(140,1422,l),
(140,-390,l)
);
}
);
width = 1224;
}
);
leftKerningGroup = at;
unicode = 254;
},
{
glyphname = ydieresis;
layers = (
{
hints = (
{
horizontal = 1;
place = (-390,21);
target = up;
type = BottomGhost;
},
{
horizontal = 1;
place = (1036,-20);
target = down;
type = TopGhost;
},
{
horizontal = 1;
place = (1158,221);
type = Stem;
},
{
place = (280,221);
type = Stem;
},
{
place = (620,221);
type = Stem;
}
);
layerId = "AE110022-8FF3-4FF8-83D9-A7F227575217";
shapes = (
{
closed = 1;
nodes = (
(280,1207,o),
(329,1158,o),
(390,1158,cs),
(452,1158,o),
(501,1207,o),
(501,1268,cs),
(501,1330,o),
(452,1379,o),
(390,1379,cs),
(329,1379,o),
(280,1330,o),
(280,1268,cs)
);
},
{
closed = 1;
nodes = (
(620,1207,o),
(669,1158,o),
(730,1158,cs),
(792,1158,o),
(841,1207,o),
(841,1268,cs),
(841,1330,o),
(792,1379,o),
(730,1379,cs),
(669,1379,o),
(620,1330,o),
(620,1268,cs)
);
},
{
closed = 1;
nodes = (
(60,1036,l),
(441,34,l),
(280,-390,l),
(511,-390,l),
(1061,1036,l),
(828,1036,l),
(553,318,l),
(284,1036,l)
);
}
);
width = 1121;
}
);
leftKerningGroup = at;
unicode = 255;
},
{
glyphname = Amacron;
layers = (
{
hints = (
{
horizontal = 1;
place = (0,21);
target = up;
type = BottomGhost;
},
{
horizontal = 1;
place = (428,210);
type = Stem;
},
{
horizontal = 1;
place = (1422,-20);
target = down;
type = TopGhost;
},
{
horizontal = 1;
place = (1544,147);
type = Stem;
},
{
place = (382,597);
type = Stem;
}
);
layerId = "AE110022-8FF3-4FF8-83D9-A7F227575217";
shapes = (
{
closed = 1;
nodes = (
(382,1544,l),
(979,1544,l),
(979,1691,l),
(382,1691,l)
);
},
{
closed = 1;
nodes = (
(40,0,l),
(265,0,l),
(681,1146,l),
(865,638,l),
(620,638,l),
(544,428,l),
(941,428,l),
(1096,0,l),
(1321,0,l),
(812,1422,l),
(549,1422,l)
);
}
);
width = 1361;
}
);
leftKerningGroup = A2;
rightKerningGroup = A;
unicode = 256;
},
{
glyphname = amacron;
layers = (
{
hints = (
{
horizontal = 1;
place = (0,211);
type = Stem;
},
{
horizontal = 1;
place = (825,211);
type = Stem;
},
{
horizontal = 1;
place = (1158,147);
type = Stem;
},
{
place = (110,211);
type = Stem;
},
{
place = (288,597);
type = Stem;
},
{
place = (851,211);
type = Stem;
}
);
layerId = "AE110022-8FF3-4FF8-83D9-A7F227575217";
shapes = (
{
closed = 1;
nodes = (
(288,1158,l),
(885,1158,l),
(885,1305,l),
(288,1305,l)
);
},
{
closed = 1;
nodes = (
(110,374,ls),
(110,168,o),
(278,0,o),
(484,0,cs),
(731,0,l),
(731,211,l),
(484,211,ls),
(394,211,o),
(321,285,o),
(321,376,cs),
(321,662,ls),
(321,752,o),
(394,825,o),
(484,825,cs),
(851,825,l),
(851,0,l),
(1062,0,l),
(1062,1036,l),
(484,1036,ls),
(278,1036,o),
(110,869,o),
(110,664,cs)
);
}
);
width = 1182;
}
);
leftKerningGroup = a2;
rightKerningGroup = a;
unicode = 257;
},
{
glyphname = Abreve;
layers = (
{
hints = (
{
horizontal = 1;
place = (0,21);
target = up;
type = BottomGhost;
},
{
horizontal = 1;
place = (428,210);
type = Stem;
},
{
horizontal = 1;
place = (1422,-20);
target = down;
type = TopGhost;
},
{
horizontal = 1;
place = (1544,134);
type = Stem;
},
{
place = (383,134);
type = Stem;
},
{
place = (845,134);
type = Stem;
}
);
layerId = "AE110022-8FF3-4FF8-83D9-A7F227575217";
shapes = (
{
closed = 1;
nodes = (
(383,1842,l),
(383,1678,o),
(517,1544,o),
(681,1544,cs),
(845,1544,o),
(979,1678,o),
(979,1842,c),
(845,1842,l),
(845,1752,o),
(771,1678,o),
(681,1678,cs),
(591,1678,o),
(517,1752,o),
(517,1842,c)
);
},
{
closed = 1;
nodes = (
(40,0,l),
(265,0,l),
(681,1146,l),
(865,638,l),
(620,638,l),
(544,428,l),
(941,428,l),
(1096,0,l),
(1321,0,l),
(812,1422,l),
(549,1422,l)
);
}
);
width = 1361;
}
);
leftKerningGroup = A2;
rightKerningGroup = A;
unicode = 258;
},
{
glyphname = abreve;
layers = (
{
hints = (
{
horizontal = 1;
place = (0,211);
type = Stem;
},
{
horizontal = 1;
place = (825,211);
type = Stem;
},
{
horizontal = 1;
place = (1158,134);
type = Stem;
},
{
place = (110,211);
type = Stem;
},
{
place = (288,134);
type = Stem;
},
{
place = (750,134);
type = Stem;
},
{
place = (851,211);
type = Stem;
}
);
layerId = "AE110022-8FF3-4FF8-83D9-A7F227575217";
shapes = (
{
closed = 1;
nodes = (
(288,1456,l),
(288,1292,o),
(422,1158,o),
(586,1158,cs),
(750,1158,o),
(884,1292,o),
(884,1456,c),
(750,1456,l),
(750,1366,o),
(676,1292,o),
(586,1292,cs),
(496,1292,o),
(422,1366,o),
(422,1456,c)
);
},
{
closed = 1;
nodes = (
(110,374,ls),
(110,168,o),
(278,0,o),
(484,0,cs),
(731,0,l),
(731,211,l),
(484,211,ls),
(394,211,o),
(321,285,o),
(321,376,cs),
(321,662,ls),
(321,752,o),
(394,825,o),
(484,825,cs),
(851,825,l),
(851,0,l),
(1062,0,l),
(1062,1036,l),
(484,1036,ls),
(278,1036,o),
(110,869,o),
(110,664,cs)
);
}
);
width = 1182;
}
);
leftKerningGroup = a2;
unicode = 259;
},
{
glyphname = Aogonek;
layers = (
{
hints = (
{
horizontal = 1;
place = (-303,150);
type = Stem;
},
{
horizontal = 1;
place = (0,21);
target = up;
type = BottomGhost;
},
{
horizontal = 1;
place = (428,210);
type = Stem;
},
{
horizontal = 1;
place = (1422,-20);
target = down;
type = TopGhost;
},
{
place = (1096,151);
type = Stem;
}
);
layerId = "AE110022-8FF3-4FF8-83D9-A7F227575217";
shapes = (
{
closed = 1;
nodes = (
(40,0,l),
(265,0,l),
(681,1146,l),
(865,638,l),
(620,638,l),
(544,428,l),
(941,428,l),
(1096,0,l),
(1135,0,l),
(1109,-74,o),
(1096,-130,o),
(1096,-173,cs),
(1096,-262,o),
(1144,-303,o),
(1248,-303,cs),
(1281,-303,o),
(1310,-300,o),
(1398,-287,c),
(1398,-139,l),
(1316,-152,o),
(1305,-153,o),
(1288,-153,cs),
(1258,-153,o),
(1247,-144,o),
(1247,-122,cs),
(1247,-104,o),
(1252,-89,o),
(1283,0,c),
(1321,0,l),
(812,1422,l),
(549,1422,l)
);
}
);
width = 1361;
}
);
leftKerningGroup = A2;
rightKerningGroup = A;
unicode = 260;
},
{
glyphname = aogonek;
layers = (
{
hints = (
{
horizontal = 1;
place = (-303,150);
type = Stem;
},
{
horizontal = 1;
place = (0,211);
type = Stem;
},
{
horizontal = 1;
place = (825,211);
type = Stem;
},
{
place = (110,211);
type = Stem;
},
{
place = (844,151);
type = Stem;
},
{
place = (851,211);
type = Stem;
}
);
layerId = "AE110022-8FF3-4FF8-83D9-A7F227575217";
shapes = (
{
closed = 1;
nodes = (
(110,374,ls),
(110,168,o),
(278,0,o),
(484,0,cs),
(731,0,l),
(731,211,l),
(484,211,ls),
(394,211,o),
(321,285,o),
(321,376,cs),
(321,662,ls),
(321,752,o),
(394,825,o),
(484,825,cs),
(851,825,l),
(851,0,l),
(882,0,l),
(857,-71,o),
(844,-129,o),
(844,-173,cs),
(844,-262,o),
(892,-303,o),
(996,-303,cs),
(1029,-303,o),
(1058,-300,o),
(1146,-287,c),
(1146,-139,l),
(1064,-152,o),
(1053,-153,o),
(1036,-153,cs),
(1006,-153,o),
(995,-144,o),
(995,-122,cs),
(995,-103,o),
(1001,-82,o),
(1030,0,c),
(1062,0,l),
(1062,1036,l),
(484,1036,ls),
(278,1036,o),
(110,869,o),
(110,664,cs)
);
}
);
width = 1182;
}
);
leftKerningGroup = a2;
rightKerningGroup = a;
unicode = 261;
},
{
glyphname = Cacute;
layers = (
{
hints = (
{
horizontal = 1;
place = (0,211);
type = Stem;
},
{
horizontal = 1;
place = (1212,210);
type = Stem;
},
{
horizontal = 1;
place = (1544,422);
type = Stem;
},
{
place = (120,211);
type = Stem;
},
{
place = (510,312);
type = Stem;
}
);
layerId = "AE110022-8FF3-4FF8-83D9-A7F227575217";
shapes = (
{
closed = 1;
nodes = (
(510,1597,l),
(624,1544,l),
(822,1878,l),
(639,1966,l)
);
},
{
closed = 1;
nodes = (
(120,393,ls),
(120,176,o),
(302,0,o),
(526,0,cs),
(1271,0,l),
(1271,211,l),
(526,211,ls),
(418,211,o),
(331,294,o),
(331,396,cs),
(331,1022,ls),
(331,1127,o),
(418,1212,o),
(526,1212,cs),
(1271,1212,l),
(1271,1422,l),
(526,1422,ls),
(302,1422,o),
(120,1243,o),
(120,1022,cs)
);
}
);
width = 1381;
}
);
leftKerningGroup = at;
rightKerningGroup = C;
unicode = 262;
},
{
glyphname = cacute;
layers = (
{
hints = (
{
horizontal = 1;
place = (0,211);
type = Stem;
},
{
horizontal = 1;
place = (825,211);
type = Stem;
},
{
horizontal = 1;
place = (1158,422);
type = Stem;
},
{
place = (110,211);
type = Stem;
},
{
place = (408,312);
type = Stem;
}
);
layerId = "AE110022-8FF3-4FF8-83D9-A7F227575217";
shapes = (
{
closed = 1;
nodes = (
(408,1211,l),
(522,1158,l),
(720,1492,l),
(537,1580,l)
);
},
{
closed = 1;
nodes = (
(110,376,ls),
(110,169,o),
(282,0,o),
(494,0,cs),
(1077,0,l),
(1077,211,l),
(494,211,ls),
(398,211,o),
(321,286,o),
(321,378,cs),
(321,659,ls),
(321,751,o),
(399,825,o),
(494,825,cs),
(1077,825,l),
(1077,1036,l),
(494,1036,ls),
(282,1036,o),
(110,868,o),
(110,662,cs)
);
}
);
width = 1187;
}
);
leftKerningGroup = at;
rightKerningGroup = c;
unicode = 263;
},
{
glyphname = Ccircumflex;
layers = (
{
hints = (
{
horizontal = 1;
place = (0,211);
type = Stem;
},
{
horizontal = 1;
place = (1212,210);
type = Stem;
},
{
horizontal = 1;
place = (1544,309);
type = Stem;
},
{
place = (120,211);
type = Stem;
},
{
place = (384,623);
type = Stem;
}
);
layerId = "AE110022-8FF3-4FF8-83D9-A7F227575217";
shapes = (
{
closed = 1;
nodes = (
(384,1544,l),
(525,1544,l),
(695,1716,l),
(866,1544,l),
(1007,1544,l),
(773,1853,l),
(618,1853,l)
);
},
{
closed = 1;
nodes = (
(120,393,ls),
(120,176,o),
(302,0,o),
(526,0,cs),
(1271,0,l),
(1271,211,l),
(526,211,ls),
(418,211,o),
(331,294,o),
(331,396,cs),
(331,1022,ls),
(331,1127,o),
(418,1212,o),
(526,1212,cs),
(1271,1212,l),
(1271,1422,l),
(526,1422,ls),
(302,1422,o),
(120,1243,o),
(120,1022,cs)
);
}
);
width = 1381;
}
);
leftKerningGroup = at;
rightKerningGroup = C;
unicode = 264;
},
{
glyphname = ccircumflex;
layers = (
{
hints = (
{
horizontal = 1;
place = (0,211);
type = Stem;
},
{
horizontal = 1;
place = (825,211);
type = Stem;
},
{
horizontal = 1;
place = (1158,309);
type = Stem;
},
{
place = (110,211);
type = Stem;
},
{
place = (282,623);
type = Stem;
}
);
layerId = "AE110022-8FF3-4FF8-83D9-A7F227575217";
shapes = (
{
closed = 1;
nodes = (
(282,1158,l),
(423,1158,l),
(593,1330,l),
(764,1158,l),
(905,1158,l),
(671,1467,l),
(516,1467,l)
);
},
{
closed = 1;
nodes = (
(110,376,ls),
(110,169,o),
(282,0,o),
(494,0,cs),
(1077,0,l),
(1077,211,l),
(494,211,ls),
(398,211,o),
(321,286,o),
(321,378,cs),
(321,659,ls),
(321,751,o),
(399,825,o),
(494,825,cs),
(1077,825,l),
(1077,1036,l),
(494,1036,ls),
(282,1036,o),
(110,868,o),
(110,662,cs)
);
}
);
width = 1187;
}
);
leftKerningGroup = at;
rightKerningGroup = c;
unicode = 265;
},
{
glyphname = Cdotaccent;
layers = (
{
hints = (
{
horizontal = 1;
place = (0,211);
type = Stem;
},
{
horizontal = 1;
place = (1212,210);
type = Stem;
},
{
horizontal = 1;
place = (1544,221);
type = Stem;
},
{
place = (120,211);
type = Stem;
},
{
place = (585,221);
type = Stem;
}
);
layerId = "AE110022-8FF3-4FF8-83D9-A7F227575217";
shapes = (
{
closed = 1;
nodes = (
(585,1593,o),
(635,1544,o),
(696,1544,cs),
(757,1544,o),
(806,1593,o),
(806,1654,cs),
(806,1716,o),
(757,1765,o),
(696,1765,cs),
(634,1765,o),
(585,1716,o),
(585,1654,cs)
);
},
{
closed = 1;
nodes = (
(120,393,ls),
(120,176,o),
(302,0,o),
(526,0,cs),
(1271,0,l),
(1271,211,l),
(526,211,ls),
(418,211,o),
(331,294,o),
(331,396,cs),
(331,1022,ls),
(331,1127,o),
(418,1212,o),
(526,1212,cs),
(1271,1212,l),
(1271,1422,l),
(526,1422,ls),
(302,1422,o),
(120,1243,o),
(120,1022,cs)
);
}
);
width = 1381;
}
);
leftKerningGroup = at;
rightKerningGroup = C;
unicode = 266;
},
{
glyphname = cdotaccent;
layers = (
{
hints = (
{
horizontal = 1;
place = (0,211);
type = Stem;
},
{
horizontal = 1;
place = (825,211);
type = Stem;
},
{
horizontal = 1;
place = (1158,221);
type = Stem;
},
{
place = (110,211);
type = Stem;
},
{
place = (483,221);
type = Stem;
}
);
layerId = "AE110022-8FF3-4FF8-83D9-A7F227575217";
shapes = (
{
closed = 1;
nodes = (
(483,1207,o),
(533,1158,o),
(594,1158,cs),
(655,1158,o),
(704,1207,o),
(704,1268,cs),
(704,1330,o),
(655,1379,o),
(594,1379,cs),
(532,1379,o),
(483,1330,o),
(483,1268,cs)
);
},
{
closed = 1;
nodes = (
(110,376,ls),
(110,169,o),
(282,0,o),
(494,0,cs),
(1077,0,l),
(1077,211,l),
(494,211,ls),
(398,211,o),
(321,286,o),
(321,378,cs),
(321,659,ls),
(321,751,o),
(399,825,o),
(494,825,cs),
(1077,825,l),
(1077,1036,l),
(494,1036,ls),
(282,1036,o),
(110,868,o),
(110,662,cs)
);
}
);
width = 1187;
}
);
leftKerningGroup = at;
rightKerningGroup = c;
unicode = 267;
},
{
glyphname = Ccaron;
layers = (
{
hints = (
{
horizontal = 1;
place = (0,211);
type = Stem;
},
{
horizontal = 1;
place = (1212,210);
type = Stem;
},
{
horizontal = 1;
place = (1544,309);
type = Stem;
},
{
place = (120,211);
type = Stem;
},
{
place = (384,623);
type = Stem;
}
);
layerId = "AE110022-8FF3-4FF8-83D9-A7F227575217";
shapes = (
{
closed = 1;
nodes = (
(384,1853,l),
(618,1544,l),
(773,1544,l),
(1007,1853,l),
(866,1853,l),
(695,1681,l),
(525,1853,l)
);
},
{
closed = 1;
nodes = (
(120,393,ls),
(120,176,o),
(302,0,o),
(526,0,cs),
(1271,0,l),
(1271,211,l),
(526,211,ls),
(418,211,o),
(331,294,o),
(331,396,cs),
(331,1022,ls),
(331,1127,o),
(418,1212,o),
(526,1212,cs),
(1271,1212,l),
(1271,1422,l),
(526,1422,ls),
(302,1422,o),
(120,1243,o),
(120,1022,cs)
);
}
);
width = 1381;
}
);
leftKerningGroup = at;
rightKerningGroup = C;
unicode = 268;
},
{
glyphname = ccaron;
layers = (
{
hints = (
{
horizontal = 1;
place = (0,211);
type = Stem;
},
{
horizontal = 1;
place = (825,211);
type = Stem;
},
{
horizontal = 1;
place = (1158,309);
type = Stem;
},
{
place = (110,211);
type = Stem;
},
{
place = (282,623);
type = Stem;
}
);
layerId = "AE110022-8FF3-4FF8-83D9-A7F227575217";
shapes = (
{
closed = 1;
nodes = (
(282,1467,l),
(516,1158,l),
(671,1158,l),
(905,1467,l),
(764,1467,l),
(593,1295,l),
(423,1467,l)
);
},
{
closed = 1;
nodes = (
(110,376,ls),
(110,169,o),
(282,0,o),
(494,0,cs),
(1077,0,l),
(1077,211,l),
(494,211,ls),
(398,211,o),
(321,286,o),
(321,378,cs),
(321,659,ls),
(321,751,o),
(399,825,o),
(494,825,cs),
(1077,825,l),
(1077,1036,l),
(494,1036,ls),
(282,1036,o),
(110,868,o),
(110,662,cs)
);
}
);
width = 1187;
}
);
leftKerningGroup = at;
rightKerningGroup = c;
unicode = 269;
},
{
glyphname = Dcaron;
layers = (
{
hints = (
{
horizontal = 1;
place = (0,211);
type = Stem;
},
{
horizontal = 1;
place = (1212,210);
type = Stem;
},
{
horizontal = 1;
place = (1544,309);
type = Stem;
},
{
place = (140,211);
type = Stem;
},
{
place = (408,623);
type = Stem;
},
{
place = (1088,210);
type = Stem;
}
);
layerId = "AE110022-8FF3-4FF8-83D9-A7F227575217";
shapes = (
{
closed = 1;
nodes = (
(351,1212,l),
(896,1212,ls),
(1002,1212,o),
(1088,1127,o),
(1088,1022,cs),
(1088,399,ls),
(1088,295,o),
(1002,211,o),
(896,211,cs),
(351,211,l)
);
},
{
closed = 1;
nodes = (
(896,0,ls),
(1118,0,o),
(1298,177,o),
(1298,396,cs),
(1298,1022,ls),
(1298,1243,o),
(1118,1422,o),
(896,1422,cs),
(140,1422,l),
(140,0,l)
);
},
{
closed = 1;
nodes = (
(642,1544,l),
(797,1544,l),
(1031,1853,l),
(890,1853,l),
(719,1681,l),
(549,1853,l),
(408,1853,l)
);
}
);
width = 1418;
}
);
leftKerningGroup = at;
unicode = 270;
},
{
glyphname = dcaron;
layers = (
{
hints = (
{
horizontal = 1;
place = (0,211);
type = Stem;
},
{
horizontal = 1;
place = (825,211);
type = Stem;
},
{
horizontal = 1;
place = (1000,422);
type = Stem;
},
{
horizontal = 1;
place = (1422,-20);
target = down;
type = TopGhost;
},
{
place = (110,211);
type = Stem;
},
{
place = (851,211);
type = Stem;
},
{
place = (1173,312);
type = Stem;
}
);
layerId = "AE110022-8FF3-4FF8-83D9-A7F227575217";
shapes = (
{
closed = 1;
nodes = (
(1173,1053,l),
(1287,1000,l),
(1485,1334,l),
(1302,1422,l)
);
},
{
closed = 1;
nodes = (
(110,372,ls),
(110,167,o),
(278,0,o),
(484,0,cs),
(851,0,ls),
(967,0,o),
(1062,95,o),
(1062,211,cs),
(1062,1422,l),
(851,1422,l),
(851,211,l),
(484,211,ls),
(394,211,o),
(321,284,o),
(321,374,cs),
(321,660,ls),
(321,751,o),
(394,825,o),
(484,825,cs),
(731,825,l),
(731,1036,l),
(484,1036,ls),
(278,1036,o),
(110,868,o),
(110,662,cs)
);
}
);
width = 1182;
}
);
leftKerningGroup = at;
rightKerningGroup = dcaron;
unicode = 271;
},
{
glyphname = Dcroat;
layers = (
{
hints = (
{
horizontal = 1;
place = (0,211);
type = Stem;
},
{
horizontal = 1;
place = (650,170);
type = Stem;
},
{
horizontal = 1;
place = (1212,210);
type = Stem;
},
{
place = (187,210);
type = Stem;
},
{
place = (1135,210);
type = Stem;
}
);
layerId = "AE110022-8FF3-4FF8-83D9-A7F227575217";
shapes = (
{
closed = 1;
nodes = (
(90,650,l),
(187,650,l),
(187,0,l),
(942,0,ls),
(1164,0,o),
(1345,177,o),
(1345,396,cs),
(1345,1022,ls),
(1345,1243,o),
(1164,1422,o),
(942,1422,cs),
(187,1422,l),
(187,820,l),
(90,820,l)
);
},
{
closed = 1;
nodes = (
(397,211,l),
(397,650,l),
(867,650,l),
(867,820,l),
(397,820,l),
(397,1212,l),
(942,1212,ls),
(1048,1212,o),
(1135,1127,o),
(1135,1022,cs),
(1135,399,ls),
(1135,295,o),
(1048,211,o),
(942,211,cs)
);
}
);
width = 1465;
}
);
leftKerningGroup = at;
unicode = 272;
},
{
glyphname = dcroat;
layers = (
{
hints = (
{
horizontal = 1;
place = (0,211);
type = Stem;
},
{
horizontal = 1;
place = (825,211);
type = Stem;
},
{
horizontal = 1;
place = (1156,147);
type = Stem;
},
{
horizontal = 1;
place = (1422,-20);
target = down;
type = TopGhost;
},
{
place = (110,211);
type = Stem;
},
{
place = (851,211);
type = Stem;
}
);
layerId = "AE110022-8FF3-4FF8-83D9-A7F227575217";
shapes = (
{
closed = 1;
nodes = (
(110,372,ls),
(110,167,o),
(278,0,o),
(484,0,cs),
(851,0,ls),
(967,0,o),
(1062,95,o),
(1062,211,cs),
(1062,1156,l),
(1222,1156,l),
(1222,1303,l),
(1062,1303,l),
(1062,1422,l),
(851,1422,l),
(851,1303,l),
(691,1303,l),
(691,1156,l),
(851,1156,l),
(851,211,l),
(484,211,ls),
(394,211,o),
(321,284,o),
(321,374,cs),
(321,660,ls),
(321,751,o),
(394,825,o),
(484,825,cs),
(731,825,l),
(731,1036,l),
(484,1036,ls),
(278,1036,o),
(110,868,o),
(110,662,cs)
);
}
);
width = 1262;
}
);
leftKerningGroup = at;
unicode = 273;
},
{
glyphname = Emacron;
layers = (
{
hints = (
{
horizontal = 1;
place = (0,211);
type = Stem;
},
{
horizontal = 1;
place = (635,210);
type = Stem;
},
{
horizontal = 1;
place = (1212,210);
type = Stem;
},
{
horizontal = 1;
place = (1544,147);
type = Stem;
},
{
place = (140,211);
type = Stem;
},
{
place = (393,597);
type = Stem;
}
);
layerId = "AE110022-8FF3-4FF8-83D9-A7F227575217";
shapes = (
{
closed = 1;
nodes = (
(393,1544,l),
(990,1544,l),
(990,1691,l),
(393,1691,l)
);
},
{
closed = 1;
nodes = (
(140,0,l),
(1243,0,l),
(1243,211,l),
(351,211,l),
(351,1212,l),
(1243,1212,l),
(1243,1422,l),
(140,1422,l)
);
},
{
closed = 1;
nodes = (
(471,635,l),
(1243,635,l),
(1243,845,l),
(471,845,l)
);
}
);
width = 1363;
}
);
leftKerningGroup = at;
unicode = 274;
},
{
glyphname = emacron;
layers = (
{
hints = (
{
horizontal = 1;
place = (0,211);
type = Stem;
},
{
horizontal = 1;
place = (408,210);
type = Stem;
},
{
horizontal = 1;
place = (825,211);
type = Stem;
},
{
horizontal = 1;
place = (1158,147);
type = Stem;
},
{
place = (120,211);
type = Stem;
},
{
place = (298,597);
type = Stem;
},
{
place = (862,210);
type = Stem;
}
);
layerId = "AE110022-8FF3-4FF8-83D9-A7F227575217";
shapes = (
{
closed = 1;
nodes = (
(298,1158,l),
(895,1158,l),
(895,1305,l),
(298,1305,l)
);
},
{
closed = 1;
nodes = (
(120,292,ls),
(120,131,o),
(250,0,o),
(410,0,cs),
(999,0,l),
(999,211,l),
(410,211,ls),
(366,211,o),
(331,248,o),
(331,293,cs),
(331,825,l),
(775,825,ls),
(823,825,o),
(862,785,o),
(862,735,cs),
(862,707,ls),
(862,658,o),
(823,618,o),
(775,618,cs),
(451,618,l),
(451,408,l),
(773,408,ls),
(938,408,o),
(1072,542,o),
(1072,706,cs),
(1072,735,ls),
(1072,901,o),
(938,1036,o),
(773,1036,cs),
(341,1036,ls),
(219,1036,o),
(120,940,o),
(120,822,cs)
);
}
);
width = 1182;
}
);
leftKerningGroup = e2;
rightKerningGroup = e;
unicode = 275;
},
{
glyphname = Ebreve;
layers = (
{
hints = (
{
horizontal = 1;
place = (0,211);
type = Stem;
},
{
horizontal = 1;
place = (635,210);
type = Stem;
},
{
horizontal = 1;
place = (1212,210);
type = Stem;
},
{
horizontal = 1;
place = (1544,134);
type = Stem;
},
{
place = (140,211);
type = Stem;
},
{
place = (394,134);
type = Stem;
},
{
place = (856,134);
type = Stem;
}
);
layerId = "AE110022-8FF3-4FF8-83D9-A7F227575217";
shapes = (
{
closed = 1;
nodes = (
(394,1842,l),
(394,1678,o),
(528,1544,o),
(692,1544,cs),
(856,1544,o),
(990,1678,o),
(990,1842,c),
(856,1842,l),
(856,1752,o),
(782,1678,o),
(692,1678,cs),
(602,1678,o),
(528,1752,o),
(528,1842,c)
);
},
{
closed = 1;
nodes = (
(140,0,l),
(1243,0,l),
(1243,211,l),
(351,211,l),
(351,1212,l),
(1243,1212,l),
(1243,1422,l),
(140,1422,l)
);
},
{
closed = 1;
nodes = (
(471,635,l),
(1243,635,l),
(1243,845,l),
(471,845,l)
);
}
);
width = 1363;
}
);
leftKerningGroup = at;
unicode = 276;
},
{
glyphname = ebreve;
layers = (
{
hints = (
{
horizontal = 1;
place = (0,211);
type = Stem;
},
{
horizontal = 1;
place = (408,210);
type = Stem;
},
{
horizontal = 1;
place = (825,211);
type = Stem;
},
{
horizontal = 1;
place = (1158,134);
type = Stem;
},
{
place = (120,211);
type = Stem;
},
{
place = (298,134);
type = Stem;
},
{
place = (760,134);
type = Stem;
},
{
place = (862,210);
type = Stem;
}
);
layerId = "AE110022-8FF3-4FF8-83D9-A7F227575217";
shapes = (
{
closed = 1;
nodes = (
(298,1456,l),
(298,1292,o),
(432,1158,o),
(596,1158,cs),
(760,1158,o),
(894,1292,o),
(894,1456,c),
(760,1456,l),
(760,1366,o),
(686,1292,o),
(596,1292,cs),
(506,1292,o),
(432,1366,o),
(432,1456,c)
);
},
{
closed = 1;
nodes = (
(120,292,ls),
(120,131,o),
(250,0,o),
(410,0,cs),
(999,0,l),
(999,211,l),
(410,211,ls),
(366,211,o),
(331,248,o),
(331,293,cs),
(331,825,l),
(775,825,ls),
(823,825,o),
(862,785,o),
(862,735,cs),
(862,707,ls),
(862,658,o),
(823,618,o),
(775,618,cs),
(451,618,l),
(451,408,l),
(773,408,ls),
(938,408,o),
(1072,542,o),
(1072,706,cs),
(1072,735,ls),
(1072,901,o),
(938,1036,o),
(773,1036,cs),
(341,1036,ls),
(219,1036,o),
(120,940,o),
(120,822,cs)
);
}
);
width = 1182;
}
);
leftKerningGroup = e2;
rightKerningGroup = e;
unicode = 277;
},
{
glyphname = Edotaccent;
layers = (
{
hints = (
{
horizontal = 1;
place = (0,211);
type = Stem;
},
{
horizontal = 1;
place = (635,210);
type = Stem;
},
{
horizontal = 1;
place = (1212,210);
type = Stem;
},
{
horizontal = 1;
place = (1544,221);
type = Stem;
},
{
place = (140,211);
type = Stem;
},
{
place = (581,221);
type = Stem;
}
);
layerId = "AE110022-8FF3-4FF8-83D9-A7F227575217";
shapes = (
{
closed = 1;
nodes = (
(581,1593,o),
(631,1544,o),
(692,1544,cs),
(753,1544,o),
(802,1593,o),
(802,1654,cs),
(802,1716,o),
(753,1765,o),
(692,1765,cs),
(630,1765,o),
(581,1716,o),
(581,1654,cs)
);
},
{
closed = 1;
nodes = (
(140,0,l),
(1243,0,l),
(1243,211,l),
(351,211,l),
(351,1212,l),
(1243,1212,l),
(1243,1422,l),
(140,1422,l)
);
},
{
closed = 1;
nodes = (
(471,635,l),
(1243,635,l),
(1243,845,l),
(471,845,l)
);
}
);
width = 1363;
}
);
leftKerningGroup = at;
unicode = 278;
},
{
glyphname = edotaccent;
layers = (
{
hints = (
{
horizontal = 1;
place = (0,211);
type = Stem;
},
{
horizontal = 1;
place = (408,210);
type = Stem;
},
{
horizontal = 1;
place = (825,211);
type = Stem;
},
{
horizontal = 1;
place = (1158,221);
type = Stem;
},
{
place = (120,211);
type = Stem;
},
{
place = (485,221);
type = Stem;
},
{
place = (862,210);
type = Stem;
}
);
layerId = "AE110022-8FF3-4FF8-83D9-A7F227575217";
shapes = (
{
closed = 1;
nodes = (
(485,1207,o),
(535,1158,o),
(596,1158,cs),
(657,1158,o),
(706,1207,o),
(706,1268,cs),
(706,1330,o),
(657,1379,o),
(596,1379,cs),
(534,1379,o),
(485,1330,o),
(485,1268,cs)
);
},
{
closed = 1;
nodes = (
(120,292,ls),
(120,131,o),
(250,0,o),
(410,0,cs),
(999,0,l),
(999,211,l),
(410,211,ls),
(366,211,o),
(331,248,o),
(331,293,cs),
(331,825,l),
(775,825,ls),
(823,825,o),
(862,785,o),
(862,735,cs),
(862,707,ls),
(862,658,o),
(823,618,o),
(775,618,cs),
(451,618,l),
(451,408,l),
(773,408,ls),
(938,408,o),
(1072,542,o),
(1072,706,cs),
(1072,735,ls),
(1072,901,o),
(938,1036,o),
(773,1036,cs),
(341,1036,ls),
(219,1036,o),
(120,940,o),
(120,822,cs)
);
}
);
width = 1182;
}
);
leftKerningGroup = e2;
rightKerningGroup = e;
unicode = 279;
},
{
glyphname = Eogonek;
layers = (
{
hints = (
{
horizontal = 1;
place = (-303,150);
type = Stem;
},
{
horizontal = 1;
place = (0,211);
type = Stem;
},
{
horizontal = 1;
place = (635,210);
type = Stem;
},
{
horizontal = 1;
place = (1212,210);
type = Stem;
},
{
place = (140,211);
type = Stem;
},
{
place = (650,150);
type = Stem;
}
);
layerId = "AE110022-8FF3-4FF8-83D9-A7F227575217";
shapes = (
{
closed = 1;
nodes = (
(140,0,l),
(688,0,l),
(663,-71,o),
(650,-129,o),
(650,-173,cs),
(650,-262,o),
(698,-303,o),
(802,-303,cs),
(835,-303,o),
(864,-300,o),
(952,-287,c),
(952,-139,l),
(870,-152,o),
(859,-153,o),
(842,-153,cs),
(812,-153,o),
(800,-144,o),
(800,-122,cs),
(800,-104,o),
(805,-89,o),
(836,0,c),
(1243,0,l),
(1243,211,l),
(351,211,l),
(351,1212,l),
(1243,1212,l),
(1243,1422,l),
(140,1422,l)
);
},
{
closed = 1;
nodes = (
(471,635,l),
(1243,635,l),
(1243,845,l),
(471,845,l)
);
}
);
width = 1363;
}
);
leftKerningGroup = at;
unicode = 280;
},
{
glyphname = eogonek;
layers = (
{
hints = (
{
horizontal = 1;
place = (-303,150);
type = Stem;
},
{
horizontal = 1;
place = (0,211);
type = Stem;
},
{
horizontal = 1;
place = (408,210);
type = Stem;
},
{
horizontal = 1;
place = (825,211);
type = Stem;
},
{
place = (120,211);
type = Stem;
},
{
place = (480,151);
type = Stem;
},
{
place = (862,210);
type = Stem;
}
);
layerId = "AE110022-8FF3-4FF8-83D9-A7F227575217";
shapes = (
{
closed = 1;
nodes = (
(120,292,ls),
(120,131,o),
(250,0,o),
(410,0,cs),
(518,0,l),
(493,-71,o),
(480,-129,o),
(480,-173,cs),
(480,-262,o),
(528,-303,o),
(632,-303,cs),
(665,-303,o),
(694,-300,o),
(782,-287,c),
(782,-139,l),
(700,-152,o),
(689,-153,o),
(672,-153,cs),
(642,-153,o),
(631,-144,o),
(631,-122,cs),
(631,-103,o),
(637,-82,o),
(666,0,c),
(999,0,l),
(999,211,l),
(410,211,ls),
(366,211,o),
(331,248,o),
(331,293,cs),
(331,825,l),
(775,825,ls),
(823,825,o),
(862,785,o),
(862,735,cs),
(862,707,ls),
(862,658,o),
(823,618,o),
(775,618,cs),
(451,618,l),
(451,408,l),
(773,408,ls),
(938,408,o),
(1072,542,o),
(1072,706,cs),
(1072,735,ls),
(1072,901,o),
(938,1036,o),
(773,1036,cs),
(341,1036,ls),
(219,1036,o),
(120,940,o),
(120,822,cs)
);
}
);
width = 1182;
}
);
leftKerningGroup = e2;
rightKerningGroup = e;
unicode = 281;
},
{
glyphname = Ecaron;
layers = (
{
hints = (
{
horizontal = 1;
place = (0,211);
type = Stem;
},
{
horizontal = 1;
place = (635,210);
type = Stem;
},
{
horizontal = 1;
place = (1212,210);
type = Stem;
},
{
horizontal = 1;
place = (1544,309);
type = Stem;
},
{
place = (140,211);
type = Stem;
},
{
place = (380,623);
type = Stem;
}
);
layerId = "AE110022-8FF3-4FF8-83D9-A7F227575217";
shapes = (
{
closed = 1;
nodes = (
(380,1853,l),
(614,1544,l),
(769,1544,l),
(1003,1853,l),
(862,1853,l),
(691,1681,l),
(521,1853,l)
);
},
{
closed = 1;
nodes = (
(140,0,l),
(1243,0,l),
(1243,211,l),
(351,211,l),
(351,1212,l),
(1243,1212,l),
(1243,1422,l),
(140,1422,l)
);
},
{
closed = 1;
nodes = (
(471,635,l),
(1243,635,l),
(1243,845,l),
(471,845,l)
);
}
);
width = 1363;
}
);
leftKerningGroup = at;
unicode = 282;
},
{
glyphname = ecaron;
layers = (
{
hints = (
{
horizontal = 1;
place = (0,211);
type = Stem;
},
{
horizontal = 1;
place = (408,210);
type = Stem;
},
{
horizontal = 1;
place = (825,211);
type = Stem;
},
{
horizontal = 1;
place = (1158,309);
type = Stem;
},
{
place = (120,211);
type = Stem;
},
{
place = (284,623);
type = Stem;
},
{
place = (862,210);
type = Stem;
}
);
layerId = "AE110022-8FF3-4FF8-83D9-A7F227575217";
shapes = (
{
closed = 1;
nodes = (
(284,1467,l),
(518,1158,l),
(673,1158,l),
(907,1467,l),
(766,1467,l),
(595,1295,l),
(425,1467,l)
);
},
{
closed = 1;
nodes = (
(120,292,ls),
(120,131,o),
(250,0,o),
(410,0,cs),
(999,0,l),
(999,211,l),
(410,211,ls),
(366,211,o),
(331,248,o),
(331,293,cs),
(331,825,l),
(775,825,ls),
(823,825,o),
(862,785,o),
(862,735,cs),
(862,707,ls),
(862,658,o),
(823,618,o),
(775,618,cs),
(451,618,l),
(451,408,l),
(773,408,ls),
(938,408,o),
(1072,542,o),
(1072,706,cs),
(1072,735,ls),
(1072,901,o),
(938,1036,o),
(773,1036,cs),
(341,1036,ls),
(219,1036,o),
(120,940,o),
(120,822,cs)
);
}
);
width = 1182;
}
);
leftKerningGroup = e2;
rightKerningGroup = e;
unicode = 283;
},
{
glyphname = Gcircumflex;
layers = (
{
hints = (
{
horizontal = 1;
place = (0,210);
type = Stem;
},
{
horizontal = 1;
place = (585,210);
type = Stem;
},
{
horizontal = 1;
place = (1212,210);
type = Stem;
},
{
horizontal = 1;
place = (1544,309);
type = Stem;
},
{
place = (120,211);
type = Stem;
},
{
place = (399,623);
type = Stem;
},
{
place = (1090,211);
type = Stem;
}
);
layerId = "AE110022-8FF3-4FF8-83D9-A7F227575217";
shapes = (
{
closed = 1;
nodes = (
(399,1544,l),
(540,1544,l),
(710,1716,l),
(881,1544,l),
(1022,1544,l),
(788,1853,l),
(633,1853,l)
);
},
{
closed = 1;
nodes = (
(120,400,ls),
(120,179,o),
(310,0,o),
(544,0,cs),
(877,0,ls),
(1111,0,o),
(1301,179,o),
(1301,400,cs),
(1301,795,l),
(704,795,l),
(704,585,l),
(1090,585,l),
(1090,399,ls),
(1090,295,o),
(995,210,o),
(877,210,cs),
(544,210,ls),
(426,210,o),
(331,295,o),
(331,399,cs),
(331,1023,ls),
(331,1127,o),
(426,1212,o),
(544,1212,cs),
(1217,1212,l),
(1217,1422,l),
(544,1422,ls),
(310,1422,o),
(120,1243,o),
(120,1022,cs)
);
}
);
width = 1421;
}
);
leftKerningGroup = at;
unicode = 284;
},
{
glyphname = gcircumflex;
layers = (
{
hints = (
{
horizontal = 1;
place = (-388,206);
type = Stem;
},
{
horizontal = 1;
place = (0,210);
type = Stem;
},
{
horizontal = 1;
place = (824,211);
type = Stem;
},
{
horizontal = 1;
place = (1158,309);
type = Stem;
},
{
place = (110,211);
type = Stem;
},
{
place = (274,623);
type = Stem;
},
{
place = (851,211);
type = Stem;
}
);
layerId = "AE110022-8FF3-4FF8-83D9-A7F227575217";
shapes = (
{
closed = 1;
nodes = (
(274,1158,l),
(415,1158,l),
(585,1330,l),
(756,1158,l),
(897,1158,l),
(663,1467,l),
(508,1467,l)
);
},
{
closed = 1;
nodes = (
(110,373,ls),
(110,167,o),
(278,0,o),
(484,0,cs),
(731,0,l),
(731,210,l),
(484,210,ls),
(394,210,o),
(321,284,o),
(321,375,cs),
(321,661,ls),
(321,751,o),
(394,824,o),
(484,824,cs),
(851,824,l),
(851,-15,ls),
(851,-107,o),
(779,-182,o),
(690,-182,cs),
(177,-182,l),
(177,-388,l),
(688,-388,ls),
(894,-388,o),
(1062,-220,o),
(1062,-14,cs),
(1062,824,ls),
(1062,940,o),
(967,1035,o),
(851,1035,cs),
(484,1035,ls),
(278,1035,o),
(110,868,o),
(110,663,cs)
);
}
);
width = 1182;
}
);
leftKerningGroup = at;
unicode = 285;
},
{
glyphname = Gbreve;
layers = (
{
hints = (
{
horizontal = 1;
place = (0,210);
type = Stem;
},
{
horizontal = 1;
place = (585,210);
type = Stem;
},
{
horizontal = 1;
place = (1212,210);
type = Stem;
},
{
horizontal = 1;
place = (1544,134);
type = Stem;
},
{
place = (120,211);
type = Stem;
},
{
place = (412,134);
type = Stem;
},
{
place = (874,134);
type = Stem;
},
{
place = (1090,211);
type = Stem;
}
);
layerId = "AE110022-8FF3-4FF8-83D9-A7F227575217";
shapes = (
{
closed = 1;
nodes = (
(412,1842,l),
(412,1678,o),
(546,1544,o),
(710,1544,cs),
(874,1544,o),
(1008,1678,o),
(1008,1842,c),
(874,1842,l),
(874,1752,o),
(800,1678,o),
(710,1678,cs),
(620,1678,o),
(546,1752,o),
(546,1842,c)
);
},
{
closed = 1;
nodes = (
(120,400,ls),
(120,179,o),
(310,0,o),
(544,0,cs),
(877,0,ls),
(1111,0,o),
(1301,179,o),
(1301,400,cs),
(1301,795,l),
(704,795,l),
(704,585,l),
(1090,585,l),
(1090,399,ls),
(1090,295,o),
(995,210,o),
(877,210,cs),
(544,210,ls),
(426,210,o),
(331,295,o),
(331,399,cs),
(331,1023,ls),
(331,1127,o),
(426,1212,o),
(544,1212,cs),
(1217,1212,l),
(1217,1422,l),
(544,1422,ls),
(310,1422,o),
(120,1243,o),
(120,1022,cs)
);
}
);
width = 1421;
}
);
leftKerningGroup = at;
unicode = 286;
},
{
glyphname = gbreve;
layers = (
{
hints = (
{
horizontal = 1;
place = (-388,206);
type = Stem;
},
{
horizontal = 1;
place = (0,210);
type = Stem;
},
{
horizontal = 1;
place = (824,211);
type = Stem;
},
{
horizontal = 1;
place = (1158,134);
type = Stem;
},
{
place = (110,211);
type = Stem;
},
{
place = (288,134);
type = Stem;
},
{
place = (750,134);
type = Stem;
},
{
place = (851,211);
type = Stem;
}
);
layerId = "AE110022-8FF3-4FF8-83D9-A7F227575217";
shapes = (
{
closed = 1;
nodes = (
(288,1456,l),
(288,1292,o),
(422,1158,o),
(586,1158,cs),
(750,1158,o),
(884,1292,o),
(884,1456,c),
(750,1456,l),
(750,1366,o),
(676,1292,o),
(586,1292,cs),
(496,1292,o),
(422,1366,o),
(422,1456,c)
);
},
{
closed = 1;
nodes = (
(110,373,ls),
(110,167,o),
(278,0,o),
(484,0,cs),
(731,0,l),
(731,210,l),
(484,210,ls),
(394,210,o),
(321,284,o),
(321,375,cs),
(321,661,ls),
(321,751,o),
(394,824,o),
(484,824,cs),
(851,824,l),
(851,-15,ls),
(851,-107,o),
(779,-182,o),
(690,-182,cs),
(177,-182,l),
(177,-388,l),
(688,-388,ls),
(894,-388,o),
(1062,-220,o),
(1062,-14,cs),
(1062,824,ls),
(1062,940,o),
(967,1035,o),
(851,1035,cs),
(484,1035,ls),
(278,1035,o),
(110,868,o),
(110,663,cs)
);
}
);
width = 1182;
}
);
leftKerningGroup = at;
unicode = 287;
},
{
glyphname = Gdotaccent;
layers = (
{
hints = (
{
horizontal = 1;
place = (0,210);
type = Stem;
},
{
horizontal = 1;
place = (585,210);
type = Stem;
},
{
horizontal = 1;
place = (1212,210);
type = Stem;
},
{
horizontal = 1;
place = (1544,221);
type = Stem;
},
{
place = (120,211);
type = Stem;
},
{
place = (600,221);
type = Stem;
},
{
place = (1090,211);
type = Stem;
}
);
layerId = "AE110022-8FF3-4FF8-83D9-A7F227575217";
shapes = (
{
closed = 1;
nodes = (
(600,1593,o),
(650,1544,o),
(711,1544,cs),
(772,1544,o),
(821,1593,o),
(821,1654,cs),
(821,1716,o),
(772,1765,o),
(711,1765,cs),
(649,1765,o),
(600,1716,o),
(600,1654,cs)
);
},
{
closed = 1;
nodes = (
(120,400,ls),
(120,179,o),
(310,0,o),
(544,0,cs),
(877,0,ls),
(1111,0,o),
(1301,179,o),
(1301,400,cs),
(1301,795,l),
(704,795,l),
(704,585,l),
(1090,585,l),
(1090,399,ls),
(1090,295,o),
(995,210,o),
(877,210,cs),
(544,210,ls),
(426,210,o),
(331,295,o),
(331,399,cs),
(331,1023,ls),
(331,1127,o),
(426,1212,o),
(544,1212,cs),
(1217,1212,l),
(1217,1422,l),
(544,1422,ls),
(310,1422,o),
(120,1243,o),
(120,1022,cs)
);
}
);
width = 1421;
}
);
leftKerningGroup = at;
unicode = 288;
},
{
glyphname = gdotaccent;
layers = (
{
hints = (
{
horizontal = 1;
place = (-388,206);
type = Stem;
},
{
horizontal = 1;
place = (0,210);
type = Stem;
},
{
horizontal = 1;
place = (824,211);
type = Stem;
},
{
horizontal = 1;
place = (1158,221);
type = Stem;
},
{
place = (110,211);
type = Stem;
},
{
place = (475,221);
type = Stem;
},
{
place = (851,211);
type = Stem;
}
);
layerId = "AE110022-8FF3-4FF8-83D9-A7F227575217";
shapes = (
{
closed = 1;
nodes = (
(475,1207,o),
(525,1158,o),
(586,1158,cs),
(647,1158,o),
(696,1207,o),
(696,1268,cs),
(696,1330,o),
(647,1379,o),
(586,1379,cs),
(524,1379,o),
(475,1330,o),
(475,1268,cs)
);
},
{
closed = 1;
nodes = (
(110,373,ls),
(110,167,o),
(278,0,o),
(484,0,cs),
(731,0,l),
(731,210,l),
(484,210,ls),
(394,210,o),
(321,284,o),
(321,375,cs),
(321,661,ls),
(321,751,o),
(394,824,o),
(484,824,cs),
(851,824,l),
(851,-15,ls),
(851,-107,o),
(779,-182,o),
(690,-182,cs),
(177,-182,l),
(177,-388,l),
(688,-388,ls),
(894,-388,o),
(1062,-220,o),
(1062,-14,cs),
(1062,824,ls),
(1062,940,o),
(967,1035,o),
(851,1035,cs),
(484,1035,ls),
(278,1035,o),
(110,868,o),
(110,663,cs)
);
}
);
width = 1182;
}
);
leftKerningGroup = at;
unicode = 289;
},
{
glyphname = uni0122;
layers = (
{
hints = (
{
horizontal = 1;
place = (-536,414);
type = Stem;
},
{
horizontal = 1;
place = (0,210);
type = Stem;
},
{
horizontal = 1;
place = (585,210);
type = Stem;
},
{
horizontal = 1;
place = (1212,210);
type = Stem;
},
{
place = (120,211);
type = Stem;
},
{
place = (598,287);
type = Stem;
},
{
place = (1090,211);
type = Stem;
}
);
layerId = "AE110022-8FF3-4FF8-83D9-A7F227575217";
shapes = (
{
closed = 1;
nodes = (
(598,-536,l),
(756,-536,l),
(885,-122,l),
(673,-122,l)
);
},
{
closed = 1;
nodes = (
(120,400,ls),
(120,179,o),
(310,0,o),
(544,0,cs),
(877,0,ls),
(1111,0,o),
(1301,179,o),
(1301,400,cs),
(1301,795,l),
(704,795,l),
(704,585,l),
(1090,585,l),
(1090,399,ls),
(1090,295,o),
(995,210,o),
(877,210,cs),
(544,210,ls),
(426,210,o),
(331,295,o),
(331,399,cs),
(331,1023,ls),
(331,1127,o),
(426,1212,o),
(544,1212,cs),
(1217,1212,l),
(1217,1422,l),
(544,1422,ls),
(310,1422,o),
(120,1243,o),
(120,1022,cs)
);
}
);
width = 1421;
}
);
leftKerningGroup = at;
unicode = 290;
},
{
glyphname = uni0123;
layers = (
{
hints = (
{
horizontal = 1;
place = (-388,206);
type = Stem;
},
{
horizontal = 1;
place = (0,210);
type = Stem;
},
{
horizontal = 1;
place = (824,211);
type = Stem;
},
{
horizontal = 1;
place = (1158,422);
type = Stem;
},
{
place = (110,211);
type = Stem;
},
{
place = (358,312);
type = Stem;
},
{
place = (851,211);
type = Stem;
}
);
layerId = "AE110022-8FF3-4FF8-83D9-A7F227575217";
shapes = (
{
closed = 1;
nodes = (
(358,1246,l),
(541,1158,l),
(670,1527,l),
(556,1580,l)
);
},
{
closed = 1;
nodes = (
(110,373,ls),
(110,167,o),
(278,0,o),
(484,0,cs),
(731,0,l),
(731,210,l),
(484,210,ls),
(394,210,o),
(321,284,o),
(321,375,cs),
(321,661,ls),
(321,751,o),
(394,824,o),
(484,824,cs),
(851,824,l),
(851,-15,ls),
(851,-107,o),
(779,-182,o),
(690,-182,cs),
(177,-182,l),
(177,-388,l),
(688,-388,ls),
(894,-388,o),
(1062,-220,o),
(1062,-14,cs),
(1062,824,ls),
(1062,940,o),
(967,1035,o),
(851,1035,cs),
(484,1035,ls),
(278,1035,o),
(110,868,o),
(110,663,cs)
);
}
);
width = 1182;
}
);
leftKerningGroup = at;
unicode = 291;
},
{
glyphname = Hcircumflex;
layers = (
{
hints = (
{
horizontal = 1;
place = (0,21);
target = up;
type = BottomGhost;
},
{
horizontal = 1;
place = (635,210);
type = Stem;
},
{
horizontal = 1;
place = (1422,-20);
target = down;
type = TopGhost;
},
{
horizontal = 1;
place = (1544,309);
type = Stem;
},
{
place = (140,211);
type = Stem;
},
{
place = (408,623);
type = Stem;
},
{
place = (1088,210);
type = Stem;
}
);
layerId = "AE110022-8FF3-4FF8-83D9-A7F227575217";
shapes = (
{
closed = 1;
nodes = (
(408,1544,l),
(549,1544,l),
(719,1716,l),
(890,1544,l),
(1031,1544,l),
(797,1853,l),
(642,1853,l)
);
},
{
closed = 1;
nodes = (
(140,0,l),
(351,0,l),
(351,635,l),
(1088,635,l),
(1088,0,l),
(1298,0,l),
(1298,1422,l),
(1088,1422,l),
(1088,845,l),
(351,845,l),
(351,1422,l),
(140,1422,l)
);
}
);
width = 1438;
}
);
leftKerningGroup = at;
unicode = 292;
},
{
glyphname = hcircumflex;
layers = (
{
hints = (
{
horizontal = 1;
place = (0,21);
target = up;
type = BottomGhost;
},
{
horizontal = 1;
place = (825,211);
type = Stem;
},
{
horizontal = 1;
place = (1422,-20);
target = down;
type = TopGhost;
},
{
horizontal = 1;
place = (1544,309);
type = Stem;
},
{
place = (120,211);
type = Stem;
},
{
place = (272,623);
type = Stem;
},
{
place = (836,211);
type = Stem;
}
);
layerId = "AE110022-8FF3-4FF8-83D9-A7F227575217";
shapes = (
{
closed = 1;
nodes = (
(272,1544,l),
(413,1544,l),
(583,1716,l),
(754,1544,l),
(895,1544,l),
(661,1853,l),
(506,1853,l)
);
},
{
closed = 1;
nodes = (
(120,0,l),
(331,0,l),
(331,825,l),
(657,825,ls),
(753,825,o),
(836,748,o),
(836,660,cs),
(836,0,l),
(1047,0,l),
(1047,663,ls),
(1047,869,o),
(872,1036,o),
(657,1036,cs),
(331,1036,l),
(331,1422,l),
(120,1422,l)
);
}
);
width = 1167;
}
);
leftKerningGroup = at;
unicode = 293;
},
{
glyphname = Hbar;
layers = (
{
hints = (
{
horizontal = 1;
place = (0,21);
target = up;
type = BottomGhost;
},
{
horizontal = 1;
place = (635,210);
type = Stem;
},
{
horizontal = 1;
place = (1156,147);
type = Stem;
},
{
horizontal = 1;
place = (1422,-20);
target = down;
type = TopGhost;
},
{
place = (220,211);
type = Stem;
},
{
place = (1168,210);
type = Stem;
}
);
layerId = "AE110022-8FF3-4FF8-83D9-A7F227575217";
shapes = (
{
closed = 1;
nodes = (
(431,1156,l),
(1168,1156,l),
(1168,845,l),
(431,845,l)
);
},
{
closed = 1;
nodes = (
(220,1156,l),
(220,0,l),
(431,0,l),
(431,635,l),
(1168,635,l),
(1168,0,l),
(1378,0,l),
(1378,1156,l),
(1538,1156,l),
(1538,1303,l),
(1378,1303,l),
(1378,1422,l),
(1168,1422,l),
(1168,1303,l),
(431,1303,l),
(431,1422,l),
(220,1422,l),
(220,1303,l),
(60,1303,l),
(60,1156,l)
);
}
);
width = 1598;
}
);
leftKerningGroup = at;
unicode = 294;
},
{
glyphname = hbar;
layers = (
{
hints = (
{
horizontal = 1;
place = (0,21);
target = up;
type = BottomGhost;
},
{
horizontal = 1;
place = (825,211);
type = Stem;
},
{
horizontal = 1;
place = (1156,147);
type = Stem;
},
{
horizontal = 1;
place = (1422,-20);
target = down;
type = TopGhost;
},
{
place = (220,211);
type = Stem;
},
{
place = (936,211);
type = Stem;
}
);
layerId = "AE110022-8FF3-4FF8-83D9-A7F227575217";
shapes = (
{
closed = 1;
nodes = (
(60,1156,l),
(220,1156,l),
(220,0,l),
(431,0,l),
(431,825,l),
(757,825,ls),
(853,825,o),
(936,748,o),
(936,660,cs),
(936,0,l),
(1147,0,l),
(1147,663,ls),
(1147,869,o),
(972,1036,o),
(757,1036,cs),
(431,1036,l),
(431,1156,l),
(591,1156,l),
(591,1303,l),
(431,1303,l),
(431,1422,l),
(220,1422,l),
(220,1303,l),
(60,1303,l)
);
}
);
width = 1287;
}
);
leftKerningGroup = at;
unicode = 295;
},
{
glyphname = Itilde;
layers = (
{
hints = (
{
horizontal = 1;
place = (0,21);
target = up;
type = BottomGhost;
},
{
horizontal = 1;
place = (1422,-20);
target = down;
type = TopGhost;
},
{
horizontal = 1;
place = (1544,154);
type = Stem;
},
{
horizontal = 1;
place = (1625,148);
type = Stem;
},
{
place = (-84,155);
type = Stem;
},
{
place = (140,211);
type = Stem;
},
{
place = (417,157);
type = Stem;
}
);
layerId = "AE110022-8FF3-4FF8-83D9-A7F227575217";
shapes = (
{
closed = 1;
nodes = (
(71,1552,l),
(71,1602,o),
(85,1625,o),
(116,1625,cs),
(147,1625,o),
(174,1616,o),
(249,1584,cs),
(319,1554,o),
(351,1544,o),
(382,1544,cs),
(489,1544,o),
(574,1644,o),
(574,1768,c),
(417,1768,l),
(417,1720,o),
(403,1698,o),
(372,1698,cs),
(341,1698,o),
(314,1706,o),
(241,1736,cs),
(173,1764,o),
(141,1773,o),
(110,1773,cs),
(-2,1773,o),
(-83,1680,o),
(-84,1552,c)
);
},
{
closed = 1;
nodes = (
(140,0,l),
(351,0,l),
(351,1422,l),
(140,1422,l)
);
}
);
width = 491;
}
);
leftKerningGroup = at;
unicode = 296;
},
{
glyphname = itilde;
layers = (
{
hints = (
{
horizontal = 1;
place = (0,21);
target = up;
type = BottomGhost;
},
{
horizontal = 1;
place = (1036,-20);
target = down;
type = TopGhost;
},
{
horizontal = 1;
place = (1158,154);
type = Stem;
},
{
horizontal = 1;
place = (1239,148);
type = Stem;
},
{
place = (-96,155);
type = Stem;
},
{
place = (127,211);
type = Stem;
},
{
place = (405,157);
type = Stem;
}
);
layerId = "AE110022-8FF3-4FF8-83D9-A7F227575217";
shapes = (
{
closed = 1;
nodes = (
(59,1166,l),
(59,1216,o),
(73,1239,o),
(104,1239,cs),
(135,1239,o),
(162,1230,o),
(237,1198,cs),
(307,1168,o),
(339,1158,o),
(370,1158,cs),
(477,1158,o),
(562,1258,o),
(562,1382,c),
(405,1382,l),
(405,1334,o),
(391,1312,o),
(360,1312,cs),
(329,1312,o),
(302,1320,o),
(229,1350,cs),
(161,1378,o),
(129,1387,o),
(98,1387,cs),
(-14,1387,o),
(-95,1294,o),
(-96,1166,c)
);
},
{
closed = 1;
nodes = (
(127,0,l),
(338,0,l),
(338,1036,l),
(127,1036,l)
);
}
);
width = 465;
}
);
leftKerningGroup = at;
unicode = 297;
},
{
glyphname = Imacron;
layers = (
{
hints = (
{
horizontal = 1;
place = (0,21);
target = up;
type = BottomGhost;
},
{
horizontal = 1;
place = (1422,-20);
target = down;
type = TopGhost;
},
{
horizontal = 1;
place = (1544,147);
type = Stem;
},
{
place = (-53,597);
type = Stem;
},
{
place = (140,211);
type = Stem;
}
);
layerId = "AE110022-8FF3-4FF8-83D9-A7F227575217";
shapes = (
{
closed = 1;
nodes = (
(-53,1544,l),
(544,1544,l),
(544,1691,l),
(-53,1691,l)
);
},
{
closed = 1;
nodes = (
(140,0,l),
(351,0,l),
(351,1422,l),
(140,1422,l)
);
}
);
width = 491;
}
);
leftKerningGroup = at;
unicode = 298;
},
{
glyphname = imacron;
layers = (
{
hints = (
{
horizontal = 1;
place = (0,21);
target = up;
type = BottomGhost;
},
{
horizontal = 1;
place = (1036,-20);
target = down;
type = TopGhost;
},
{
horizontal = 1;
place = (1158,147);
type = Stem;
},
{
place = (-66,597);
type = Stem;
},
{
place = (127,211);
type = Stem;
}
);
layerId = "AE110022-8FF3-4FF8-83D9-A7F227575217";
shapes = (
{
closed = 1;
nodes = (
(-66,1158,l),
(531,1158,l),
(531,1305,l),
(-66,1305,l)
);
},
{
closed = 1;
nodes = (
(127,0,l),
(338,0,l),
(338,1036,l),
(127,1036,l)
);
}
);
width = 465;
}
);
leftKerningGroup = at;
unicode = 299;
},
{
glyphname = Ibreve;
layers = (
{
hints = (
{
horizontal = 1;
place = (0,21);
target = up;
type = BottomGhost;
},
{
horizontal = 1;
place = (1422,-20);
target = down;
type = TopGhost;
},
{
horizontal = 1;
place = (1544,134);
type = Stem;
},
{
place = (-52,134);
type = Stem;
},
{
place = (140,211);
type = Stem;
},
{
place = (410,134);
type = Stem;
}
);
layerId = "AE110022-8FF3-4FF8-83D9-A7F227575217";
shapes = (
{
closed = 1;
nodes = (
(-52,1842,l),
(-52,1678,o),
(82,1544,o),
(246,1544,cs),
(410,1544,o),
(544,1678,o),
(544,1842,c),
(410,1842,l),
(410,1752,o),
(336,1678,o),
(246,1678,cs),
(156,1678,o),
(82,1752,o),
(82,1842,c)
);
},
{
closed = 1;
nodes = (
(140,0,l),
(351,0,l),
(351,1422,l),
(140,1422,l)
);
}
);
width = 491;
}
);
leftKerningGroup = at;
unicode = 300;
},
{
glyphname = ibreve;
layers = (
{
hints = (
{
horizontal = 1;
place = (0,21);
target = up;
type = BottomGhost;
},
{
horizontal = 1;
place = (1036,-20);
target = down;
type = TopGhost;
},
{
horizontal = 1;
place = (1158,134);
type = Stem;
},
{
place = (-66,134);
type = Stem;
},
{
place = (127,211);
type = Stem;
},
{
place = (396,134);
type = Stem;
}
);
layerId = "AE110022-8FF3-4FF8-83D9-A7F227575217";
shapes = (
{
closed = 1;
nodes = (
(-66,1456,l),
(-66,1292,o),
(68,1158,o),
(232,1158,cs),
(396,1158,o),
(530,1292,o),
(530,1456,c),
(396,1456,l),
(396,1366,o),
(322,1292,o),
(232,1292,cs),
(142,1292,o),
(68,1366,o),
(68,1456,c)
);
},
{
closed = 1;
nodes = (
(127,0,l),
(338,0,l),
(338,1036,l),
(127,1036,l)
);
}
);
width = 465;
}
);
leftKerningGroup = at;
unicode = 301;
},
{
glyphname = Iogonek;
layers = (
{
hints = (
{
horizontal = 1;
place = (-303,150);
type = Stem;
},
{
horizontal = 1;
place = (1422,-20);
target = down;
type = TopGhost;
},
{
place = (130,150);
type = Stem;
},
{
place = (140,211);
type = Stem;
}
);
layerId = "AE110022-8FF3-4FF8-83D9-A7F227575217";
shapes = (
{
closed = 1;
nodes = (
(130,-262,o),
(178,-303,o),
(282,-303,cs),
(315,-303,o),
(344,-300,o),
(432,-287,c),
(432,-139,l),
(350,-152,o),
(339,-153,o),
(322,-153,cs),
(292,-153,o),
(280,-144,o),
(280,-122,cs),
(280,-104,o),
(285,-89,o),
(316,0,c),
(351,0,l),
(351,1422,l),
(140,1422,l),
(140,0,l),
(168,0,l),
(143,-71,o),
(130,-129,o),
(130,-173,cs)
);
}
);
width = 491;
}
);
leftKerningGroup = at;
unicode = 302;
},
{
glyphname = iogonek;
layers = (
{
hints = (
{
horizontal = 1;
place = (-303,150);
type = Stem;
},
{
horizontal = 1;
place = (1036,-20);
target = down;
type = TopGhost;
},
{
horizontal = 1;
place = (1188,260);
type = Stem;
},
{
place = (96,260);
type = Stem;
},
{
place = (110,151);
type = Stem;
},
{
place = (120,212);
type = Stem;
}
);
layerId = "AE110022-8FF3-4FF8-83D9-A7F227575217";
shapes = (
{
closed = 1;
nodes = (
(96,1246,o),
(154,1188,o),
(226,1188,cs),
(298,1188,o),
(356,1246,o),
(356,1318,cs),
(356,1390,o),
(298,1448,o),
(226,1448,cs),
(154,1448,o),
(96,1390,o),
(96,1318,cs)
);
},
{
closed = 1;
nodes = (
(110,-262,o),
(158,-303,o),
(262,-303,cs),
(295,-303,o),
(324,-300,o),
(412,-287,c),
(412,-139,l),
(330,-152,o),
(319,-153,o),
(302,-153,cs),
(272,-153,o),
(261,-144,o),
(261,-122,cs),
(261,-102,o),
(268,-78,o),
(296,0,c),
(332,0,l),
(332,1036,l),
(120,1036,l),
(120,0,l),
(148,0,l),
(123,-68,o),
(110,-126,o),
(110,-173,cs)
);
}
);
width = 452;
}
);
leftKerningGroup = at;
unicode = 303;
},
{
glyphname = Idotaccent;
layers = (
{
hints = (
{
horizontal = 1;
place = (0,21);
target = up;
type = BottomGhost;
},
{
horizontal = 1;
place = (1422,-20);
target = down;
type = TopGhost;
},
{
horizontal = 1;
place = (1528,221);
type = Stem;
},
{
place = (120,211);
type = Stem;
}
);
layerId = "AE110022-8FF3-4FF8-83D9-A7F227575217";
shapes = (
{
closed = 1;
nodes = (
(120,0,l),
(331,0,l),
(331,1422,l),
(120,1422,l)
);
},
{
closed = 1;
nodes = (
(121,1577,o),
(171,1528,o),
(232,1528,cs),
(293,1528,o),
(342,1577,o),
(342,1638,cs),
(342,1699,o),
(293,1749,o),
(232,1749,cs),
(171,1749,o),
(121,1699,o),
(121,1638,cs)
);
}
);
width = 451;
}
);
leftKerningGroup = at;
unicode = 304;
},
{
glyphname = dotlessi;
layers = (
{
hints = (
{
horizontal = 1;
place = (0,21);
target = up;
type = BottomGhost;
},
{
horizontal = 1;
place = (1036,-20);
target = down;
type = TopGhost;
},
{
place = (127,211);
type = Stem;
}
);
layerId = "AE110022-8FF3-4FF8-83D9-A7F227575217";
shapes = (
{
closed = 1;
nodes = (
(127,0,l),
(338,0,l),
(338,1036,l),
(127,1036,l)
);
}
);
width = 465;
}
);
leftKerningGroup = at;
unicode = 305;
},
{
glyphname = IJ;
layers = (
{
hints = (
{
horizontal = 1;
place = (0,21);
target = up;
type = BottomGhost;
},
{
horizontal = 1;
place = (1422,-20);
target = down;
type = TopGhost;
},
{
place = (140,211);
type = Stem;
},
{
place = (976,210);
type = Stem;
}
);
layerId = "AE110022-8FF3-4FF8-83D9-A7F227575217";
shapes = (
{
closed = 1;
nodes = (
(531,0,l),
(785,0,ls),
(1006,0,o),
(1186,177,o),
(1186,395,cs),
(1186,1422,l),
(976,1422,l),
(976,398,ls),
(976,294,o),
(890,210,o),
(785,210,cs),
(531,210,l)
);
},
{
closed = 1;
nodes = (
(140,0,l),
(351,0,l),
(351,1422,l),
(140,1422,l)
);
}
);
width = 1326;
}
);
leftKerningGroup = at;
unicode = 306;
},
